<svg xmlns="http://www.w3.org/2000/svg" xmlns:xlink="http://www.w3.org/1999/xlink" contentStyleType="text/css" data-diagram-type="DESCRIPTION" height="1014px" preserveAspectRatio="none" style="width:632px;height:1014px;background:#FFFFFF;" version="1.1" viewBox="0 0 632 1014" width="632px" zoomAndPan="magnify"><defs/><g><!--cluster Bruger h?ndtering--><g id="cluster_Bruger h&#229;ndtering"><path d="M209.5,222 L356.6182,222 A3.75,3.75 0 0 1 359.1182,224.5 L366.1182,244.2969 L366.5,244.2969 A2.5,2.5 0 0 1 369,246.7969 L369,428.5 A2.5,2.5 0 0 1 366.5,431 L209.5,431 A2.5,2.5 0 0 1 207,428.5 L207,224.5 A2.5,2.5 0 0 1 209.5,222 " fill="#FFFFFF" fill-opacity="0.00000" style="stroke:#000000;stroke-width:1.5;"/><line style="stroke:#000000;stroke-width:1.5;" x1="207" x2="366.1182" y1="244.2969" y2="244.2969"/><text fill="#000000" font-family="sans-serif" font-size="14" font-weight="bold" lengthAdjust="spacing" textLength="146.1182" x="211" y="236.9951">Bruger h&#229;ndtering</text></g><!--cluster Hold Builder--><g id="cluster_Hold Builder"><path d="M184.5,502 L283.1855,502 A3.75,3.75 0 0 1 285.6855,504.5 L292.6855,524.2969 L390.5,524.2969 A2.5,2.5 0 0 1 393,526.7969 L393,1004.5 A2.5,2.5 0 0 1 390.5,1007 L184.5,1007 A2.5,2.5 0 0 1 182,1004.5 L182,504.5 A2.5,2.5 0 0 1 184.5,502 " fill="#FFFFFF" fill-opacity="0.00000" style="stroke:#000000;stroke-width:1.5;"/><line style="stroke:#000000;stroke-width:1.5;" x1="182" x2="292.6855" y1="524.2969" y2="524.2969"/><text fill="#000000" font-family="sans-serif" font-size="14" font-weight="bold" lengthAdjust="spacing" textLength="97.6855" x="186" y="516.9951">Hold Builder</text></g><!--cluster Privat turnering--><g id="cluster_Privat turnering"><path d="M423.5,116 L551.3203,116 A3.75,3.75 0 0 1 553.8203,118.5 L560.8203,138.2969 L622.5,138.2969 A2.5,2.5 0 0 1 625,140.7969 L625,342.5 A2.5,2.5 0 0 1 622.5,345 L423.5,345 A2.5,2.5 0 0 1 421,342.5 L421,118.5 A2.5,2.5 0 0 1 423.5,116 " fill="#FFFFFF" fill-opacity="0.00000" style="stroke:#000000;stroke-width:1.5;"/><line style="stroke:#000000;stroke-width:1.5;" x1="421" x2="560.8203" y1="138.2969" y2="138.2969"/><text fill="#000000" font-family="sans-serif" font-size="14" font-weight="bold" lengthAdjust="spacing" textLength="126.8203" x="425" y="130.9951">Privat turnering</text></g><!--cluster Turneringsopslagstavle--><g id="cluster_Turneringsopslagstavle"><path d="M424.5,6 L611.54,6 A3.75,3.75 0 0 1 614.04,8.5 L621.04,28.2969 L621.5,28.2969 A2.5,2.5 0 0 1 624,30.7969 L624,86.5 A2.5,2.5 0 0 1 621.5,89 L424.5,89 A2.5,2.5 0 0 1 422,86.5 L422,8.5 A2.5,2.5 0 0 1 424.5,6 " fill="#FFFFFF" fill-opacity="0.00000" style="stroke:#000000;stroke-width:1.5;"/><line style="stroke:#000000;stroke-width:1.5;" x1="422" x2="621.04" y1="28.2969" y2="28.2969"/><text fill="#000000" font-family="sans-serif" font-size="14" font-weight="bold" lengthAdjust="spacing" textLength="186.04" x="426" y="20.9951">Turneringsopslagstavle</text></g><g id="elem_Login"><ellipse cx="287.4641" cy="272.0557" fill="#F1F1F1" rx="38.4641" ry="14.5557" style="stroke:#181818;stroke-width:0.5;"/><text fill="#000000" font-family="sans-serif" font-size="14" lengthAdjust="spacing" textLength="38.0146" x="266.59" y="275.5106">Login</text></g><g id="elem_Register"><ellipse cx="287.5484" cy="336.2232" fill="#F1F1F1" rx="53.5484" ry="14.7232" style="stroke:#181818;stroke-width:0.5;"/><text fill="#000000" font-family="sans-serif" font-size="14" lengthAdjust="spacing" textLength="58.2695" x="255.4136" y="339.9707">Register</text></g><g id="elem_Logout"><ellipse cx="287.6618" cy="400.1014" fill="#F1F1F1" rx="42.1618" ry="14.6014" style="stroke:#181818;stroke-width:0.5;"/><text fill="#000000" font-family="sans-serif" font-size="14" lengthAdjust="spacing" textLength="43.0117" x="263.156" y="403.849">Logud</text></g><g id="elem_createTeam"><ellipse cx="287.535" cy="552.107" fill="#F1F1F1" rx="63.535" ry="15.107" style="stroke:#181818;stroke-width:0.5;"/><text fill="#000000" font-family="sans-serif" font-size="14" lengthAdjust="spacing" textLength="74.4297" x="247.3202" y="555.8546">Opret hold</text></g><g id="elem_deleteTeam"><ellipse cx="287.4928" cy="617.2429" fill="#F1F1F1" rx="55.9928" ry="14.7429" style="stroke:#181818;stroke-width:0.5;"/><text fill="#000000" font-family="sans-serif" font-size="14" lengthAdjust="spacing" textLength="61.5439" x="253.7209" y="620.9904">Slet hold</text></g><g id="elem_addTeamPlayer"><ellipse cx="287.5301" cy="687.206" fill="#F1F1F1" rx="89.0301" ry="20.206" style="stroke:#181818;stroke-width:0.5;"/><text fill="#000000" font-family="sans-serif" font-size="14" lengthAdjust="spacing" textLength="139.542" x="217.7591" y="690.0527">Tilf&#230;j Spiller til hold</text></g><g id="elem_pickTeamCaptain"><ellipse cx="287.3317" cy="761.1663" fill="#F1F1F1" rx="83.8317" ry="19.1663" style="stroke:#181818;stroke-width:0.5;"/><text fill="#000000" font-family="sans-serif" font-size="14" lengthAdjust="spacing" textLength="127.6201" x="223.2064" y="764.121">V&#230;lg hold kaptajn</text></g><g id="elem_removeTeamPlayer"><ellipse cx="287.3343" cy="835.7669" fill="#F1F1F1" rx="89.3343" ry="20.2669" style="stroke:#181818;stroke-width:0.5;"/><text fill="#000000" font-family="sans-serif" font-size="14" lengthAdjust="spacing" textLength="140.2324" x="217.218" y="838.6135">Fjern spiller fra hold</text></g><g id="elem_changeFormation"><ellipse cx="287.7337" cy="909.2467" fill="#F1F1F1" rx="74.2337" ry="17.2467" style="stroke:#181818;stroke-width:0.5;"/><text fill="#000000" font-family="sans-serif" font-size="14" lengthAdjust="spacing" textLength="104.0361" x="232.7156" y="912.9943">Skift formation</text></g><g id="elem_lockTeam"><ellipse cx="287.5994" cy="976.2236" fill="#F1F1F1" rx="53.5994" ry="14.7236" style="stroke:#181818;stroke-width:0.5;"/><text fill="#000000" font-family="sans-serif" font-size="14" lengthAdjust="spacing" textLength="58.3379" x="255.4305" y="979.9712">L&#229;s hold</text></g><g id="elem_createTournament"><ellipse cx="522.7559" cy="311.1512" fill="#F1F1F1" rx="76.2559" ry="17.6512" style="stroke:#181818;stroke-width:0.5;"/><text fill="#000000" font-family="sans-serif" font-size="14" lengthAdjust="spacing" textLength="109.2246" x="465.1436" y="314.8987">Opret turnering</text></g><g id="elem_inviteToTournament"><ellipse cx="522.8211" cy="239.0642" fill="#F1F1F1" rx="85.8211" ry="19.5642" style="stroke:#181818;stroke-width:0.5;"/><text fill="#000000" font-family="sans-serif" font-size="14" lengthAdjust="spacing" textLength="132.2139" x="456.7142" y="241.9109">Inviter til turnering</text></g><g id="elem_deleteTournament"><ellipse cx="522.8049" cy="168.161" fill="#F1F1F1" rx="71.3049" ry="16.661" style="stroke:#181818;stroke-width:0.5;"/><text fill="#000000" font-family="sans-serif" font-size="14" lengthAdjust="spacing" textLength="96.3389" x="471.6355" y="171.9085">Slet turnering</text></g><g id="elem_createBulletin"><ellipse cx="523.0792" cy="57.2158" fill="#F1F1F1" rx="69.0792" ry="16.2158" style="stroke:#181818;stroke-width:0.5;"/><text fill="#000000" font-family="sans-serif" font-size="14" lengthAdjust="spacing" textLength="90.3164" x="474.921" y="60.9634">Opret opslag</text></g><!--entity User--><g id="elem_User"><ellipse cx="72.2446" cy="338.5" fill="#F1F1F1" rx="8" ry="8" style="stroke:#181818;stroke-width:0.5;"/><path d="M72.2446,346.5 L72.2446,373.5 M59.2446,354.5 L85.2446,354.5 M72.2446,373.5 L59.2446,388.5 M72.2446,373.5 L85.2446,388.5 " fill="#FFFFFF" fill-opacity="0.00000" style="stroke:#181818;stroke-width:0.5;"/><text fill="#000000" font-family="sans-serif" font-size="14" lengthAdjust="spacing" textLength="47.4893" x="48.5" y="402.9951">Bruger</text></g><!--entity HoldAdministrator--><g id="elem_HoldAdministrator"><ellipse cx="72.001" cy="731.5" fill="#F1F1F1" rx="8" ry="8" style="stroke:#181818;stroke-width:0.5;"/><path d="M72.001,739.5 L72.001,766.5 M59.001,747.5 L85.001,747.5 M72.001,766.5 L59.001,781.5 M72.001,766.5 L85.001,781.5 " fill="#FFFFFF" fill-opacity="0.00000" style="stroke:#181818;stroke-width:0.5;"/><text fill="#000000" font-family="sans-serif" font-size="14" lengthAdjust="spacing" textLength="132.002" x="6" y="795.9951">Hold Administrator</text></g><!--entity TurneyPlanner--><g id="elem_TurneyPlanner"><ellipse cx="287.5586" cy="138.5" fill="#F1F1F1" rx="8" ry="8" style="stroke:#181818;stroke-width:0.5;"/><path d="M287.5586,146.5 L287.5586,173.5 M274.5586,154.5 L300.5586,154.5 M287.5586,173.5 L274.5586,188.5 M287.5586,173.5 L300.5586,188.5 " fill="#FFFFFF" fill-opacity="0.00000" style="stroke:#181818;stroke-width:0.5;"/><text fill="#000000" font-family="sans-serif" font-size="14" lengthAdjust="spacing" textLength="136.1172" x="219.5" y="202.9951">Turneringsarrang&#248;r</text></g><!--entity TurneyAttendeee--><g id="elem_TurneyAttendeee"><ellipse cx="287.54" cy="27.5" fill="#F1F1F1" rx="8" ry="8" style="stroke:#181818;stroke-width:0.5;"/><path d="M287.54,35.5 L287.54,62.5 M274.54,43.5 L300.54,43.5 M287.54,62.5 L274.54,77.5 M287.54,62.5 L300.54,77.5 " fill="#FFFFFF" fill-opacity="0.00000" style="stroke:#181818;stroke-width:0.5;"/><text fill="#000000" font-family="sans-serif" font-size="14" lengthAdjust="spacing" textLength="134.0801" x="220.5" y="91.9951">Turneringsdeltager</text></g><!--reverse link User to HoldAdministrator--><g id="link_User_HoldAdministrator"><path d="M72,424.09 C72,529.6 72,617.11 72,722.62 " fill="#FFFFFF" fill-opacity="0.00000" id="User-backto-HoldAdministrator" style="stroke:#181818;stroke-width:1;"/><polygon fill="#FFFFFF" fill-opacity="0.00000" points="72,406.09,66,424.09,78,424.09,72,406.09" style="stroke:#181818;stroke-width:1;"/></g><!--reverse link User to TurneyPlanner--><g id="link_User_TurneyPlanner"><path d="M105.9677,318.9236 C124.8977,291.8236 143.34,268.84 174,241 C187.88,228.4 204.15,216.51 219.94,206.12 " fill="#FFFFFF" fill-opacity="0.00000" id="User-backto-TurneyPlanner" style="stroke:#181818;stroke-width:1;"/><polygon fill="#FFFFFF" fill-opacity="0.00000" points="95.66,333.68,110.8865,322.3595,101.0489,315.4877,95.66,333.68" style="stroke:#181818;stroke-width:1;"/></g><!--reverse link User to TurneyAttendeee--><g id="link_User_TurneyAttendeee"><path d="M82.4752,312.285 C92.9652,257.835 115.8,174.99 174,112 C186.69,98.27 203.55,87.56 220.34,79.38 " fill="#FFFFFF" fill-opacity="0.00000" id="User-backto-TurneyAttendeee" style="stroke:#181818;stroke-width:1;"/><polygon fill="#FFFFFF" fill-opacity="0.00000" points="79.07,329.96,88.3668,313.4201,76.5835,311.15,79.07,329.96" style="stroke:#181818;stroke-width:1;"/></g><!--reverse link TurneyAttendeee to TurneyPlanner--><g id="link_TurneyAttendeee_TurneyPlanner"><path d="M287.5,113.13 C287.5,124.7 287.5,118.27 287.5,129.84 " fill="#FFFFFF" fill-opacity="0.00000" id="TurneyAttendeee-backto-TurneyPlanner" style="stroke:#181818;stroke-width:1;"/><polygon fill="#FFFFFF" fill-opacity="0.00000" points="287.5,95.13,281.5,113.13,293.5,113.13,287.5,95.13" style="stroke:#181818;stroke-width:1;"/></g><!--link User to Login--><g id="link_User_Login"><path d="M95.6,351 C115.39,336.77 145.39,316.81 174,304 C199.58,292.55 224.4256,285.4976 247.2856,280.1876 " fill="#FFFFFF" fill-opacity="0.00000" id="User-to-Login" style="stroke:#181818;stroke-width:1;"/><polygon fill="#181818" points="253.13,278.83,243.4584,276.9701,248.2597,279.9613,245.2684,284.7626,253.13,278.83" style="stroke:#181818;stroke-width:1;"/></g><!--link User to Register--><g id="link_User_Register"><path d="M95.85,364.58 C130.16,359.43 189.7963,350.4997 234.3463,343.8197 " fill="#FFFFFF" fill-opacity="0.00000" id="User-to-Register" style="stroke:#181818;stroke-width:1;"/><polygon fill="#181818" points="240.28,342.93,230.7864,340.3088,235.3353,343.6714,231.9726,348.2204,240.28,342.93" style="stroke:#181818;stroke-width:1;"/></g><!--link User to Logout--><g id="link_User_Logout"><path d="M95.85,371.42 C132.42,376.91 198.5663,386.8204 242.8563,393.4604 " fill="#FFFFFF" fill-opacity="0.00000" id="User-to-Logout" style="stroke:#181818;stroke-width:1;"/><polygon fill="#181818" points="248.79,394.35,240.4825,389.0598,243.8453,393.6087,239.2964,396.9714,248.79,394.35" style="stroke:#181818;stroke-width:1;"/></g><!--link User to createTeam--><g id="link_User_createTeam"><path d="M95.56,403.73 C114.12,431 142.42,468.17 174,494 C197.98,513.62 224.1595,526.8697 247.7895,536.9297 " fill="#FFFFFF" fill-opacity="0.00000" id="User-to-createTeam" style="stroke:#181818;stroke-width:1;"/><polygon fill="#181818" points="253.31,539.28,246.596,532.0743,248.7096,537.3215,243.4624,539.435,253.31,539.28" style="stroke:#181818;stroke-width:1;"/></g><!--link HoldAdministrator to deleteTeam--><g id="link_HoldAdministrator_deleteTeam"><path d="M98.65,722.92 C116.96,698.48 143.66,667.9 174,649 C193.56,636.82 212.038,630.4646 233.068,625.7046 " fill="#FFFFFF" fill-opacity="0.00000" id="HoldAdministrator-to-deleteTeam" style="stroke:#181818;stroke-width:1;"/><polygon fill="#181818" points="238.92,624.38,229.259,622.4655,234.0434,625.4838,231.0251,630.2681,238.92,624.38" style="stroke:#181818;stroke-width:1;"/></g><!--link HoldAdministrator to addTeamPlayer--><g id="link_HoldAdministrator_addTeamPlayer"><path d="M138.08,736.8 C150.01,732.46 162.36,728.05 174,724 C194.1,717.01 210.6362,711.492 229.9962,705.172 " fill="#FFFFFF" fill-opacity="0.00000" id="HoldAdministrator-to-addTeamPlayer" style="stroke:#181818;stroke-width:1;"/><polygon fill="#181818" points="235.7,703.31,225.903,702.3004,230.9469,704.8616,228.3857,709.9055,235.7,703.31" style="stroke:#181818;stroke-width:1;"/></g><!--link HoldAdministrator to pickTeamCaptain--><g id="link_HoldAdministrator_pickTeamCaptain"><path d="M138.22,761 C158.7,761 175.59,761 197.15,761 " fill="#FFFFFF" fill-opacity="0.00000" id="HoldAdministrator-to-pickTeamCaptain" style="stroke:#181818;stroke-width:1;"/><polygon fill="#181818" points="203.15,761,194.15,757,198.15,761,194.15,765,203.15,761" style="stroke:#181818;stroke-width:1;"/></g><!--link HoldAdministrator to removeTeamPlayer--><g id="link_HoldAdministrator_removeTeamPlayer"><path d="M138.11,785.13 C150.03,789.47 162.37,793.91 174,798 C194.13,805.08 210.6823,810.7394 230.0323,817.2394 " fill="#FFFFFF" fill-opacity="0.00000" id="HoldAdministrator-to-removeTeamPlayer" style="stroke:#181818;stroke-width:1;"/><polygon fill="#181818" points="235.72,819.15,228.4622,812.4923,230.9803,817.5578,225.9148,820.0759,235.72,819.15" style="stroke:#181818;stroke-width:1;"/></g><!--link HoldAdministrator to changeFormation--><g id="link_HoldAdministrator_changeFormation"><path d="M98.73,799.18 C117.08,823.74 143.79,854.57 174,874 C191.03,884.95 205.9447,891.0434 224.9047,896.3834 " fill="#FFFFFF" fill-opacity="0.00000" id="HoldAdministrator-to-changeFormation" style="stroke:#181818;stroke-width:1;"/><polygon fill="#181818" points="230.68,898.01,223.1014,891.7199,225.8672,896.6545,220.9326,899.4203,230.68,898.01" style="stroke:#181818;stroke-width:1;"/></g><!--link HoldAdministrator to lockTeam--><g id="link_HoldAdministrator_lockTeam"><path d="M84.19,799.05 C98.38,840.69 126.85,906.51 174,944 C192.04,958.34 210.3224,965.0541 231.6224,969.4241 " fill="#FFFFFF" fill-opacity="0.00000" id="HoldAdministrator-to-lockTeam" style="stroke:#181818;stroke-width:1;"/><polygon fill="#181818" points="237.5,970.63,229.4876,964.9028,232.602,969.6251,227.8797,972.7396,237.5,970.63" style="stroke:#181818;stroke-width:1;"/></g><!--link User to createTournament--><g id="link_User_createTournament"><path d="M95.67,387.38 C115.04,402.57 144.4,422.52 174,431 C270.99,458.77 307.71,469.42 401,431 C451.88,410.05 489.3801,361.1878 507.9001,333.3078 " fill="#FFFFFF" fill-opacity="0.00000" id="User-to-createTournament" style="stroke:#181818;stroke-width:1;"/><polygon fill="#181818" points="511.22,328.31,502.9082,333.5934,508.4534,332.4748,509.572,338.02,511.22,328.31" style="stroke:#181818;stroke-width:1;"/></g><!--link TurneyPlanner to inviteToTournament--><g id="link_TurneyPlanner_inviteToTournament"><path d="M355.72,188.44 C392.37,199.58 431.2693,211.4152 465.0593,221.6852 " fill="#FFFFFF" fill-opacity="0.00000" id="TurneyPlanner-to-inviteToTournament" style="stroke:#181818;stroke-width:1;"/><polygon fill="#181818" points="470.8,223.43,463.3522,216.9857,466.0161,221.976,461.0257,224.6399,470.8,223.43" style="stroke:#181818;stroke-width:1;"/></g><!--link TurneyPlanner to deleteTournament--><g id="link_TurneyPlanner_deleteTournament"><path d="M355.72,168 C385.63,168 414.87,168 445.18,168 " fill="#FFFFFF" fill-opacity="0.00000" id="TurneyPlanner-to-deleteTournament" style="stroke:#181818;stroke-width:1;"/><polygon fill="#181818" points="451.18,168,442.18,164,446.18,168,442.18,172,451.18,168" style="stroke:#181818;stroke-width:1;"/></g><!--link TurneyAttendeee to createBulletin--><g id="link_TurneyAttendeee_createBulletin"><path d="M354.79,57 C385.8,57 416.69,57 447.92,57 " fill="#FFFFFF" fill-opacity="0.00000" id="TurneyAttendeee-to-createBulletin" style="stroke:#181818;stroke-width:1;"/><polygon fill="#181818" points="453.92,57,444.92,53,448.92,57,444.92,61,453.92,57" style="stroke:#181818;stroke-width:1;"/></g><!--SRC=[TLH1Rjim4Bph5OHFzS4V28e2SO6W1G8qgDtU5-9QfasH0hao4BHvJlA6tlMnKgHaKgBaapKxkxCxN5BYYHXfPaHr9iQ5mPA4LaK19Md37lQchT0yCB3ibqKpmj-qvEoHrq89ImOSvYazF46BFebz_hjR20sbZgrHQ8IgB1W3gkh-XLeUVtsHe5puNcStmxCY72N1s7BWFXAXueYOLOcHsRTlUQfKD51UNMMs2PwmS_UkE7dL3VjJCFThBPPW7ULPLq9j-XO- -R_RQVWdLiu6D84nVcsp6Ys_rz0jROktCC5kz-LUDmAnp8Ja4sFp_kJshP2ybv-r_QCnIEpiA46tD0Y4HuHwrjj1JdZET5pa7OKyTHyNTcY4bAuf4Z990yxx7EVmQpRzx-v3LfxBhj0GN0Ox6r5U-wIlFPWP-tH1evWTr4u64ZM3jRxXgk3XAjnLE6bJGty31WFERYFnQGJd9zIzsqH0wj3Qz9nI3xDB42YfVIkKcLKhhCoS5LvknGenct-55qUFc_PYn0tSup9UpPLjI-B9occ7GesAPfP_LpT1moBDCeKF7VLghb_QMT9WVPAoS7P9TF8c1DAIxW8jLufMnUTBDrP2PGbk4bSC2vJKhNthrftwytxB7h9aZaZx3m00]--></g></svg>