<svg xmlns="http://www.w3.org/2000/svg" xmlns:xlink="http://www.w3.org/1999/xlink" contentStyleType="text/css" data-diagram-type="DESCRIPTION" height="1017px" preserveAspectRatio="none" style="width:633px;height:1017px;background:#FFFFFF;" version="1.1" viewBox="0 0 633 1017" width="633px" zoomAndPan="magnify"><defs/><g><!--cluster Bruger h?ndtering--><g id="cluster_Bruger h&#229;ndtering"><path d="M210,222 L357.1182,222 A3.75,3.75 0 0 1 359.6182,224.5 L366.6182,244.2969 L367,244.2969 A2.5,2.5 0 0 1 369.5,246.7969 L369.5,428.5 A2.5,2.5 0 0 1 367,431 L210,431 A2.5,2.5 0 0 1 207.5,428.5 L207.5,224.5 A2.5,2.5 0 0 1 210,222 " fill="#FFFFFF" fill-opacity="0.00000" style="stroke:#000000;stroke-width:1.5;"/><line style="stroke:#000000;stroke-width:1.5;" x1="207.5" x2="366.6182" y1="244.2969" y2="244.2969"/><text fill="#000000" font-family="sans-serif" font-size="14" font-weight="bold" lengthAdjust="spacing" textLength="146.1182" x="211.5" y="236.9951">Bruger h&#229;ndtering</text></g><!--cluster Hold Builder--><g id="cluster_Hold Builder"><path d="M184.5,502 L283.1855,502 A3.75,3.75 0 0 1 285.6855,504.5 L292.6855,524.2969 L391.5,524.2969 A2.5,2.5 0 0 1 394,526.7969 L394,1007.5 A2.5,2.5 0 0 1 391.5,1010 L184.5,1010 A2.5,2.5 0 0 1 182,1007.5 L182,504.5 A2.5,2.5 0 0 1 184.5,502 " fill="#FFFFFF" fill-opacity="0.00000" style="stroke:#000000;stroke-width:1.5;"/><line style="stroke:#000000;stroke-width:1.5;" x1="182" x2="292.6855" y1="524.2969" y2="524.2969"/><text fill="#000000" font-family="sans-serif" font-size="14" font-weight="bold" lengthAdjust="spacing" textLength="97.6855" x="186" y="516.9951">Hold Builder</text></g><!--cluster Privat turnering--><g id="cluster_Privat turnering"><path d="M424.5,116 L552.3203,116 A3.75,3.75 0 0 1 554.8203,118.5 L561.8203,138.2969 L623.5,138.2969 A2.5,2.5 0 0 1 626,140.7969 L626,342.5 A2.5,2.5 0 0 1 623.5,345 L424.5,345 A2.5,2.5 0 0 1 422,342.5 L422,118.5 A2.5,2.5 0 0 1 424.5,116 " fill="#FFFFFF" fill-opacity="0.00000" style="stroke:#000000;stroke-width:1.5;"/><line style="stroke:#000000;stroke-width:1.5;" x1="422" x2="561.8203" y1="138.2969" y2="138.2969"/><text fill="#000000" font-family="sans-serif" font-size="14" font-weight="bold" lengthAdjust="spacing" textLength="126.8203" x="426" y="130.9951">Privat turnering</text></g><!--cluster Turneringsopslagstavle--><g id="cluster_Turneringsopslagstavle"><path d="M425.5,6 L612.54,6 A3.75,3.75 0 0 1 615.04,8.5 L622.04,28.2969 L622.5,28.2969 A2.5,2.5 0 0 1 625,30.7969 L625,86.5 A2.5,2.5 0 0 1 622.5,89 L425.5,89 A2.5,2.5 0 0 1 423,86.5 L423,8.5 A2.5,2.5 0 0 1 425.5,6 " fill="#FFFFFF" fill-opacity="0.00000" style="stroke:#000000;stroke-width:1.5;"/><line style="stroke:#000000;stroke-width:1.5;" x1="423" x2="622.04" y1="28.2969" y2="28.2969"/><text fill="#000000" font-family="sans-serif" font-size="14" font-weight="bold" lengthAdjust="spacing" textLength="186.04" x="427" y="20.9951">Turneringsopslagstavle</text></g><g id="elem_Login"><ellipse cx="287.9641" cy="272.0557" fill="#F1F1F1" rx="38.4641" ry="14.5557" style="stroke:#181818;stroke-width:0.5;"/><text fill="#000000" font-family="sans-serif" font-size="14" lengthAdjust="spacing" textLength="38.0146" x="267.09" y="275.5106">Login</text></g><g id="elem_Register"><ellipse cx="288.0484" cy="336.2232" fill="#F1F1F1" rx="53.5484" ry="14.7232" style="stroke:#181818;stroke-width:0.5;"/><text fill="#000000" font-family="sans-serif" font-size="14" lengthAdjust="spacing" textLength="58.2695" x="255.9136" y="339.9707">Register</text></g><g id="elem_Logout"><ellipse cx="288.1618" cy="400.1014" fill="#F1F1F1" rx="42.1618" ry="14.6014" style="stroke:#181818;stroke-width:0.5;"/><text fill="#000000" font-family="sans-serif" font-size="14" lengthAdjust="spacing" textLength="43.0117" x="263.656" y="403.849">Logud</text></g><g id="elem_createTeam"><ellipse cx="288.035" cy="552.107" fill="#F1F1F1" rx="63.535" ry="15.107" style="stroke:#181818;stroke-width:0.5;"/><text fill="#000000" font-family="sans-serif" font-size="14" lengthAdjust="spacing" textLength="74.4297" x="247.8202" y="555.8546">Opret hold</text></g><g id="elem_deleteTeam"><ellipse cx="287.9928" cy="617.2429" fill="#F1F1F1" rx="55.9928" ry="14.7429" style="stroke:#181818;stroke-width:0.5;"/><text fill="#000000" font-family="sans-serif" font-size="14" lengthAdjust="spacing" textLength="61.5439" x="254.2209" y="620.9904">Slet hold</text></g><g id="elem_addTeamPlayer"><ellipse cx="288.0301" cy="687.206" fill="#F1F1F1" rx="89.0301" ry="20.206" style="stroke:#181818;stroke-width:0.5;"/><text fill="#000000" font-family="sans-serif" font-size="14" lengthAdjust="spacing" textLength="139.542" x="218.2591" y="690.0527">Tilf&#230;j Spiller til hold</text></g><g id="elem_pickTeamCaptain"><ellipse cx="288.1097" cy="762.9219" fill="#F1F1F1" rx="90.1097" ry="20.4219" style="stroke:#181818;stroke-width:0.5;"/><text fill="#000000" font-family="sans-serif" font-size="14" lengthAdjust="spacing" textLength="141.9893" x="217.1151" y="765.7686">V&#230;lg hold kaptajner</text></g><g id="elem_removeTeamPlayer"><ellipse cx="287.8343" cy="838.7669" fill="#F1F1F1" rx="89.3343" ry="20.2669" style="stroke:#181818;stroke-width:0.5;"/><text fill="#000000" font-family="sans-serif" font-size="14" lengthAdjust="spacing" textLength="140.2324" x="217.718" y="841.6135">Fjern spiller fra hold</text></g><g id="elem_changeFormation"><ellipse cx="288.2337" cy="912.2467" fill="#F1F1F1" rx="74.2337" ry="17.2467" style="stroke:#181818;stroke-width:0.5;"/><text fill="#000000" font-family="sans-serif" font-size="14" lengthAdjust="spacing" textLength="104.0361" x="233.2156" y="915.9943">Skift formation</text></g><g id="elem_lockTeam"><ellipse cx="288.0994" cy="979.2236" fill="#F1F1F1" rx="53.5994" ry="14.7236" style="stroke:#181818;stroke-width:0.5;"/><text fill="#000000" font-family="sans-serif" font-size="14" lengthAdjust="spacing" textLength="58.3379" x="255.9305" y="982.9712">L&#229;s hold</text></g><g id="elem_createTournament"><ellipse cx="523.7559" cy="311.1512" fill="#F1F1F1" rx="76.2559" ry="17.6512" style="stroke:#181818;stroke-width:0.5;"/><text fill="#000000" font-family="sans-serif" font-size="14" lengthAdjust="spacing" textLength="109.2246" x="466.1436" y="314.8987">Opret turnering</text></g><g id="elem_inviteToTournament"><ellipse cx="523.8211" cy="239.0642" fill="#F1F1F1" rx="85.8211" ry="19.5642" style="stroke:#181818;stroke-width:0.5;"/><text fill="#000000" font-family="sans-serif" font-size="14" lengthAdjust="spacing" textLength="132.2139" x="457.7142" y="241.9109">Inviter til turnering</text></g><g id="elem_deleteTournament"><ellipse cx="523.8049" cy="168.161" fill="#F1F1F1" rx="71.3049" ry="16.661" style="stroke:#181818;stroke-width:0.5;"/><text fill="#000000" font-family="sans-serif" font-size="14" lengthAdjust="spacing" textLength="96.3389" x="472.6355" y="171.9085">Slet turnering</text></g><g id="elem_createBulletin"><ellipse cx="524.0792" cy="57.2158" fill="#F1F1F1" rx="69.0792" ry="16.2158" style="stroke:#181818;stroke-width:0.5;"/><text fill="#000000" font-family="sans-serif" font-size="14" lengthAdjust="spacing" textLength="90.3164" x="475.921" y="60.9634">Opret opslag</text></g><!--entity User--><g id="elem_User"><ellipse cx="72.2446" cy="338.5" fill="#F1F1F1" rx="8" ry="8" style="stroke:#181818;stroke-width:0.5;"/><path d="M72.2446,346.5 L72.2446,373.5 M59.2446,354.5 L85.2446,354.5 M72.2446,373.5 L59.2446,388.5 M72.2446,373.5 L85.2446,388.5 " fill="#FFFFFF" fill-opacity="0.00000" style="stroke:#181818;stroke-width:0.5;"/><text fill="#000000" font-family="sans-serif" font-size="14" lengthAdjust="spacing" textLength="47.4893" x="48.5" y="402.9951">Bruger</text></g><!--entity HoldAdministrator--><g id="elem_HoldAdministrator"><ellipse cx="72.001" cy="733.5" fill="#F1F1F1" rx="8" ry="8" style="stroke:#181818;stroke-width:0.5;"/><path d="M72.001,741.5 L72.001,768.5 M59.001,749.5 L85.001,749.5 M72.001,768.5 L59.001,783.5 M72.001,768.5 L85.001,783.5 " fill="#FFFFFF" fill-opacity="0.00000" style="stroke:#181818;stroke-width:0.5;"/><text fill="#000000" font-family="sans-serif" font-size="14" lengthAdjust="spacing" textLength="132.002" x="6" y="797.9951">Hold Administrator</text></g><!--entity TurneyPlanner--><g id="elem_TurneyPlanner"><ellipse cx="288.0586" cy="138.5" fill="#F1F1F1" rx="8" ry="8" style="stroke:#181818;stroke-width:0.5;"/><path d="M288.0586,146.5 L288.0586,173.5 M275.0586,154.5 L301.0586,154.5 M288.0586,173.5 L275.0586,188.5 M288.0586,173.5 L301.0586,188.5 " fill="#FFFFFF" fill-opacity="0.00000" style="stroke:#181818;stroke-width:0.5;"/><text fill="#000000" font-family="sans-serif" font-size="14" lengthAdjust="spacing" textLength="136.1172" x="220" y="202.9951">Turneringsarrang&#248;r</text></g><!--entity TurneyAttendeee--><g id="elem_TurneyAttendeee"><ellipse cx="288.04" cy="27.5" fill="#F1F1F1" rx="8" ry="8" style="stroke:#181818;stroke-width:0.5;"/><path d="M288.04,35.5 L288.04,62.5 M275.04,43.5 L301.04,43.5 M288.04,62.5 L275.04,77.5 M288.04,62.5 L301.04,77.5 " fill="#FFFFFF" fill-opacity="0.00000" style="stroke:#181818;stroke-width:0.5;"/><text fill="#000000" font-family="sans-serif" font-size="14" lengthAdjust="spacing" textLength="134.0801" x="221" y="91.9951">Turneringsdeltager</text></g><!--reverse link User to HoldAdministrator--><g id="link_User_HoldAdministrator"><path d="M72,424.33 C72,530.49 72,618.65 72,724.81 " fill="#FFFFFF" fill-opacity="0.00000" id="User-backto-HoldAdministrator" style="stroke:#181818;stroke-width:1;"/><polygon fill="#FFFFFF" fill-opacity="0.00000" points="72,406.33,66,424.33,78,424.33,72,406.33" style="stroke:#181818;stroke-width:1;"/></g><!--reverse link User to TurneyPlanner--><g id="link_User_TurneyPlanner"><path d="M105.954,318.901 C124.874,291.801 143.31,268.81 174,241 C187.93,228.37 204.27,216.47 220.14,206.08 " fill="#FFFFFF" fill-opacity="0.00000" id="User-backto-TurneyPlanner" style="stroke:#181818;stroke-width:1;"/><polygon fill="#FFFFFF" fill-opacity="0.00000" points="95.65,333.66,110.8737,322.3357,101.0344,315.4664,95.65,333.66" style="stroke:#181818;stroke-width:1;"/></g><!--reverse link User to TurneyAttendeee--><g id="link_User_TurneyAttendeee"><path d="M82.4583,312.2637 C92.9283,257.8037 115.74,174.94 174,112 C186.82,98.15 203.88,87.38 220.85,79.19 " fill="#FFFFFF" fill-opacity="0.00000" id="User-backto-TurneyAttendeee" style="stroke:#181818;stroke-width:1;"/><polygon fill="#FFFFFF" fill-opacity="0.00000" points="79.06,329.94,88.3504,313.3965,76.5662,311.1309,79.06,329.94" style="stroke:#181818;stroke-width:1;"/></g><!--reverse link TurneyAttendeee to TurneyPlanner--><g id="link_TurneyAttendeee_TurneyPlanner"><path d="M288,113.13 C288,124.7 288,118.27 288,129.84 " fill="#FFFFFF" fill-opacity="0.00000" id="TurneyAttendeee-backto-TurneyPlanner" style="stroke:#181818;stroke-width:1;"/><polygon fill="#FFFFFF" fill-opacity="0.00000" points="288,95.13,282,113.13,294,113.13,288,95.13" style="stroke:#181818;stroke-width:1;"/></g><!--link User to Login--><g id="link_User_Login"><path d="M95.59,350.99 C115.39,336.76 145.38,316.79 174,304 C199.69,292.52 224.6743,285.4719 247.6343,280.1619 " fill="#FFFFFF" fill-opacity="0.00000" id="User-to-Login" style="stroke:#181818;stroke-width:1;"/><polygon fill="#181818" points="253.48,278.81,243.8101,276.9408,248.6086,279.9366,245.6127,284.7351,253.48,278.81" style="stroke:#181818;stroke-width:1;"/></g><!--link User to Register--><g id="link_User_Register"><path d="M95.9,364.58 C130.3,359.43 190.086,350.4978 234.736,343.8178 " fill="#FFFFFF" fill-opacity="0.00000" id="User-to-Register" style="stroke:#181818;stroke-width:1;"/><polygon fill="#181818" points="240.67,342.93,231.1772,340.3057,235.725,343.6698,232.3609,348.2176,240.67,342.93" style="stroke:#181818;stroke-width:1;"/></g><!--link User to Logout--><g id="link_User_Logout"><path d="M95.9,371.42 C132.56,376.91 198.866,386.8226 243.266,393.4626 " fill="#FFFFFF" fill-opacity="0.00000" id="User-to-Logout" style="stroke:#181818;stroke-width:1;"/><polygon fill="#181818" points="249.2,394.35,240.8906,389.0629,244.255,393.6105,239.7074,396.9749,249.2,394.35" style="stroke:#181818;stroke-width:1;"/></g><!--link User to createTeam--><g id="link_User_createTeam"><path d="M95.55,403.74 C114.1,431.03 142.4,468.2 174,494 C198.09,513.66 224.3947,526.9209 248.1347,536.9709 " fill="#FFFFFF" fill-opacity="0.00000" id="User-to-createTeam" style="stroke:#181818;stroke-width:1;"/><polygon fill="#181818" points="253.66,539.31,246.9314,532.1179,249.0556,537.3608,243.8127,539.4849,253.66,539.31" style="stroke:#181818;stroke-width:1;"/></g><!--link HoldAdministrator to deleteTeam--><g id="link_HoldAdministrator_deleteTeam"><path d="M98.1,724.77 C116.36,699.79 143.21,668.34 174,649 C193.6,636.69 212.1761,630.326 233.3061,625.576 " fill="#FFFFFF" fill-opacity="0.00000" id="HoldAdministrator-to-deleteTeam" style="stroke:#181818;stroke-width:1;"/><polygon fill="#181818" points="239.16,624.26,229.5018,622.3313,234.2817,625.3566,231.2564,630.1365,239.16,624.26" style="stroke:#181818;stroke-width:1;"/></g><!--link HoldAdministrator to addTeamPlayer--><g id="link_HoldAdministrator_addTeamPlayer"><path d="M138.07,738.13 C150,733.68 162.35,729.15 174,725 C194.47,717.71 211.4682,711.9082 231.1082,705.3582 " fill="#FFFFFF" fill-opacity="0.00000" id="HoldAdministrator-to-addTeamPlayer" style="stroke:#181818;stroke-width:1;"/><polygon fill="#181818" points="236.8,703.46,226.9968,702.5128,232.0568,705.0419,229.5278,710.1019,236.8,703.46" style="stroke:#181818;stroke-width:1;"/></g><!--link HoldAdministrator to pickTeamCaptain--><g id="link_HoldAdministrator_pickTeamCaptain"><path d="M138.08,763 C156.89,763 171.76,763 191.78,763 " fill="#FFFFFF" fill-opacity="0.00000" id="HoldAdministrator-to-pickTeamCaptain" style="stroke:#181818;stroke-width:1;"/><polygon fill="#181818" points="197.78,763,188.78,759,192.78,763,188.78,767,197.78,763" style="stroke:#181818;stroke-width:1;"/></g><!--link HoldAdministrator to removeTeamPlayer--><g id="link_HoldAdministrator_removeTeamPlayer"><path d="M138.07,787.87 C150,792.32 162.35,796.85 174,801 C194.18,808.19 210.8185,813.8709 230.2685,820.3609 " fill="#FFFFFF" fill-opacity="0.00000" id="HoldAdministrator-to-removeTeamPlayer" style="stroke:#181818;stroke-width:1;"/><polygon fill="#181818" points="235.96,822.26,228.6888,815.617,231.2171,820.6774,226.1566,823.2057,235.96,822.26" style="stroke:#181818;stroke-width:1;"/></g><!--link HoldAdministrator to changeFormation--><g id="link_HoldAdministrator_changeFormation"><path d="M98.45,801.27 C116.78,826.09 143.56,857.36 174,877 C191.08,888.02 206.0719,894.1433 225.1219,899.4733 " fill="#FFFFFF" fill-opacity="0.00000" id="HoldAdministrator-to-changeFormation" style="stroke:#181818;stroke-width:1;"/><polygon fill="#181818" points="230.9,901.09,223.3106,894.813,226.0849,899.7428,221.1551,902.5171,230.9,901.09" style="stroke:#181818;stroke-width:1;"/></g><!--link HoldAdministrator to lockTeam--><g id="link_HoldAdministrator_lockTeam"><path d="M84.12,801.26 C98.26,843.14 126.67,909.32 174,947 C192.18,961.48 210.699,968.2212 232.169,972.5612 " fill="#FFFFFF" fill-opacity="0.00000" id="HoldAdministrator-to-lockTeam" style="stroke:#181818;stroke-width:1;"/><polygon fill="#181818" points="238.05,973.75,230.021,968.0461,233.1491,972.7593,228.4359,975.8875,238.05,973.75" style="stroke:#181818;stroke-width:1;"/></g><!--link User to createTournament--><g id="link_User_createTournament"><path d="M95.67,387.38 C115.04,402.57 144.4,422.52 174,431 C271.42,458.89 308.3,469.58 402,431 C452.88,410.05 490.3801,361.1878 508.9001,333.3078 " fill="#FFFFFF" fill-opacity="0.00000" id="User-to-createTournament" style="stroke:#181818;stroke-width:1;"/><polygon fill="#181818" points="512.22,328.31,503.9082,333.5934,509.4534,332.4748,510.572,338.02,512.22,328.31" style="stroke:#181818;stroke-width:1;"/></g><!--link TurneyPlanner to inviteToTournament--><g id="link_TurneyPlanner_inviteToTournament"><path d="M356.06,188.35 C392.79,199.49 431.8684,211.3481 465.8184,221.6481 " fill="#FFFFFF" fill-opacity="0.00000" id="TurneyPlanner-to-inviteToTournament" style="stroke:#181818;stroke-width:1;"/><polygon fill="#181818" points="471.56,223.39,464.1089,216.9494,466.7754,221.9384,461.7864,224.6048,471.56,223.39" style="stroke:#181818;stroke-width:1;"/></g><!--link TurneyPlanner to deleteTournament--><g id="link_TurneyPlanner_deleteTournament"><path d="M356.06,168 C386.17,168 415.72,168 446.26,168 " fill="#FFFFFF" fill-opacity="0.00000" id="TurneyPlanner-to-deleteTournament" style="stroke:#181818;stroke-width:1;"/><polygon fill="#181818" points="452.26,168,443.26,164,447.26,168,443.26,172,452.26,168" style="stroke:#181818;stroke-width:1;"/></g><!--link TurneyAttendeee to createBulletin--><g id="link_TurneyAttendeee_createBulletin"><path d="M355.12,57 C386.2,57 417.24,57 448.6,57 " fill="#FFFFFF" fill-opacity="0.00000" id="TurneyAttendeee-to-createBulletin" style="stroke:#181818;stroke-width:1;"/><polygon fill="#181818" points="454.6,57,445.6,53,449.6,57,445.6,61,454.6,57" style="stroke:#181818;stroke-width:1;"/></g><!--SRC=[TLH1Rjim4Bph5OHFzS4V28e2SO6W1G8qgDtU5-9QfasH0hao4BHvJlA6tlMnKgHaKgBaapKxkxCxN5BYYHXfPaHr9iQ5mPA4LaK19Md37lQchT0yCB3ibqKpmj-qvEoHrq89ImOSvYazF46BFebz_hjR20sbZgrHQ8IgB1W3gkh-XLeUVtsHe5puNcStmxCY72N1s7BWFXAXueYOLOcHsRTlUQfKD51UNMMs2PwmS_UkE7dL3VjJCFThBPPW7ULPLq9j-XO- -R_RQVWdLiu6D84nVcsp6Ys_rz0jROktCC5kz-LUDmAnp8Ja4sFp_kJshP2ybv-r_QCnIEpiA46tD0Y4HuHwrjj1JdZET5pa7OKyTHyNTcY4bAuf4Z990yxx7EVmQpRzx-v3LfxBhj0GNDHeLoFAQv_sjOSpQvykQ1IpWzx9GA9diDOtN9KyN8Mx32TjQkZlm631sUqaFetW_8owTvi8I1rQcvvKwc9s3G8bDN25CZDhXPMPiyBBhLWXPlElyEBeSTTUZBY1Urx6oxcoRqayMJhjKAXHqSpox-ecQ5YbMQRmeQDUpVLhEqiQh4zI5iukYKvUXK1QqbsWvKhHglY0wSPAg2p1JUAAOO6IkhLltRfJVzvlsLEMp15f_m40]--></g></svg>