<svg xmlns="http://www.w3.org/2000/svg" xmlns:xlink="http://www.w3.org/1999/xlink" contentStyleType="text/css" data-diagram-type="CLASS" height="185px" preserveAspectRatio="none" style="width:179px;height:185px;background:#FFFFFF;" version="1.1" viewBox="0 0 179 185" width="179px" zoomAndPan="magnify"><defs/><g><!--cluster PlayerAggregate--><g class="cluster" data-entity="PlayerAggregate" data-source-line="1" data-uid="ent0002" id="cluster_PlayerAggregate"><rect fill="none" height="172.45" rx="2.5" ry="2.5" style="stroke:#181818;stroke-width:1;" width="166" x="7" y="7"/><text fill="#000000" font-family="sans-serif" font-size="14" font-weight="bold" lengthAdjust="spacing" textLength="132.9658" x="23.5171" y="21.9951">PlayerAggregate</text></g><!--class Player--><g class="entity" data-entity="Player" data-source-line="2" data-uid="ent0003" id="entity_Player"><rect fill="#F1F1F1" height="121.4531" rx="2.5" ry="2.5" style="stroke:#181818;stroke-width:0.5;" width="133.2285" x="23.39" y="42"/><ellipse cx="38.39" cy="62.1328" fill="#ADD1B2" rx="11" ry="11" style="stroke:#181818;stroke-width:1;"/><path d="M41.3588,67.7734 Q40.7806,68.0703 40.14,68.2109 Q39.4994,68.3672 38.7963,68.3672 Q36.2963,68.3672 34.9681,66.7266 Q33.6556,65.0703 33.6556,61.9453 Q33.6556,58.8203 34.9681,57.1641 Q36.2963,55.5078 38.7963,55.5078 Q39.4994,55.5078 40.14,55.6641 Q40.7963,55.8203 41.3588,56.1172 L41.3588,58.8359 Q40.7338,58.2578 40.14,57.9922 Q39.5463,57.7109 38.9213,57.7109 Q37.5775,57.7109 36.89,58.7891 Q36.2025,59.8516 36.2025,61.9453 Q36.2025,64.0391 36.89,65.1172 Q37.5775,66.1797 38.9213,66.1797 Q39.5463,66.1797 40.14,65.9141 Q40.7338,65.6328 41.3588,65.0547 L41.3588,67.7734 Z " fill="#000000"/><text fill="#000000" font-family="sans-serif" font-size="12" font-style="italic" lengthAdjust="spacing" textLength="105.2285" x="50.39" y="58.1387">&#171;AggregateRoot&#187;</text><text fill="#000000" font-family="sans-serif" font-size="14" lengthAdjust="spacing" textLength="43.5654" x="81.2215" y="73.9639">Player</text><line style="stroke:#181818;stroke-width:0.5;" x1="24.39" x2="155.6185" y1="82.2656" y2="82.2656"/><ellipse cx="34.39" cy="95.9141" fill="none" rx="3" ry="3" style="stroke:#038048;stroke-width:1;"/><text fill="#000000" font-family="sans-serif" font-size="14" lengthAdjust="spacing" textLength="35.7178" x="43.39" y="99.2607">int Id</text><ellipse cx="34.39" cy="112.2109" fill="none" rx="3" ry="3" style="stroke:#038048;stroke-width:1;"/><text fill="#000000" font-family="sans-serif" font-size="14" lengthAdjust="spacing" textLength="85.9414" x="43.39" y="115.5576">string Name</text><ellipse cx="34.39" cy="128.5078" fill="none" rx="3" ry="3" style="stroke:#038048;stroke-width:1;"/><text fill="#000000" font-family="sans-serif" font-size="14" lengthAdjust="spacing" textLength="67.1426" x="43.39" y="131.8545">int ClubId</text><ellipse cx="34.39" cy="144.8047" fill="none" rx="3" ry="3" style="stroke:#038048;stroke-width:1;"/><text fill="#000000" font-family="sans-serif" font-size="14" lengthAdjust="spacing" textLength="90.7266" x="43.39" y="148.1514">int PositionId</text><line style="stroke:#181818;stroke-width:0.5;" x1="24.39" x2="155.6185" y1="155.4531" y2="155.4531"/></g><!--SRC=[LSex2e0m44NHtbLCxnOa85Os4jp168SX61D9naB4lHj1_DpkFSw2Pa8cq0utYZLp94OXgAgUZA1dHqh1Na3EE4pfbXayk0z17dHLMY_GZkzE4grdw72cFshSEdpXzUcGhDZWx_yeZXC0]--></g></svg>