<svg xmlns="http://www.w3.org/2000/svg" xmlns:xlink="http://www.w3.org/1999/xlink" contentStyleType="text/css" data-diagram-type="CLASS" height="452px" preserveAspectRatio="none" style="width:2685px;height:452px;background:#FFFFFF;" version="1.1" viewBox="0 0 2685 452" width="2685px" zoomAndPan="magnify"><defs/><g><!--class IRepository--><g class="entity" data-entity="IRepository" data-source-line="3" data-uid="ent0002" id="entity_IRepository"><rect fill="#F1F1F1" height="80.5938" rx="2.5" ry="2.5" style="stroke:#181818;stroke-width:0.5;" width="288.1104" x="1257.04" y="10"/><ellipse cx="1338.5219" cy="26" fill="#B4A7E5" rx="11" ry="11" style="stroke:#181818;stroke-width:1;"/><path d="M1334.4438,21.7656 L1334.4438,19.6094 L1341.8344,19.6094 L1341.8344,21.7656 L1339.3657,21.7656 L1339.3657,29.8438 L1341.8344,29.8438 L1341.8344,32 L1334.4438,32 L1334.4438,29.8438 L1336.9126,29.8438 L1336.9126,21.7656 L1334.4438,21.7656 Z " fill="#000000"/><text fill="#000000" font-family="sans-serif" font-size="14" font-style="italic" lengthAdjust="spacing" textLength="79.2012" x="1359.0219" y="30.8467">IRepository</text><rect fill="#FFFFFF" height="15.9688" style="stroke:#181818;stroke-width:1;stroke-dasharray:2.0,2.0;" width="35.4453" x="1512.705" y="7"/><text fill="#000000" font-family="sans-serif" font-size="12" font-style="italic" lengthAdjust="spacing" textLength="33.4453" x="1513.705" y="19.1387">T, TId</text><line style="stroke:#181818;stroke-width:0.5;" x1="1258.04" x2="1544.1504" y1="42" y2="42"/><line style="stroke:#181818;stroke-width:0.5;" x1="1258.04" x2="1544.1504" y1="50" y2="50"/><text fill="#000000" font-family="sans-serif" font-size="14" lengthAdjust="spacing" textLength="276.1104" x="1263.04" y="66.9951">Task&lt;IEnumerable&lt;T&gt;&gt; GetAllAsync()</text><text fill="#000000" font-family="sans-serif" font-size="14" lengthAdjust="spacing" textLength="223.7266" x="1263.04" y="83.292">Task&lt;T?&gt; GetByIdAsync(TId id)</text></g><!--class ICRUDRepository--><g class="entity" data-entity="ICRUDRepository" data-source-line="8" data-uid="ent0003" id="entity_ICRUDRepository"><rect fill="#F1F1F1" height="96.8906" rx="2.5" ry="2.5" style="stroke:#181818;stroke-width:0.5;" width="250.082" x="1276.05" y="187.59"/><ellipse cx="1318.4574" cy="203.59" fill="#B4A7E5" rx="11" ry="11" style="stroke:#181818;stroke-width:1;"/><path d="M1314.3792,199.3556 L1314.3792,197.1994 L1321.7699,197.1994 L1321.7699,199.3556 L1319.3011,199.3556 L1319.3011,207.4337 L1321.7699,207.4337 L1321.7699,209.59 L1314.3792,209.59 L1314.3792,207.4337 L1316.848,207.4337 L1316.848,199.3556 L1314.3792,199.3556 Z " fill="#000000"/><text fill="#000000" font-family="sans-serif" font-size="14" font-style="italic" lengthAdjust="spacing" textLength="119.7314" x="1338.5479" y="208.4367">ICRUDRepository</text><rect fill="#FFFFFF" height="15.9688" style="stroke:#181818;stroke-width:1;stroke-dasharray:2.0,2.0;" width="35.4453" x="1493.6867" y="184.59"/><text fill="#000000" font-family="sans-serif" font-size="12" font-style="italic" lengthAdjust="spacing" textLength="33.4453" x="1494.6867" y="196.7287">T, TId</text><line style="stroke:#181818;stroke-width:0.5;" x1="1277.05" x2="1525.132" y1="219.59" y2="219.59"/><line style="stroke:#181818;stroke-width:0.5;" x1="1277.05" x2="1525.132" y1="227.59" y2="227.59"/><text fill="#000000" font-family="sans-serif" font-size="14" lengthAdjust="spacing" textLength="238.082" x="1282.05" y="244.5851">Task&lt;TId&gt; CreateAsync(T model)</text><text fill="#000000" font-family="sans-serif" font-size="14" lengthAdjust="spacing" textLength="196.9297" x="1282.05" y="260.882">Task UpdateAsync(T model)</text><text fill="#000000" font-family="sans-serif" font-size="14" lengthAdjust="spacing" textLength="185.8691" x="1282.05" y="277.1789">Task RemoveAsync(TId id)</text></g><polygon fill="none" points="1401.0903,284.4806,1408.09,304.4807,1394.09,304.4805" style="stroke:#181818;stroke-width:1;"/><line style="stroke:#181818;stroke-width:1;" x1="1401.09" x2="1401.09" y1="304.4806" y2="306.04"/><line style="stroke:#181818;stroke-width:1;" x1="1401.0903" x2="1401.09" y1="187.59" y2="167.11"/><!--class IUserRepository--><g class="entity" data-entity="IUserRepository" data-source-line="15" data-uid="ent0005" id="entity_IUserRepository"><rect fill="#F1F1F1" height="64.2969" rx="2.5" ry="2.5" style="stroke:#181818;stroke-width:0.5;" width="424.1865" x="7" y="381.48"/><ellipse cx="159.2876" cy="397.48" fill="#B4A7E5" rx="11" ry="11" style="stroke:#181818;stroke-width:1;"/><path d="M155.2095,393.2456 L155.2095,391.0894 L162.6001,391.0894 L162.6001,393.2456 L160.1313,393.2456 L160.1313,401.3237 L162.6001,401.3237 L162.6001,403.48 L155.2095,403.48 L155.2095,401.3237 L157.6782,401.3237 L157.6782,393.2456 L155.2095,393.2456 Z " fill="#000000"/><text fill="#000000" font-family="sans-serif" font-size="14" font-style="italic" lengthAdjust="spacing" textLength="111.1113" x="179.7876" y="402.3267">IUserRepository</text><line style="stroke:#181818;stroke-width:0.5;" x1="8" x2="430.1865" y1="413.48" y2="413.48"/><line style="stroke:#181818;stroke-width:0.5;" x1="8" x2="430.1865" y1="421.48" y2="421.48"/><text fill="#000000" font-family="sans-serif" font-size="14" lengthAdjust="spacing" textLength="412.1865" x="13" y="438.4751">Task&lt;IEnumerable&lt;User&gt;&gt; GetUserUserAsync(int userId)</text></g><!--class ITeamRepository--><g class="entity" data-entity="ITeamRepository" data-source-line="20" data-uid="ent0007" id="entity_ITeamRepository"><rect fill="#F1F1F1" height="64.2969" rx="2.5" ry="2.5" style="stroke:#181818;stroke-width:0.5;" width="439.1299" x="466.53" y="381.48"/><ellipse cx="622.5534" cy="397.48" fill="#B4A7E5" rx="11" ry="11" style="stroke:#181818;stroke-width:1;"/><path d="M618.4753,393.2456 L618.4753,391.0894 L625.8659,391.0894 L625.8659,393.2456 L623.3972,393.2456 L623.3972,401.3237 L625.8659,401.3237 L625.8659,403.48 L618.4753,403.48 L618.4753,401.3237 L620.9441,401.3237 L620.9441,393.2456 L618.4753,393.2456 Z " fill="#000000"/><text fill="#000000" font-family="sans-serif" font-size="14" font-style="italic" lengthAdjust="spacing" textLength="118.583" x="643.0534" y="402.3267">ITeamRepository</text><line style="stroke:#181818;stroke-width:0.5;" x1="467.53" x2="904.6599" y1="413.48" y2="413.48"/><line style="stroke:#181818;stroke-width:0.5;" x1="467.53" x2="904.6599" y1="421.48" y2="421.48"/><text fill="#000000" font-family="sans-serif" font-size="14" lengthAdjust="spacing" textLength="427.1299" x="472.53" y="438.4751">Task&lt;IEnumerable&lt;Team&gt;&gt; GetUserTeamAsync(int userId)</text></g><!--class IPlayerRepository--><g class="entity" data-entity="IPlayerRepository" data-source-line="25" data-uid="ent0009" id="entity_IPlayerRepository"><rect fill="#F1F1F1" height="64.2969" rx="2.5" ry="2.5" style="stroke:#181818;stroke-width:0.5;" width="920.6328" x="940.78" y="381.48"/><ellipse cx="1335.4631" cy="397.48" fill="#B4A7E5" rx="11" ry="11" style="stroke:#181818;stroke-width:1;"/><path d="M1331.385,393.2456 L1331.385,391.0894 L1338.7756,391.0894 L1338.7756,393.2456 L1336.3069,393.2456 L1336.3069,401.3237 L1338.7756,401.3237 L1338.7756,403.48 L1331.385,403.48 L1331.385,401.3237 L1333.8537,401.3237 L1333.8537,393.2456 L1331.385,393.2456 Z " fill="#000000"/><text fill="#000000" font-family="sans-serif" font-size="14" font-style="italic" lengthAdjust="spacing" textLength="122.7666" x="1355.9631" y="402.3267">IPlayerRepository</text><line style="stroke:#181818;stroke-width:0.5;" x1="941.78" x2="1860.4128" y1="413.48" y2="413.48"/><line style="stroke:#181818;stroke-width:0.5;" x1="941.78" x2="1860.4128" y1="421.48" y2="421.48"/><text fill="#000000" font-family="sans-serif" font-size="14" lengthAdjust="spacing" textLength="908.6328" x="946.78" y="438.4751">Task&lt;IEnumerable&lt;Player&gt;&gt; GetPlayersNotInTeamAsync(int teamId, string nameQuery = null, int positionId = 0, int clubId = 0)</text></g><!--class IClubRepository--><g class="entity" data-entity="IClubRepository" data-source-line="30" data-uid="ent0011" id="entity_IClubRepository"><rect fill="#F1F1F1" height="64.2969" rx="2.5" ry="2.5" style="stroke:#181818;stroke-width:0.5;" width="550.3369" x="1895.92" y="381.48"/><ellipse cx="2111.5255" cy="397.48" fill="#B4A7E5" rx="11" ry="11" style="stroke:#181818;stroke-width:1;"/><path d="M2107.4473,393.2456 L2107.4473,391.0894 L2114.838,391.0894 L2114.838,393.2456 L2112.3692,393.2456 L2112.3692,401.3237 L2114.838,401.3237 L2114.838,403.48 L2107.4473,403.48 L2107.4473,401.3237 L2109.9161,401.3237 L2109.9161,393.2456 L2107.4473,393.2456 Z " fill="#000000"/><text fill="#000000" font-family="sans-serif" font-size="14" font-style="italic" lengthAdjust="spacing" textLength="110.626" x="2132.0255" y="402.3267">IClubRepository</text><line style="stroke:#181818;stroke-width:0.5;" x1="1896.92" x2="2445.2569" y1="413.48" y2="413.48"/><line style="stroke:#181818;stroke-width:0.5;" x1="1896.92" x2="2445.2569" y1="421.48" y2="421.48"/><text fill="#000000" font-family="sans-serif" font-size="14" lengthAdjust="spacing" textLength="538.3369" x="1901.92" y="438.4751">Task&lt;IEnumerable&lt;Club&gt;&gt; GetClubsInCompetitionAsync(int competitionId)</text></g><!--class ICompetitionRepository--><g class="entity" data-entity="ICompetitionRepository" data-source-line="35" data-uid="ent0013" id="entity_ICompetitionRepository"><rect fill="#F1F1F1" height="48" rx="2.5" ry="2.5" style="stroke:#181818;stroke-width:0.5;" width="196.876" x="2481.66" y="389.63"/><ellipse cx="2496.66" cy="405.63" fill="#B4A7E5" rx="11" ry="11" style="stroke:#181818;stroke-width:1;"/><path d="M2492.5819,401.3956 L2492.5819,399.2394 L2499.9725,399.2394 L2499.9725,401.3956 L2497.5038,401.3956 L2497.5038,409.4738 L2499.9725,409.4738 L2499.9725,411.63 L2492.5819,411.63 L2492.5819,409.4738 L2495.0506,409.4738 L2495.0506,401.3956 L2492.5819,401.3956 Z " fill="#000000"/><text fill="#000000" font-family="sans-serif" font-size="14" font-style="italic" lengthAdjust="spacing" textLength="164.876" x="2510.66" y="410.4767">ICompetitionRepository</text><line style="stroke:#181818;stroke-width:0.5;" x1="2482.66" x2="2677.536" y1="421.63" y2="421.63"/><line style="stroke:#181818;stroke-width:0.5;" x1="2482.66" x2="2677.536" y1="429.63" y2="429.63"/></g><!--reverse link IRepository to ICRUDRepository--><g class="link" data-entity-1="IRepository" data-entity-2="ICRUDRepository" data-source-line="13" data-uid="lnk4" id="link_IRepository_ICRUDRepository"><path codeLine="13" d="M1401.09,108.71 C1401.09,130.96 1401.09,141.38 1401.09,167.11 " fill="none" id="IRepository-backto-ICRUDRepository" style="stroke:#181818;stroke-width:1;"/><polygon fill="none" points="1401.09,90.71,1395.09,108.71,1407.09,108.71,1401.09,90.71" style="stroke:#181818;stroke-width:1;"/><text fill="#000000" font-family="sans-serif" font-size="13" lengthAdjust="spacing" textLength="52.0508" x="1402.09" y="133.6569">extends</text></g><!--reverse link ICRUDRepository to IUserRepository--><g class="link" data-entity-1="ICRUDRepository" data-entity-2="IUserRepository" data-source-line="18" data-uid="lnk6" id="link_ICRUDRepository_IUserRepository"><path codeLine="18" d="M1401.09,306.04 C1401.09,306.04 1135.25,317.66 923.09,334.48 C712.06,351.22 659.35,356.83 449.09,381.48 C443.29,382.16 437.41,382.87 431.47,383.59 " fill="none" id="ICRUDRepository-backto-IUserRepository" style="stroke:#181818;stroke-width:1;"/><text fill="#000000" font-family="sans-serif" font-size="13" lengthAdjust="spacing" textLength="164.9121" x="924.09" y="347.5469">extends, T=User, TId=int</text></g><!--reverse link ICRUDRepository to ITeamRepository--><g class="link" data-entity-1="ICRUDRepository" data-entity-2="ITeamRepository" data-source-line="23" data-uid="lnk8" id="link_ICRUDRepository_ITeamRepository"><path codeLine="23" d="M1401.09,306.04 C1401.09,306.04 1109,349.58 898.2,381.01 " fill="none" id="ICRUDRepository-backto-ITeamRepository" style="stroke:#181818;stroke-width:1;"/><text fill="#000000" font-family="sans-serif" font-size="13" lengthAdjust="spacing" textLength="171.8501" x="1201.09" y="347.5469">extends, T=Team, TId=int</text></g><!--reverse link ICRUDRepository to IPlayerRepository--><g class="link" data-entity-1="ICRUDRepository" data-entity-2="IPlayerRepository" data-source-line="28" data-uid="lnk10" id="link_ICRUDRepository_IPlayerRepository"><path codeLine="28" d="M1401.09,306.04 C1401.09,306.04 1401.09,349.78 1401.09,381.23 " fill="none" id="ICRUDRepository-backto-IPlayerRepository" style="stroke:#181818;stroke-width:1;"/><text fill="#000000" font-family="sans-serif" font-size="13" lengthAdjust="spacing" textLength="175.7349" x="1402.09" y="347.5469">extends, T=Player, TId=int</text></g><!--reverse link ICRUDRepository to IClubRepository--><g class="link" data-entity-1="ICRUDRepository" data-entity-2="IClubRepository" data-source-line="33" data-uid="lnk12" id="link_ICRUDRepository_IClubRepository"><path codeLine="33" d="M1401.09,306.04 C1401.09,306.04 1715.66,349.58 1942.67,381.01 " fill="none" id="ICRUDRepository-backto-IClubRepository" style="stroke:#181818;stroke-width:1;"/><text fill="#000000" font-family="sans-serif" font-size="13" lengthAdjust="spacing" textLength="164.4614" x="1730.09" y="347.5469">extends, T=Club, TId=int</text></g><!--reverse link ICRUDRepository to ICompetitionRepository--><g class="link" data-entity-1="ICRUDRepository" data-entity-2="ICompetitionRepository" data-source-line="37" data-uid="lnk14" id="link_ICRUDRepository_ICompetitionRepository"><path codeLine="37" d="M1401.09,306.04 C1401.09,306.04 1997.53,299.97 2464.09,381.48 C2475.8,383.53 2488.05,386.21 2500.01,389.14 " fill="none" id="ICRUDRepository-backto-ICompetitionRepository" style="stroke:#181818;stroke-width:1;"/><text fill="#000000" font-family="sans-serif" font-size="13" lengthAdjust="spacing" textLength="214.8364" x="2249.09" y="347.5469">extends, T=Competition, TId=int</text></g><!--SRC=[ZP7VIiCm5CRl-nJdqi46ugMqarb5SYCwkWV8skCCov-If69HtzsaaNMfxRP28IVdu_j-vyJicQoffW9sMZKraU-ecQMoHBX94YOjwZVg2hB6MXbcbMxJOWu5gPRmbO3x2chsANcKZK1DjnpJOhc49xGhpbUcbUNLh9SLTrthlYLLw3aVODKi-OcoylNcuNHUL-SQgSK_8n2gGjvdmQQkJdJNADG73Y6EfeJqUx4Oei0juAT5MPc8TsDG7uaczk9LOJN-vFyGxuoWSHK928F4W358E62upMI-rsqeSquHLu5KdEVogfxBLvTp3H8YBjyRvthXjBraOq4NsCBPF2jBPCneNKMgEHYhcTo1f09V6tIk6SY6ypbuKHV5b7HFdS5rk2jvimtrz83_KACHGtTyoDovdn_HgyA0_cI8p9MeqNQi_OXbVtdgDGQH4QhlJO3svX7lPCgeFWxh9OVCNm00]--></g></svg>