<svg xmlns="http://www.w3.org/2000/svg" xmlns:xlink="http://www.w3.org/1999/xlink" contentStyleType="text/css" data-diagram-type="CLASS" height="453px" preserveAspectRatio="none" style="width:2686px;height:453px;background:#FFFFFF;" version="1.1" viewBox="0 0 2686 453" width="2686px" zoomAndPan="magnify"><defs/><g><!--class IRepository--><g id="elem_IRepository"><rect codeLine="3" fill="#F1F1F1" height="80.5938" id="IRepository" rx="2.5" ry="2.5" style="stroke:#181818;stroke-width:0.5;" width="288.1104" x="1257" y="10"/><ellipse cx="1338.4819" cy="26" fill="#B4A7E5" rx="11" ry="11" style="stroke:#181818;stroke-width:1;"/><path d="M1334.4038,21.7656 L1334.4038,19.6094 L1341.7944,19.6094 L1341.7944,21.7656 L1339.3257,21.7656 L1339.3257,29.8438 L1341.7944,29.8438 L1341.7944,32 L1334.4038,32 L1334.4038,29.8438 L1336.8726,29.8438 L1336.8726,21.7656 L1334.4038,21.7656 Z " fill="#000000"/><text fill="#000000" font-family="sans-serif" font-size="14" font-style="italic" lengthAdjust="spacing" textLength="79.2012" x="1358.9819" y="30.8467">IRepository</text><rect fill="#FFFFFF" height="15.9688" style="stroke:#181818;stroke-width:1;stroke-dasharray:2.0,2.0;" width="35.4453" x="1512.665" y="7"/><text fill="#000000" font-family="sans-serif" font-size="12" font-style="italic" lengthAdjust="spacing" textLength="33.4453" x="1513.665" y="19.1387">T, TId</text><line style="stroke:#181818;stroke-width:0.5;" x1="1258" x2="1544.1104" y1="42" y2="42"/><line style="stroke:#181818;stroke-width:0.5;" x1="1258" x2="1544.1104" y1="50" y2="50"/><text fill="#000000" font-family="sans-serif" font-size="14" lengthAdjust="spacing" textLength="276.1104" x="1263" y="66.9951">Task&lt;IEnumerable&lt;T&gt;&gt; GetAllAsync()</text><text fill="#000000" font-family="sans-serif" font-size="14" lengthAdjust="spacing" textLength="223.7266" x="1263" y="83.292">Task&lt;T?&gt; GetByIdAsync(TId id)</text></g><!--class ICRUDRepository--><g id="elem_ICRUDRepository"><rect codeLine="8" fill="#F1F1F1" height="96.8906" id="ICRUDRepository" rx="2.5" ry="2.5" style="stroke:#181818;stroke-width:0.5;" width="250.082" x="1276" y="188"/><ellipse cx="1318.4074" cy="204" fill="#B4A7E5" rx="11" ry="11" style="stroke:#181818;stroke-width:1;"/><path d="M1314.3292,199.7656 L1314.3292,197.6094 L1321.7199,197.6094 L1321.7199,199.7656 L1319.2511,199.7656 L1319.2511,207.8438 L1321.7199,207.8438 L1321.7199,210 L1314.3292,210 L1314.3292,207.8438 L1316.798,207.8438 L1316.798,199.7656 L1314.3292,199.7656 Z " fill="#000000"/><text fill="#000000" font-family="sans-serif" font-size="14" font-style="italic" lengthAdjust="spacing" textLength="119.7314" x="1338.4979" y="208.8467">ICRUDRepository</text><rect fill="#FFFFFF" height="15.9688" style="stroke:#181818;stroke-width:1;stroke-dasharray:2.0,2.0;" width="35.4453" x="1493.6367" y="185"/><text fill="#000000" font-family="sans-serif" font-size="12" font-style="italic" lengthAdjust="spacing" textLength="33.4453" x="1494.6367" y="197.1387">T, TId</text><line style="stroke:#181818;stroke-width:0.5;" x1="1277" x2="1525.082" y1="220" y2="220"/><line style="stroke:#181818;stroke-width:0.5;" x1="1277" x2="1525.082" y1="228" y2="228"/><text fill="#000000" font-family="sans-serif" font-size="14" lengthAdjust="spacing" textLength="238.082" x="1282" y="244.9951">Task&lt;TId&gt; CreateAsync(T model)</text><text fill="#000000" font-family="sans-serif" font-size="14" lengthAdjust="spacing" textLength="196.9297" x="1282" y="261.292">Task UpdateAsync(T model)</text><text fill="#000000" font-family="sans-serif" font-size="14" lengthAdjust="spacing" textLength="185.8691" x="1282" y="277.5889">Task RemoveAsync(TId id)</text></g><polygon fill="#FFFFFF" fill-opacity="0.00000" points="1401.0127,284.8906,1408.0009,304.8947,1394.0009,304.8865" style="stroke:#181818;stroke-width:1;"/><line style="stroke:#181818;stroke-width:1;" x1="1401.0009" x2="1401" y1="304.8906" y2="306.5"/><line style="stroke:#181818;stroke-width:1;" x1="1401.0121" x2="1401" y1="188" y2="167.79"/><!--class IUserRepository--><g id="elem_IUserRepository"><rect codeLine="15" fill="#F1F1F1" height="64.2969" id="IUserRepository" rx="2.5" ry="2.5" style="stroke:#181818;stroke-width:0.5;" width="424.1865" x="7" y="382"/><ellipse cx="159.2876" cy="398" fill="#B4A7E5" rx="11" ry="11" style="stroke:#181818;stroke-width:1;"/><path d="M155.2095,393.7656 L155.2095,391.6094 L162.6001,391.6094 L162.6001,393.7656 L160.1313,393.7656 L160.1313,401.8438 L162.6001,401.8438 L162.6001,404 L155.2095,404 L155.2095,401.8438 L157.6782,401.8438 L157.6782,393.7656 L155.2095,393.7656 Z " fill="#000000"/><text fill="#000000" font-family="sans-serif" font-size="14" font-style="italic" lengthAdjust="spacing" textLength="111.1113" x="179.7876" y="402.8467">IUserRepository</text><line style="stroke:#181818;stroke-width:0.5;" x1="8" x2="430.1865" y1="414" y2="414"/><line style="stroke:#181818;stroke-width:0.5;" x1="8" x2="430.1865" y1="422" y2="422"/><text fill="#000000" font-family="sans-serif" font-size="14" lengthAdjust="spacing" textLength="412.1865" x="13" y="438.9951">Task&lt;IEnumerable&lt;User&gt;&gt; GetUserUserAsync(int userId)</text></g><!--class ITeamRepository--><g id="elem_ITeamRepository"><rect codeLine="20" fill="#F1F1F1" height="64.2969" id="ITeamRepository" rx="2.5" ry="2.5" style="stroke:#181818;stroke-width:0.5;" width="439.1299" x="466.5" y="382"/><ellipse cx="622.5234" cy="398" fill="#B4A7E5" rx="11" ry="11" style="stroke:#181818;stroke-width:1;"/><path d="M618.4453,393.7656 L618.4453,391.6094 L625.8359,391.6094 L625.8359,393.7656 L623.3672,393.7656 L623.3672,401.8438 L625.8359,401.8438 L625.8359,404 L618.4453,404 L618.4453,401.8438 L620.9141,401.8438 L620.9141,393.7656 L618.4453,393.7656 Z " fill="#000000"/><text fill="#000000" font-family="sans-serif" font-size="14" font-style="italic" lengthAdjust="spacing" textLength="118.583" x="643.0234" y="402.8467">ITeamRepository</text><line style="stroke:#181818;stroke-width:0.5;" x1="467.5" x2="904.6299" y1="414" y2="414"/><line style="stroke:#181818;stroke-width:0.5;" x1="467.5" x2="904.6299" y1="422" y2="422"/><text fill="#000000" font-family="sans-serif" font-size="14" lengthAdjust="spacing" textLength="427.1299" x="472.5" y="438.9951">Task&lt;IEnumerable&lt;Team&gt;&gt; GetUserTeamAsync(int userId)</text></g><!--class IPlayerRepository--><g id="elem_IPlayerRepository"><rect codeLine="25" fill="#F1F1F1" height="64.2969" id="IPlayerRepository" rx="2.5" ry="2.5" style="stroke:#181818;stroke-width:0.5;" width="920.6328" x="940.5" y="382"/><ellipse cx="1335.1831" cy="398" fill="#B4A7E5" rx="11" ry="11" style="stroke:#181818;stroke-width:1;"/><path d="M1331.105,393.7656 L1331.105,391.6094 L1338.4956,391.6094 L1338.4956,393.7656 L1336.0269,393.7656 L1336.0269,401.8438 L1338.4956,401.8438 L1338.4956,404 L1331.105,404 L1331.105,401.8438 L1333.5737,401.8438 L1333.5737,393.7656 L1331.105,393.7656 Z " fill="#000000"/><text fill="#000000" font-family="sans-serif" font-size="14" font-style="italic" lengthAdjust="spacing" textLength="122.7666" x="1355.6831" y="402.8467">IPlayerRepository</text><line style="stroke:#181818;stroke-width:0.5;" x1="941.5" x2="1860.1328" y1="414" y2="414"/><line style="stroke:#181818;stroke-width:0.5;" x1="941.5" x2="1860.1328" y1="422" y2="422"/><text fill="#000000" font-family="sans-serif" font-size="14" lengthAdjust="spacing" textLength="908.6328" x="946.5" y="438.9951">Task&lt;IEnumerable&lt;Player&gt;&gt; GetPlayersNotInTeamAsync(int teamId, string nameQuery = null, int positionId = 0, int clubId = 0)</text></g><!--class IClubRepository--><g id="elem_IClubRepository"><rect codeLine="30" fill="#F1F1F1" height="64.2969" id="IClubRepository" rx="2.5" ry="2.5" style="stroke:#181818;stroke-width:0.5;" width="550.3369" x="1897" y="382"/><ellipse cx="2112.6055" cy="398" fill="#B4A7E5" rx="11" ry="11" style="stroke:#181818;stroke-width:1;"/><path d="M2108.5273,393.7656 L2108.5273,391.6094 L2115.918,391.6094 L2115.918,393.7656 L2113.4492,393.7656 L2113.4492,401.8438 L2115.918,401.8438 L2115.918,404 L2108.5273,404 L2108.5273,401.8438 L2110.9961,401.8438 L2110.9961,393.7656 L2108.5273,393.7656 Z " fill="#000000"/><text fill="#000000" font-family="sans-serif" font-size="14" font-style="italic" lengthAdjust="spacing" textLength="110.626" x="2133.1055" y="402.8467">IClubRepository</text><line style="stroke:#181818;stroke-width:0.5;" x1="1898" x2="2446.3369" y1="414" y2="414"/><line style="stroke:#181818;stroke-width:0.5;" x1="1898" x2="2446.3369" y1="422" y2="422"/><text fill="#000000" font-family="sans-serif" font-size="14" lengthAdjust="spacing" textLength="538.3369" x="1903" y="438.9951">Task&lt;IEnumerable&lt;Club&gt;&gt; GetClubsInCompetitionAsync(int competitionId)</text></g><!--class ICompetitionRepository--><g id="elem_ICompetitionRepository"><rect codeLine="35" fill="#F1F1F1" height="48" id="ICompetitionRepository" rx="2.5" ry="2.5" style="stroke:#181818;stroke-width:0.5;" width="196.876" x="2482.5" y="390"/><ellipse cx="2497.5" cy="406" fill="#B4A7E5" rx="11" ry="11" style="stroke:#181818;stroke-width:1;"/><path d="M2493.4219,401.7656 L2493.4219,399.6094 L2500.8125,399.6094 L2500.8125,401.7656 L2498.3438,401.7656 L2498.3438,409.8438 L2500.8125,409.8438 L2500.8125,412 L2493.4219,412 L2493.4219,409.8438 L2495.8906,409.8438 L2495.8906,401.7656 L2493.4219,401.7656 Z " fill="#000000"/><text fill="#000000" font-family="sans-serif" font-size="14" font-style="italic" lengthAdjust="spacing" textLength="164.876" x="2511.5" y="410.8467">ICompetitionRepository</text><line style="stroke:#181818;stroke-width:0.5;" x1="2483.5" x2="2678.376" y1="422" y2="422"/><line style="stroke:#181818;stroke-width:0.5;" x1="2483.5" x2="2678.376" y1="430" y2="430"/></g><!--reverse link IRepository to ICRUDRepository--><g id="link_IRepository_ICRUDRepository"><path codeLine="13" d="M1401,109.43 C1401,131.73 1401,142.12 1401,167.79 " fill="#FFFFFF" fill-opacity="0.00000" id="IRepository-backto-ICRUDRepository" style="stroke:#181818;stroke-width:1;"/><polygon fill="#FFFFFF" fill-opacity="0.00000" points="1401,91.43,1395,109.43,1407,109.43,1401,91.43" style="stroke:#181818;stroke-width:1;"/><text fill="#000000" font-family="sans-serif" font-size="13" lengthAdjust="spacing" textLength="52.0508" x="1402" y="134.0669">extends</text></g><!--reverse link ICRUDRepository to IUserRepository--><g id="link_ICRUDRepository_IUserRepository"><path codeLine="18" d="M1401,306.5 C1401,306.5 1135.15,318.16 923,335 C711.96,351.75 659.27,357.41 449,382 C443.1,382.69 437.11,383.4 431.07,384.14 " fill="#FFFFFF" fill-opacity="0.00000" id="ICRUDRepository-backto-IUserRepository" style="stroke:#181818;stroke-width:1;"/><text fill="#000000" font-family="sans-serif" font-size="13" lengthAdjust="spacing" textLength="164.9121" x="924" y="348.0669">extends, T=User, TId=int</text></g><!--reverse link ICRUDRepository to ITeamRepository--><g id="link_ICRUDRepository_ITeamRepository"><path codeLine="23" d="M1401,306.5 C1401,306.5 1105.32,350.54 894.25,381.98 " fill="#FFFFFF" fill-opacity="0.00000" id="ICRUDRepository-backto-ITeamRepository" style="stroke:#181818;stroke-width:1;"/><text fill="#000000" font-family="sans-serif" font-size="13" lengthAdjust="spacing" textLength="171.8501" x="1201" y="348.0669">extends, T=Team, TId=int</text></g><!--reverse link ICRUDRepository to IPlayerRepository--><g id="link_ICRUDRepository_IPlayerRepository"><path codeLine="28" d="M1401,306.5 C1401,306.5 1401,350.47 1401,381.91 " fill="#FFFFFF" fill-opacity="0.00000" id="ICRUDRepository-backto-IPlayerRepository" style="stroke:#181818;stroke-width:1;"/><text fill="#000000" font-family="sans-serif" font-size="13" lengthAdjust="spacing" textLength="175.7349" x="1402" y="348.0669">extends, T=Player, TId=int</text></g><!--reverse link ICRUDRepository to IClubRepository--><g id="link_ICRUDRepository_IClubRepository"><path codeLine="33" d="M1401,306.5 C1401,306.5 1719.84,350.54 1947.44,381.98 " fill="#FFFFFF" fill-opacity="0.00000" id="ICRUDRepository-backto-IClubRepository" style="stroke:#181818;stroke-width:1;"/><text fill="#000000" font-family="sans-serif" font-size="13" lengthAdjust="spacing" textLength="164.4614" x="1730" y="348.0669">extends, T=Club, TId=int</text></g><!--reverse link ICRUDRepository to ICompetitionRepository--><g id="link_ICRUDRepository_ICompetitionRepository"><path codeLine="37" d="M1401,306.5 C1401,306.5 1997.94,300.73 2465,382 C2477.12,384.11 2489.81,386.89 2502.17,389.93 " fill="#FFFFFF" fill-opacity="0.00000" id="ICRUDRepository-backto-ICompetitionRepository" style="stroke:#181818;stroke-width:1;"/><text fill="#000000" font-family="sans-serif" font-size="13" lengthAdjust="spacing" textLength="214.8364" x="2250" y="348.0669">extends, T=Competition, TId=int</text></g><!--SRC=[ZP7HIiCm58Rl-nJdqi46ugMqarb5SYCwkWV8ckCCIvEIf69Htzsa4RFKTRDGoCdv-V_ld9WzbotLj86TLbrBv2jgRgci4QwoZ4kB-eMwWgonLOPRfVkycaD5s18-Cd1VHSq-9_UoQr3JhS2yMYxX0UrAY9NfPNqnYxBgPcZTzeI5dlC1pcRPLv9LhZTtf_E6kjH8BVuOGQCOYfW5cvQTwAwnKMyuXZYO4lBFnMAC0jU0xnObCmdlng0-44tinQl2Qlp9_o7U6K7dAX8GHea1OvJmY-4sK_ZUiA72EILS5TBcF9TNHIvV_Pzhb91m-TvnhYT1-_ziBEW2MpYRHsM9J1cjgmYRWx6Qonr8sk1pXywr0Da9CGSl6gAuakwf2xWCTxNejg6U7l0FQZ9Yw1uVidJkvqVqgZ2WFnaYIzMqQ0VME68TBq-znYWoGVMz2T1edl1EfXpLfs5H4ZE_0G00]--></g></svg>