<svg xmlns="http://www.w3.org/2000/svg" xmlns:xlink="http://www.w3.org/1999/xlink" contentStyleType="text/css" data-diagram-type="CLASS" height="440px" preserveAspectRatio="none" style="width:804px;height:440px;background:#FFFFFF;" version="1.1" viewBox="0 0 804 440" width="804px" zoomAndPan="magnify"><defs/><g><!--cluster TeamAggregate--><g class="cluster" data-entity="TeamAggregate" data-source-line="4" data-uid="ent0002" id="cluster_TeamAggregate"><rect fill="none" height="427.12" rx="2.5" ry="2.5" style="stroke:#181818;stroke-width:1;" width="546" x="7" y="7"/><text fill="#000000" font-family="sans-serif" font-size="14" font-weight="bold" lengthAdjust="spacing" textLength="126.0137" x="216.9932" y="21.9951">TeamAggregate</text></g><!--class Team--><g class="entity" data-entity="Team" data-source-line="5" data-uid="ent0003" id="entity_Team"><rect fill="#F1F1F1" height="235.5313" rx="2.5" ry="2.5" style="stroke:#181818;stroke-width:0.5;" width="382.6445" x="151.68" y="42"/><ellipse cx="288.138" cy="62.1328" fill="#ADD1B2" rx="11" ry="11" style="stroke:#181818;stroke-width:1;"/><path d="M291.1068,67.7734 Q290.5286,68.0703 289.888,68.2109 Q289.2474,68.3672 288.5443,68.3672 Q286.0443,68.3672 284.7161,66.7266 Q283.4036,65.0703 283.4036,61.9453 Q283.4036,58.8203 284.7161,57.1641 Q286.0443,55.5078 288.5443,55.5078 Q289.2474,55.5078 289.888,55.6641 Q290.5443,55.8203 291.1068,56.1172 L291.1068,58.8359 Q290.4818,58.2578 289.888,57.9922 Q289.2943,57.7109 288.6693,57.7109 Q287.3255,57.7109 286.638,58.7891 Q285.9505,59.8516 285.9505,61.9453 Q285.9505,64.0391 286.638,65.1172 Q287.3255,66.1797 288.6693,66.1797 Q289.2943,66.1797 289.888,65.9141 Q290.4818,65.6328 291.1068,65.0547 L291.1068,67.7734 Z " fill="#000000"/><text fill="#000000" font-family="sans-serif" font-size="12" font-style="italic" lengthAdjust="spacing" textLength="105.2285" x="306.638" y="58.1387">&#171;AggregateRoot&#187;</text><text fill="#000000" font-family="sans-serif" font-size="14" lengthAdjust="spacing" textLength="39.3818" x="339.5613" y="73.9639">Team</text><line style="stroke:#181818;stroke-width:0.5;" x1="152.68" x2="533.3245" y1="82.2656" y2="82.2656"/><ellipse cx="162.68" cy="95.9141" fill="none" rx="3" ry="3" style="stroke:#038048;stroke-width:1;"/><text fill="#000000" font-family="sans-serif" font-size="14" lengthAdjust="spacing" textLength="35.7178" x="171.68" y="99.2607">int Id</text><ellipse cx="162.68" cy="112.2109" fill="none" rx="3" ry="3" style="stroke:#038048;stroke-width:1;"/><text fill="#000000" font-family="sans-serif" font-size="14" lengthAdjust="spacing" textLength="85.9414" x="171.68" y="115.5576">string Name</text><ellipse cx="162.68" cy="128.5078" fill="none" rx="3" ry="3" style="stroke:#038048;stroke-width:1;"/><text fill="#000000" font-family="sans-serif" font-size="14" lengthAdjust="spacing" textLength="133.0547" x="171.68" y="131.8545">TeamStatus Status</text><ellipse cx="162.68" cy="144.8047" fill="none" rx="3" ry="3" style="stroke:#038048;stroke-width:1;"/><text fill="#000000" font-family="sans-serif" font-size="14" lengthAdjust="spacing" textLength="67.6279" x="171.68" y="148.1514">int UserId</text><rect fill="none" height="6" style="stroke:#C82930;stroke-width:1;" width="6" x="159.68" y="158.1016"/><text fill="#000000" font-family="sans-serif" font-size="14" lengthAdjust="spacing" textLength="193.6348" x="171.68" y="164.4482">List&lt;TeamPlayer&gt; _players</text><ellipse cx="162.68" cy="177.3984" fill="none" rx="3" ry="3" style="stroke:#038048;stroke-width:1;"/><text fill="#000000" font-family="sans-serif" font-size="14" lengthAdjust="spacing" textLength="302.9688" x="171.68" y="180.7451">IReadOnlyCollection&lt;TeamPlayer&gt; Players</text><line style="stroke:#181818;stroke-width:0.5;" x1="152.68" x2="533.3245" y1="188.0469" y2="188.0469"/><ellipse cx="162.68" cy="201.6953" fill="#84BE84" rx="3" ry="3" style="stroke:#038048;stroke-width:1;"/><text fill="#000000" font-family="sans-serif" font-size="14" lengthAdjust="spacing" textLength="207.9424" x="171.68" y="205.042">void AddPlayer(Player player)</text><ellipse cx="162.68" cy="217.9922" fill="#84BE84" rx="3" ry="3" style="stroke:#038048;stroke-width:1;"/><text fill="#000000" font-family="sans-serif" font-size="14" lengthAdjust="spacing" textLength="222.9404" x="171.68" y="221.3389">void RemovePlater(int playerId)</text><ellipse cx="162.68" cy="234.2891" fill="#84BE84" rx="3" ry="3" style="stroke:#038048;stroke-width:1;"/><text fill="#000000" font-family="sans-serif" font-size="14" lengthAdjust="spacing" textLength="122.0625" x="171.68" y="237.6357">void SetCaptain()</text><ellipse cx="162.68" cy="250.5859" fill="#84BE84" rx="3" ry="3" style="stroke:#038048;stroke-width:1;"/><text fill="#000000" font-family="sans-serif" font-size="14" lengthAdjust="spacing" textLength="77.1709" x="171.68" y="253.9326">void Lock()</text><ellipse cx="162.68" cy="266.8828" fill="#84BE84" rx="3" ry="3" style="stroke:#038048;stroke-width:1;"/><text fill="#000000" font-family="sans-serif" font-size="14" lengthAdjust="spacing" textLength="356.6445" x="171.68" y="270.2295">void EnrollInTournament(Tournament tournament)</text></g><!--class TeamStatus--><g class="entity" data-entity="TeamStatus" data-source-line="20" data-uid="ent0004" id="entity_TeamStatus"><rect fill="#F1F1F1" height="72.5938" rx="2.5" ry="2.5" style="stroke:#181818;stroke-width:0.5;" width="115.9932" x="23" y="341.53"/><ellipse cx="38" cy="357.53" fill="#EB937F" rx="11" ry="11" style="stroke:#181818;stroke-width:1;"/><path d="M42.1094,363.53 L34.3906,363.53 L34.3906,351.1394 L42.1094,351.1394 L42.1094,353.2956 L36.8438,353.2956 L36.8438,355.9675 L41.6094,355.9675 L41.6094,358.1238 L36.8438,358.1238 L36.8438,361.3738 L42.1094,361.3738 L42.1094,363.53 Z " fill="#000000"/><text fill="#000000" font-family="sans-serif" font-size="14" lengthAdjust="spacing" textLength="83.9932" x="52" y="362.3767">TeamStatus</text><line style="stroke:#181818;stroke-width:0.5;" x1="24" x2="137.9932" y1="373.53" y2="373.53"/><text fill="#000000" font-family="sans-serif" font-size="14" lengthAdjust="spacing" textLength="35.5332" x="29" y="390.5251">Draft</text><text fill="#000000" font-family="sans-serif" font-size="14" lengthAdjust="spacing" textLength="49.6699" x="29" y="406.822">Locked</text></g><!--class TeamPlayer--><g class="entity" data-entity="TeamPlayer" data-source-line="25" data-uid="ent0005" id="entity_TeamPlayer"><rect fill="#F1F1F1" height="80.5938" rx="2.5" ry="2.5" style="stroke:#181818;stroke-width:0.5;" width="125.8525" x="174.07" y="337.53"/><ellipse cx="193.9774" cy="353.53" fill="#ADD1B2" rx="11" ry="11" style="stroke:#181818;stroke-width:1;"/><path d="M196.9461,359.1706 Q196.368,359.4675 195.7274,359.6081 Q195.0867,359.7644 194.3836,359.7644 Q191.8836,359.7644 190.5555,358.1238 Q189.243,356.4675 189.243,353.3425 Q189.243,350.2175 190.5555,348.5613 Q191.8836,346.905 194.3836,346.905 Q195.0867,346.905 195.7274,347.0613 Q196.3836,347.2175 196.9461,347.5144 L196.9461,350.2331 Q196.3211,349.655 195.7274,349.3894 Q195.1336,349.1081 194.5086,349.1081 Q193.1649,349.1081 192.4774,350.1863 Q191.7899,351.2488 191.7899,353.3425 Q191.7899,355.4363 192.4774,356.5144 Q193.1649,357.5769 194.5086,357.5769 Q195.1336,357.5769 195.7274,357.3113 Q196.3211,357.03 196.9461,356.4519 L196.9461,359.1706 Z " fill="#000000"/><text fill="#000000" font-family="sans-serif" font-size="14" lengthAdjust="spacing" textLength="82.9473" x="209.0679" y="358.3767">TeamPlayer</text><line style="stroke:#181818;stroke-width:0.5;" x1="175.07" x2="298.9225" y1="369.53" y2="369.53"/><ellipse cx="185.07" cy="383.1784" fill="none" rx="3" ry="3" style="stroke:#038048;stroke-width:1;"/><text fill="#000000" font-family="sans-serif" font-size="14" lengthAdjust="spacing" textLength="79.2832" x="194.07" y="386.5251">int PlayerId</text><ellipse cx="185.07" cy="399.4753" fill="none" rx="3" ry="3" style="stroke:#038048;stroke-width:1;"/><text fill="#000000" font-family="sans-serif" font-size="14" lengthAdjust="spacing" textLength="99.8525" x="194.07" y="402.822">bool IsCaptain</text><line style="stroke:#181818;stroke-width:0.5;" x1="175.07" x2="298.9225" y1="410.1238" y2="410.1238"/></g><!--class TournamentEnrollments--><g class="entity" data-entity="TournamentEnrollments" data-source-line="30" data-uid="ent0006" id="entity_TournamentEnrollments"><rect fill="#F1F1F1" height="64.2969" rx="2.5" ry="2.5" style="stroke:#181818;stroke-width:0.5;" width="201.5381" x="335.23" y="345.67"/><ellipse cx="350.23" cy="361.67" fill="#ADD1B2" rx="11" ry="11" style="stroke:#181818;stroke-width:1;"/><path d="M353.1988,367.3106 Q352.6206,367.6075 351.98,367.7481 Q351.3394,367.9044 350.6363,367.9044 Q348.1363,367.9044 346.8081,366.2638 Q345.4956,364.6075 345.4956,361.4825 Q345.4956,358.3575 346.8081,356.7013 Q348.1363,355.045 350.6363,355.045 Q351.3394,355.045 351.98,355.2013 Q352.6363,355.3575 353.1988,355.6544 L353.1988,358.3731 Q352.5738,357.795 351.98,357.5294 Q351.3863,357.2481 350.7613,357.2481 Q349.4175,357.2481 348.73,358.3263 Q348.0425,359.3888 348.0425,361.4825 Q348.0425,363.5763 348.73,364.6544 Q349.4175,365.7169 350.7613,365.7169 Q351.3863,365.7169 351.98,365.4513 Q352.5738,365.17 353.1988,364.5919 L353.1988,367.3106 Z " fill="#000000"/><text fill="#000000" font-family="sans-serif" font-size="14" lengthAdjust="spacing" textLength="169.5381" x="364.23" y="366.5167">TournamentEnrollments</text><line style="stroke:#181818;stroke-width:0.5;" x1="336.23" x2="535.7681" y1="377.67" y2="377.67"/><ellipse cx="346.23" cy="391.3184" fill="none" rx="3" ry="3" style="stroke:#038048;stroke-width:1;"/><text fill="#000000" font-family="sans-serif" font-size="14" lengthAdjust="spacing" textLength="121.5293" x="355.23" y="394.6651">int TournamentId</text><line style="stroke:#181818;stroke-width:0.5;" x1="336.23" x2="535.7681" y1="401.9669" y2="401.9669"/></g><!--class Player--><g class="entity" data-entity="Player" data-source-line="39" data-uid="ent0010" id="entity_Player"><rect fill="#F1F1F1" height="32" rx="2.5" ry="2.5" style="stroke:#181818;stroke-width:0.5;" width="75.5654" x="569.22" y="143.76"/><ellipse cx="584.22" cy="159.76" fill="#ADD1B2" rx="11" ry="11" style="stroke:#181818;stroke-width:1;"/><path d="M587.1888,165.4006 Q586.6106,165.6975 585.97,165.8381 Q585.3294,165.9944 584.6263,165.9944 Q582.1263,165.9944 580.7981,164.3538 Q579.4856,162.6975 579.4856,159.5725 Q579.4856,156.4475 580.7981,154.7913 Q582.1263,153.135 584.6263,153.135 Q585.3294,153.135 585.97,153.2913 Q586.6263,153.4475 587.1888,153.7444 L587.1888,156.4631 Q586.5638,155.885 585.97,155.6194 Q585.3763,155.3381 584.7513,155.3381 Q583.4075,155.3381 582.72,156.4163 Q582.0325,157.4788 582.0325,159.5725 Q582.0325,161.6663 582.72,162.7444 Q583.4075,163.8069 584.7513,163.8069 Q585.3763,163.8069 585.97,163.5413 Q586.5638,163.26 587.1888,162.6819 L587.1888,165.4006 Z " fill="#000000"/><text fill="#000000" font-family="sans-serif" font-size="14" lengthAdjust="spacing" textLength="43.5654" x="598.22" y="164.6067">Player</text></g><!--class Tournament--><g class="entity" data-entity="Tournament" data-source-line="40" data-uid="ent0012" id="entity_Tournament"><rect fill="#F1F1F1" height="32" rx="2.5" ry="2.5" style="stroke:#181818;stroke-width:0.5;" width="117.8115" x="680.09" y="143.76"/><ellipse cx="695.09" cy="159.76" fill="#ADD1B2" rx="11" ry="11" style="stroke:#181818;stroke-width:1;"/><path d="M698.0588,165.4006 Q697.4806,165.6975 696.84,165.8381 Q696.1994,165.9944 695.4963,165.9944 Q692.9963,165.9944 691.6681,164.3538 Q690.3556,162.6975 690.3556,159.5725 Q690.3556,156.4475 691.6681,154.7913 Q692.9963,153.135 695.4963,153.135 Q696.1994,153.135 696.84,153.2913 Q697.4963,153.4475 698.0588,153.7444 L698.0588,156.4631 Q697.4338,155.885 696.84,155.6194 Q696.2463,155.3381 695.6213,155.3381 Q694.2775,155.3381 693.59,156.4163 Q692.9025,157.4788 692.9025,159.5725 Q692.9025,161.6663 693.59,162.7444 Q694.2775,163.8069 695.6213,163.8069 Q696.2463,163.8069 696.84,163.5413 Q697.4338,163.26 698.0588,162.6819 L698.0588,165.4006 Z " fill="#000000"/><text fill="#000000" font-family="sans-serif" font-size="14" lengthAdjust="spacing" textLength="85.8115" x="709.09" y="164.6067">Tournament</text></g><!--reverse link Team to TeamStatus--><g class="link" data-entity-1="Team" data-entity-2="TeamStatus" data-source-line="34" data-uid="lnk7" id="link_Team_TeamStatus"><path codeLine="34" d="M162.88,289.89 C162.88,341.34 162.88,378.12 162.88,378.12 C162.88,378.12 152.53,378.12 139.19,378.12 " fill="none" id="Team-backto-TeamStatus" style="stroke:#181818;stroke-width:1;"/><polygon fill="none" points="162.88,277.89,158.88,283.89,162.88,289.89,166.88,283.89,162.88,277.89" style="stroke:#181818;stroke-width:1;"/></g><!--reverse link Team to TeamPlayer--><g class="link" data-entity-1="Team" data-entity-2="TeamPlayer" data-source-line="35" data-uid="lnk8" id="link_Team_TeamPlayer"><path codeLine="35" d="M237,289.73 C237,311.2 237,320.21 237,337.39 " fill="none" id="Team-backto-TeamPlayer" style="stroke:#181818;stroke-width:1;"/><polygon fill="#181818" points="237,277.73,233,283.73,237,289.73,241,283.73,237,277.73" style="stroke:#181818;stroke-width:1;"/><text fill="#000000" font-family="sans-serif" font-size="13" lengthAdjust="spacing" textLength="33.0776" x="201.2742" y="326.5283">0..11</text></g><!--reverse link Team to TournamentEnrollments--><g class="link" data-entity-1="Team" data-entity-2="TournamentEnrollments" data-source-line="36" data-uid="lnk9" id="link_Team_TournamentEnrollments"><path codeLine="36" d="M434.78,289.73 C434.78,314.61 434.78,326.88 434.78,345.28 " fill="none" id="Team-backto-TournamentEnrollments" style="stroke:#181818;stroke-width:1;"/><polygon fill="#181818" points="434.78,277.73,430.78,283.73,434.78,289.73,438.78,283.73,434.78,277.73" style="stroke:#181818;stroke-width:1;"/><text fill="#000000" font-family="sans-serif" font-size="13" lengthAdjust="spacing" textLength="36.5625" x="395.17" y="334.7272">many</text></g><!--link Team to Player--><g class="link" data-entity-1="Team" data-entity-2="Player" data-source-line="39" data-uid="lnk11" id="link_Team_Player"><path codeLine="39" d="M534.51,160.12 C547.04,160.12 558.66,160.12 568.77,160.12 " fill="none" id="Team-Player" style="stroke:#181818;stroke-width:1;"/></g><!--link Team to Tournament--><g class="link" data-entity-1="Team" data-entity-2="Tournament" data-source-line="40" data-uid="lnk13" id="link_Team_Tournament"><path codeLine="40" d="M534.62,227.12 C635.7,227.12 739,227.12 739,227.12 C739,227.12 739,196 739,176.07 " fill="none" id="Team-Tournament" style="stroke:#181818;stroke-width:1;"/></g><!--SRC=[RLF1Ri8m3BttAonER5FHk2CajErG2GrKs7aoZLSYcgHA31AQzkzBsguf7RaaUNxFURRRenG4fCyA5F7H29UuazGrMbImbfhuMXDih0ybIOt52Kk2FQ5QbQMb4fbWiSYfODHbHSibV2VWLr6XSmtFXtjgRWptbB2Uf6R8HBmxjbANy8wA8XZIx1ZvxA3TRlKVZkmWHxgMZXT1iwtmIdO9dtLp6CYod51iT7LzCLNbpKkZRnJRJX0L5oC5h8He8zDsWpRnmuYMap8NyXJspE2mfMLYJDmHls3DAFLq75gRulGFVDFM-ytqtfojzYtIF8r7uFxOwdvQ-yri1osCtN-r-CNzBRn8OgYCG-pA7GrksvK54JuOKq7ckgeySYTVRxCj9vpSE7KaPJUMcY_AfEcWe8W_UdpoF9lDvvE1wr5SeRvExfj8_2CDCUrA-xj5Tf8Sm__IzKEHEeJFfC46a-ZmNm00]--></g></svg>