<svg xmlns="http://www.w3.org/2000/svg" xmlns:xlink="http://www.w3.org/1999/xlink" contentStyleType="text/css" data-diagram-type="CLASS" height="407px" preserveAspectRatio="none" style="width:443px;height:407px;background:#FFFFFF;" version="1.1" viewBox="0 0 443 407" width="443px" zoomAndPan="magnify"><defs/><g><!--cluster TournamentAggregate--><g class="cluster" data-entity="TournamentAggregate" data-source-line="3" data-uid="ent0002" id="cluster_TournamentAggregate"><rect fill="none" height="394.53" rx="2.5" ry="2.5" style="stroke:#181818;stroke-width:1;" width="430" x="7" y="7"/><text fill="#000000" font-family="sans-serif" font-size="14" font-weight="bold" lengthAdjust="spacing" textLength="179.1289" x="132.4355" y="21.9951">TournamentAggregate</text></g><!--class Tournament--><g class="entity" data-entity="Tournament" data-source-line="4" data-uid="ent0003" id="entity_Tournament"><rect fill="#F1F1F1" height="170.3438" rx="2.5" ry="2.5" style="stroke:#181818;stroke-width:0.5;" width="397.7656" x="23.12" y="42"/><ellipse cx="167.1386" cy="62.1328" fill="#ADD1B2" rx="11" ry="11" style="stroke:#181818;stroke-width:1;"/><path d="M170.1073,67.7734 Q169.5292,68.0703 168.8886,68.2109 Q168.2479,68.3672 167.5448,68.3672 Q165.0448,68.3672 163.7167,66.7266 Q162.4042,65.0703 162.4042,61.9453 Q162.4042,58.8203 163.7167,57.1641 Q165.0448,55.5078 167.5448,55.5078 Q168.2479,55.5078 168.8886,55.6641 Q169.5448,55.8203 170.1073,56.1172 L170.1073,58.8359 Q169.4823,58.2578 168.8886,57.9922 Q168.2948,57.7109 167.6698,57.7109 Q166.3261,57.7109 165.6386,58.7891 Q164.9511,59.8516 164.9511,61.9453 Q164.9511,64.0391 165.6386,65.1172 Q166.3261,66.1797 167.6698,66.1797 Q168.2948,66.1797 168.8886,65.9141 Q169.4823,65.6328 170.1073,65.0547 L170.1073,67.7734 Z " fill="#000000"/><text fill="#000000" font-family="sans-serif" font-size="12" font-style="italic" lengthAdjust="spacing" textLength="105.2285" x="185.6386" y="58.1387">&#171;AggregateRoot&#187;</text><text fill="#000000" font-family="sans-serif" font-size="14" lengthAdjust="spacing" textLength="85.8115" x="195.3471" y="73.9639">Tournament</text><line style="stroke:#181818;stroke-width:0.5;" x1="24.12" x2="419.8856" y1="82.2656" y2="82.2656"/><ellipse cx="34.12" cy="95.9141" fill="none" rx="3" ry="3" style="stroke:#038048;stroke-width:1;"/><text fill="#000000" font-family="sans-serif" font-size="14" lengthAdjust="spacing" textLength="35.7178" x="43.12" y="99.2607">int Id</text><ellipse cx="34.12" cy="112.2109" fill="none" rx="3" ry="3" style="stroke:#038048;stroke-width:1;"/><text fill="#000000" font-family="sans-serif" font-size="14" lengthAdjust="spacing" textLength="85.9414" x="43.12" y="115.5576">string Name</text><ellipse cx="34.12" cy="128.5078" fill="none" rx="3" ry="3" style="stroke:#038048;stroke-width:1;"/><text fill="#000000" font-family="sans-serif" font-size="14" lengthAdjust="spacing" textLength="121.3926" x="43.12" y="131.8545">int CompetitionId</text><ellipse cx="34.12" cy="144.8047" fill="none" rx="3" ry="3" style="stroke:#038048;stroke-width:1;"/><text fill="#000000" font-family="sans-serif" font-size="14" lengthAdjust="spacing" textLength="141.2305" x="43.12" y="148.1514">int CreatedByUserId</text><rect fill="none" height="6" style="stroke:#C82930;stroke-width:1;" width="6" x="31.12" y="158.1016"/><text fill="#000000" font-family="sans-serif" font-size="14" lengthAdjust="spacing" textLength="172.2041" x="43.12" y="164.4482">List&lt;Bulletin&gt; _bulletins</text><ellipse cx="34.12" cy="177.3984" fill="none" rx="3" ry="3" style="stroke:#038048;stroke-width:1;"/><text fill="#000000" font-family="sans-serif" font-size="14" lengthAdjust="spacing" textLength="237.9248" x="43.12" y="180.7451">IReadOnlyList&lt;Bulletin&gt; Bulletins</text><line style="stroke:#181818;stroke-width:0.5;" x1="24.12" x2="419.8856" y1="188.0469" y2="188.0469"/><ellipse cx="34.12" cy="201.6953" fill="#84BE84" rx="3" ry="3" style="stroke:#038048;stroke-width:1;"/><text fill="#000000" font-family="sans-serif" font-size="14" lengthAdjust="spacing" textLength="371.7656" x="43.12" y="205.042">void AddBulletin(string content, int createdByUserId)</text></g><!--class Bulletin--><g class="entity" data-entity="Bulletin" data-source-line="15" data-uid="ent0004" id="entity_Bulletin"><rect fill="#F1F1F1" height="113.1875" rx="2.5" ry="2.5" style="stroke:#181818;stroke-width:0.5;" width="155.3838" x="144.31" y="272.34"/><ellipse cx="191.1909" cy="288.34" fill="#ADD1B2" rx="11" ry="11" style="stroke:#181818;stroke-width:1;"/><path d="M194.1596,293.9806 Q193.5815,294.2775 192.9409,294.4181 Q192.3002,294.5744 191.5971,294.5744 Q189.0971,294.5744 187.769,292.9338 Q186.4565,291.2775 186.4565,288.1525 Q186.4565,285.0275 187.769,283.3713 Q189.0971,281.715 191.5971,281.715 Q192.3002,281.715 192.9409,281.8713 Q193.5971,282.0275 194.1596,282.3244 L194.1596,285.0431 Q193.5346,284.465 192.9409,284.1994 Q192.3471,283.9181 191.7221,283.9181 Q190.3784,283.9181 189.6909,284.9963 Q189.0034,286.0588 189.0034,288.1525 Q189.0034,290.2463 189.6909,291.3244 Q190.3784,292.3869 191.7221,292.3869 Q192.3471,292.3869 192.9409,292.1213 Q193.5346,291.84 194.1596,291.2619 L194.1596,293.9806 Z " fill="#000000"/><text fill="#000000" font-family="sans-serif" font-size="14" lengthAdjust="spacing" textLength="53.1221" x="211.6909" y="293.1867">Bulletin</text><line style="stroke:#181818;stroke-width:0.5;" x1="145.31" x2="298.6938" y1="304.34" y2="304.34"/><text fill="#000000" font-family="sans-serif" font-size="14" lengthAdjust="spacing" textLength="35.7178" x="150.31" y="321.3351">int Id</text><text fill="#000000" font-family="sans-serif" font-size="14" lengthAdjust="spacing" textLength="75.5781" x="150.31" y="337.632">string Text</text><text fill="#000000" font-family="sans-serif" font-size="14" lengthAdjust="spacing" textLength="143.3838" x="150.31" y="353.9289">DateTime CreatedAt</text><text fill="#000000" font-family="sans-serif" font-size="14" lengthAdjust="spacing" textLength="141.2305" x="150.31" y="370.2257">int CreatedByUserId</text><line style="stroke:#181818;stroke-width:0.5;" x1="145.31" x2="298.6938" y1="377.5275" y2="377.5275"/></g><!--reverse link Tournament to Bulletin--><g class="link" data-entity-1="Tournament" data-entity-2="Bulletin" data-source-line="22" data-uid="lnk5" id="link_Tournament_Bulletin"><path codeLine="22" d="M222,224.74 C222,244.71 222,253.51 222,271.9 " fill="none" id="Tournament-backto-Bulletin" style="stroke:#181818;stroke-width:1;"/><polygon fill="#181818" points="222,212.74,218,218.74,222,224.74,226,218.74,222,212.74" style="stroke:#181818;stroke-width:1;"/><text fill="#000000" font-family="sans-serif" font-size="13" lengthAdjust="spacing" textLength="35.1152" x="184.874" y="261.1099">Many</text></g><!--SRC=[RP7BQiCm44Nt-eeXg_JXFp06kzq4qWICkowgDAWYziX8ar9JykzLWXzog5QIvjpHdQjmijHBBplOMq8UUeIZvoydH2_LIHg4nfqzoGw9IsCy6ia8ULwZOaccnQA0Nm5ngLQ6aD0HcWMrSpo3r_La8x3JopcmjsJW4ALhwCLrFR9bwoZbRoMFiRUkXlU0FYbcUniuhyvj6uLKmCVdk0sBVbUZr4TgXpkscj65_NPMGwdrLDkEPfKZZeC-mzMCMfjvkCal8ebcaYSntAKmzctmX-UxrzYriHrEqvQyKl-NmVXgyXMFMGQRDqd3PdOXBdy0]--></g></svg>