<svg xmlns="http://www.w3.org/2000/svg" xmlns:xlink="http://www.w3.org/1999/xlink" contentStyleType="text/css" data-diagram-type="DESCRIPTION" height="1017px" preserveAspectRatio="none" style="width:632px;height:1017px;background:#FFFFFF;" version="1.1" viewBox="0 0 632 1017" width="632px" zoomAndPan="magnify"><defs/><g><!--cluster Bruger h?ndtering--><g class="cluster" data-entity="Bruger h&#229;ndtering" data-source-line="12" data-uid="ent0010" id="cluster_Bruger h&#229;ndtering"><path d="M210.06,222 L357.1782,222 A3.75,3.75 0 0 1 359.6782,224.5 L366.6782,244.2969 L366.16,244.2969 A2.5,2.5 0 0 1 368.66,246.7969 L368.66,428.5 A2.5,2.5 0 0 1 366.16,431 L210.06,431 A2.5,2.5 0 0 1 207.56,428.5 L207.56,224.5 A2.5,2.5 0 0 1 210.06,222 " fill="none" style="stroke:#000000;stroke-width:1.5;"/><line style="stroke:#000000;stroke-width:1.5;" x1="207.56" x2="366.6782" y1="244.2969" y2="244.2969"/><text fill="#000000" font-family="sans-serif" font-size="14" font-weight="bold" lengthAdjust="spacing" textLength="146.1182" x="211.56" y="236.9951">Bruger h&#229;ndtering</text></g><!--cluster Hold Builder--><g class="cluster" data-entity="Hold Builder" data-source-line="21" data-uid="ent0017" id="cluster_Hold Builder"><path d="M184.5,502 L283.1855,502 A3.75,3.75 0 0 1 285.6855,504.5 L292.6855,524.2969 L391.72,524.2969 A2.5,2.5 0 0 1 394.22,526.7969 L394.22,1007.5 A2.5,2.5 0 0 1 391.72,1010 L184.5,1010 A2.5,2.5 0 0 1 182,1007.5 L182,504.5 A2.5,2.5 0 0 1 184.5,502 " fill="none" style="stroke:#000000;stroke-width:1.5;"/><line style="stroke:#000000;stroke-width:1.5;" x1="182" x2="292.6855" y1="524.2969" y2="524.2969"/><text fill="#000000" font-family="sans-serif" font-size="14" font-weight="bold" lengthAdjust="spacing" textLength="97.6855" x="186" y="516.9951">Hold Builder</text></g><!--cluster Privat turnering--><g class="cluster" data-entity="Privat turnering" data-source-line="38" data-uid="ent0032" id="cluster_Privat turnering"><path d="M424.72,116 L552.5403,116 A3.75,3.75 0 0 1 555.0403,118.5 L562.0403,138.2969 L623.36,138.2969 A2.5,2.5 0 0 1 625.86,140.7969 L625.86,342.5 A2.5,2.5 0 0 1 623.36,345 L424.72,345 A2.5,2.5 0 0 1 422.22,342.5 L422.22,118.5 A2.5,2.5 0 0 1 424.72,116 " fill="none" style="stroke:#000000;stroke-width:1.5;"/><line style="stroke:#000000;stroke-width:1.5;" x1="422.22" x2="562.0403" y1="138.2969" y2="138.2969"/><text fill="#000000" font-family="sans-serif" font-size="14" font-weight="bold" lengthAdjust="spacing" textLength="126.8203" x="426.22" y="130.9951">Privat turnering</text></g><!--cluster Turneringsopslagstavle--><g class="cluster" data-entity="Turneringsopslagstavle" data-source-line="47" data-uid="ent0039" id="cluster_Turneringsopslagstavle"><path d="M426.46,6 L613.5,6 A3.75,3.75 0 0 1 616,8.5 L623,28.2969 L622.62,28.2969 A2.5,2.5 0 0 1 625.12,30.7969 L625.12,86.5 A2.5,2.5 0 0 1 622.62,89 L426.46,89 A2.5,2.5 0 0 1 423.96,86.5 L423.96,8.5 A2.5,2.5 0 0 1 426.46,6 " fill="none" style="stroke:#000000;stroke-width:1.5;"/><line style="stroke:#000000;stroke-width:1.5;" x1="423.96" x2="623" y1="28.2969" y2="28.2969"/><text fill="#000000" font-family="sans-serif" font-size="14" font-weight="bold" lengthAdjust="spacing" textLength="186.04" x="427.96" y="20.9951">Turneringsopslagstavle</text></g><g class="entity" data-entity="Login" data-source-line="13" data-uid="ent0011" id="entity_Login"><ellipse cx="288.1141" cy="399.9957" fill="#F1F1F1" rx="38.4641" ry="14.5557" style="stroke:#181818;stroke-width:0.5;"/><text fill="#000000" font-family="sans-serif" font-size="14" lengthAdjust="spacing" textLength="38.0146" x="267.24" y="403.4506">Login</text></g><g class="entity" data-entity="Register" data-source-line="14" data-uid="ent0012" id="entity_Register"><ellipse cx="288.1084" cy="336.0032" fill="#F1F1F1" rx="53.5484" ry="14.7232" style="stroke:#181818;stroke-width:0.5;"/><text fill="#000000" font-family="sans-serif" font-size="14" lengthAdjust="spacing" textLength="58.2695" x="255.9736" y="339.7507">Register</text></g><g class="entity" data-entity="Logout" data-source-line="15" data-uid="ent0013" id="entity_Logout"><ellipse cx="288.1118" cy="272.0014" fill="#F1F1F1" rx="42.1618" ry="14.6014" style="stroke:#181818;stroke-width:0.5;"/><text fill="#000000" font-family="sans-serif" font-size="14" lengthAdjust="spacing" textLength="43.0117" x="263.606" y="275.749">Logud</text></g><g class="entity" data-entity="createTeam" data-source-line="22" data-uid="ent0018" id="entity_createTeam"><ellipse cx="288.115" cy="551.997" fill="#F1F1F1" rx="63.535" ry="15.107" style="stroke:#181818;stroke-width:0.5;"/><text fill="#000000" font-family="sans-serif" font-size="14" lengthAdjust="spacing" textLength="74.4297" x="247.9002" y="555.7446">Opret hold</text></g><g class="entity" data-entity="deleteTeam" data-source-line="23" data-uid="ent0019" id="entity_deleteTeam"><ellipse cx="288.1128" cy="979.0029" fill="#F1F1F1" rx="55.9928" ry="14.7429" style="stroke:#181818;stroke-width:0.5;"/><text fill="#000000" font-family="sans-serif" font-size="14" lengthAdjust="spacing" textLength="61.5439" x="254.3409" y="982.7504">Slet hold</text></g><g class="entity" data-entity="addTeamPlayer" data-source-line="24" data-uid="ent0020" id="entity_addTeamPlayer"><ellipse cx="288.1101" cy="908.996" fill="#F1F1F1" rx="89.0301" ry="20.206" style="stroke:#181818;stroke-width:0.5;"/><text fill="#000000" font-family="sans-serif" font-size="14" lengthAdjust="spacing" textLength="139.542" x="218.3391" y="911.8427">Tilf&#230;j Spiller til hold</text></g><g class="entity" data-entity="pickTeamCaptain" data-source-line="25" data-uid="ent0021" id="entity_pickTeamCaptain"><ellipse cx="288.1097" cy="833.0019" fill="#F1F1F1" rx="90.1097" ry="20.4219" style="stroke:#181818;stroke-width:0.5;"/><text fill="#000000" font-family="sans-serif" font-size="14" lengthAdjust="spacing" textLength="141.9893" x="217.1151" y="835.8486">V&#230;lg hold kaptajner</text></g><g class="entity" data-entity="removeTeamPlayer" data-source-line="26" data-uid="ent0022" id="entity_removeTeamPlayer"><ellipse cx="288.1143" cy="756.9969" fill="#F1F1F1" rx="89.3343" ry="20.2669" style="stroke:#181818;stroke-width:0.5;"/><text fill="#000000" font-family="sans-serif" font-size="14" lengthAdjust="spacing" textLength="140.2324" x="217.998" y="759.8435">Fjern spiller fra hold</text></g><g class="entity" data-entity="changeFormation" data-source-line="27" data-uid="ent0023" id="entity_changeFormation"><ellipse cx="288.1137" cy="683.9967" fill="#F1F1F1" rx="74.2337" ry="17.2467" style="stroke:#181818;stroke-width:0.5;"/><text fill="#000000" font-family="sans-serif" font-size="14" lengthAdjust="spacing" textLength="104.0361" x="233.0956" y="687.7443">Skift formation</text></g><g class="entity" data-entity="lockTeam" data-source-line="28" data-uid="ent0024" id="entity_lockTeam"><ellipse cx="288.1094" cy="617.0036" fill="#F1F1F1" rx="53.5994" ry="14.7236" style="stroke:#181818;stroke-width:0.5;"/><text fill="#000000" font-family="sans-serif" font-size="14" lengthAdjust="spacing" textLength="58.3379" x="255.9405" y="620.7512">L&#229;s hold</text></g><g class="entity" data-entity="createTournament" data-source-line="39" data-uid="ent0033" id="entity_createTournament"><ellipse cx="524.0359" cy="311.0012" fill="#F1F1F1" rx="76.2559" ry="17.6512" style="stroke:#181818;stroke-width:0.5;"/><text fill="#000000" font-family="sans-serif" font-size="14" lengthAdjust="spacing" textLength="109.2246" x="466.4236" y="314.7487">Opret turnering</text></g><g class="entity" data-entity="inviteToTournament" data-source-line="40" data-uid="ent0034" id="entity_inviteToTournament"><ellipse cx="524.0411" cy="239.0042" fill="#F1F1F1" rx="85.8211" ry="19.5642" style="stroke:#181818;stroke-width:0.5;"/><text fill="#000000" font-family="sans-serif" font-size="14" lengthAdjust="spacing" textLength="132.2139" x="457.9342" y="241.8509">Inviter til turnering</text></g><g class="entity" data-entity="deleteTournament" data-source-line="41" data-uid="ent0035" id="entity_deleteTournament"><ellipse cx="524.0449" cy="168.001" fill="#F1F1F1" rx="71.3049" ry="16.661" style="stroke:#181818;stroke-width:0.5;"/><text fill="#000000" font-family="sans-serif" font-size="14" lengthAdjust="spacing" textLength="96.3389" x="472.8755" y="171.7485">Slet turnering</text></g><g class="entity" data-entity="createBulletin" data-source-line="48" data-uid="ent0040" id="entity_createBulletin"><ellipse cx="524.0392" cy="56.9958" fill="#F1F1F1" rx="69.0792" ry="16.2158" style="stroke:#181818;stroke-width:0.5;"/><text fill="#000000" font-family="sans-serif" font-size="14" lengthAdjust="spacing" textLength="90.3164" x="475.881" y="60.7434">Opret opslag</text></g><!--entity User--><g class="entity" data-entity="User" data-source-line="3" data-uid="ent0002" id="entity_User"><ellipse cx="72.0046" cy="338.35" fill="#F1F1F1" rx="8" ry="8" style="stroke:#181818;stroke-width:0.5;"/><path d="M72.0046,346.35 L72.0046,373.35 M59.0046,354.35 L85.0046,354.35 M72.0046,373.35 L59.0046,388.35 M72.0046,373.35 L85.0046,388.35 " fill="none" style="stroke:#181818;stroke-width:0.5;"/><text fill="#000000" font-family="sans-serif" font-size="14" lengthAdjust="spacing" textLength="47.4893" x="48.26" y="402.8451">Bruger</text></g><!--entity HoldAdministrator--><g class="entity" data-entity="HoldAdministrator" data-source-line="4" data-uid="ent0003" id="entity_HoldAdministrator"><ellipse cx="72.001" cy="727.35" fill="#F1F1F1" rx="8" ry="8" style="stroke:#181818;stroke-width:0.5;"/><path d="M72.001,735.35 L72.001,762.35 M59.001,743.35 L85.001,743.35 M72.001,762.35 L59.001,777.35 M72.001,762.35 L85.001,777.35 " fill="none" style="stroke:#181818;stroke-width:0.5;"/><text fill="#000000" font-family="sans-serif" font-size="14" lengthAdjust="spacing" textLength="132.002" x="6" y="791.8451">Hold Administrator</text></g><!--entity TurneyPlanner--><g class="entity" data-entity="TurneyPlanner" data-source-line="6" data-uid="ent0005" id="entity_TurneyPlanner"><ellipse cx="288.1086" cy="138.35" fill="#F1F1F1" rx="8" ry="8" style="stroke:#181818;stroke-width:0.5;"/><path d="M288.1086,146.35 L288.1086,173.35 M275.1086,154.35 L301.1086,154.35 M288.1086,173.35 L275.1086,188.35 M288.1086,173.35 L301.1086,188.35 " fill="none" style="stroke:#181818;stroke-width:0.5;"/><text fill="#000000" font-family="sans-serif" font-size="14" lengthAdjust="spacing" textLength="136.1172" x="220.05" y="202.8451">Turneringsarrang&#248;r</text></g><!--entity TurneyAttendeee--><g class="entity" data-entity="TurneyAttendeee" data-source-line="8" data-uid="ent0007" id="entity_TurneyAttendeee"><ellipse cx="288.11" cy="27.35" fill="#F1F1F1" rx="8" ry="8" style="stroke:#181818;stroke-width:0.5;"/><path d="M288.11,35.35 L288.11,62.35 M275.11,43.35 L301.11,43.35 M288.11,62.35 L275.11,77.35 M288.11,62.35 L301.11,77.35 " fill="none" style="stroke:#181818;stroke-width:0.5;"/><text fill="#000000" font-family="sans-serif" font-size="14" lengthAdjust="spacing" textLength="134.0801" x="221.07" y="91.8451">Turneringsdeltager</text></g><!--reverse link User to HoldAdministrator--><g class="link" data-entity-1="User" data-entity-2="HoldAdministrator" data-source-line="5" data-uid="lnk4" id="link_User_HoldAdministrator"><path d="M72,424.35 C72,528.44 72,614.54 72,718.63 " fill="none" id="User-backto-HoldAdministrator" style="stroke:#181818;stroke-width:1;"/><polygon fill="none" points="72,406.35,66,424.35,78,424.35,72,406.35" style="stroke:#181818;stroke-width:1;"/></g><!--reverse link User to TurneyPlanner--><g class="link" data-entity-1="User" data-entity-2="TurneyPlanner" data-source-line="7" data-uid="lnk6" id="link_User_TurneyPlanner"><path d="M106.5494,318.0718 C125.4694,291.0318 143.62,268.52 174,241 C187.77,228.53 203.9,216.76 219.59,206.46 " fill="none" id="User-backto-TurneyPlanner" style="stroke:#181818;stroke-width:1;"/><polygon fill="none" points="96.23,332.82,111.4655,321.5116,101.6333,314.632,96.23,332.82" style="stroke:#181818;stroke-width:1;"/></g><!--reverse link User to TurneyAttendeee--><g class="link" data-entity-1="User" data-entity-2="TurneyAttendeee" data-source-line="9" data-uid="lnk8" id="link_User_TurneyAttendeee"><path d="M82.5573,311.8054 C93.0773,257.2354 115.89,174.75 174,112 C186.76,98.22 203.71,87.49 220.6,79.32 " fill="none" id="User-backto-TurneyAttendeee" style="stroke:#181818;stroke-width:1;"/><polygon fill="none" points="79.15,329.48,88.4488,312.9412,76.6658,310.6697,79.15,329.48" style="stroke:#181818;stroke-width:1;"/></g><!--reverse link TurneyAttendeee to TurneyPlanner--><g class="link" data-entity-1="TurneyAttendeee" data-entity-2="TurneyPlanner" data-source-line="10" data-uid="lnk9" id="link_TurneyAttendeee_TurneyPlanner"><path d="M288.11,113.47 C288.11,124.78 288.11,118.1 288.11,129.41 " fill="none" id="TurneyAttendeee-backto-TurneyPlanner" style="stroke:#181818;stroke-width:1;"/><polygon fill="none" points="288.11,95.47,282.11,113.47,294.11,113.47,288.11,95.47" style="stroke:#181818;stroke-width:1;"/></g><!--link User to Login--><g class="link" data-entity-1="User" data-entity-2="Login" data-source-line="17" data-uid="lnk14" id="link_User_Login"><path d="M95.91,371.42 C133.35,377.02 201.9258,387.274 246.0658,393.864 " fill="none" id="User-to-Login" style="stroke:#181818;stroke-width:1;"/><polygon fill="#181818" points="252,394.75,243.6893,389.4649,247.0548,394.0117,242.508,397.3772,252,394.75" style="stroke:#181818;stroke-width:1;"/></g><!--link User to Register--><g class="link" data-entity-1="User" data-entity-2="Register" data-source-line="18" data-uid="lnk15" id="link_User_Register"><path d="M95.91,364.58 C130.22,359.45 189.736,350.5574 234.406,343.8774 " fill="none" id="User-to-Register" style="stroke:#181818;stroke-width:1;"/><polygon fill="#181818" points="240.34,342.99,230.8474,340.3651,235.395,343.7295,232.0306,348.2771,240.34,342.99" style="stroke:#181818;stroke-width:1;"/></g><!--link User to Logout--><g class="link" data-entity-1="User" data-entity-2="Logout" data-source-line="19" data-uid="lnk16" id="link_User_Logout"><path d="M95.99,350.7 C115.78,336.49 145.57,316.7 174,304 C198.78,292.93 222.499,286.0921 245.189,280.7621 " fill="none" id="User-to-Logout" style="stroke:#181818;stroke-width:1;"/><polygon fill="#181818" points="251.03,279.39,241.3538,277.5541,246.1625,280.5334,243.1832,285.3421,251.03,279.39" style="stroke:#181818;stroke-width:1;"/></g><!--link User to createTeam--><g class="link" data-entity-1="User" data-entity-2="createTeam" data-source-line="30" data-uid="lnk25" id="link_User_createTeam"><path d="M96.12,404.59 C114.68,431.8 142.72,468.48 174,494 C197.85,513.46 223.7768,526.5959 247.4568,536.6459 " fill="none" id="User-to-createTeam" style="stroke:#181818;stroke-width:1;"/><polygon fill="#181818" points="252.98,538.99,246.258,531.7918,248.3774,537.0366,243.1325,539.156,252.98,538.99" style="stroke:#181818;stroke-width:1;"/></g><!--link HoldAdministrator to deleteTeam--><g class="link" data-entity-1="HoldAdministrator" data-entity-2="deleteTeam" data-source-line="31" data-uid="lnk26" id="link_HoldAdministrator_deleteTeam"><path d="M83.41,795.33 C97.09,838.49 125.31,907.71 174,947 C191.47,961.1 208.9388,967.7535 229.8788,972.1635 " fill="none" id="HoldAdministrator-to-deleteTeam" style="stroke:#181818;stroke-width:1;"/><polygon fill="#181818" points="235.75,973.4,227.7675,967.6311,230.8573,972.3696,226.1189,975.4594,235.75,973.4" style="stroke:#181818;stroke-width:1;"/></g><!--link HoldAdministrator to addTeamPlayer--><g class="link" data-entity-1="HoldAdministrator" data-entity-2="addTeamPlayer" data-source-line="32" data-uid="lnk27" id="link_HoldAdministrator_addTeamPlayer"><path d="M99.01,795.57 C117.39,820.21 144.02,851.14 174,871 C189.29,881.12 201.8207,886.9144 219.1407,892.6144 " fill="none" id="HoldAdministrator-to-addTeamPlayer" style="stroke:#181818;stroke-width:1;"/><polygon fill="#181818" points="224.84,894.49,217.5415,887.877,220.0906,892.927,215.0406,895.4761,224.84,894.49" style="stroke:#181818;stroke-width:1;"/></g><!--link HoldAdministrator to pickTeamCaptain--><g class="link" data-entity-1="HoldAdministrator" data-entity-2="pickTeamCaptain" data-source-line="33" data-uid="lnk28" id="link_HoldAdministrator_pickTeamCaptain"><path d="M138.34,781.97 C150.18,786.39 162.44,790.88 174,795 C194.01,802.12 210.4282,807.7318 229.7682,814.1818 " fill="none" id="HoldAdministrator-to-pickTeamCaptain" style="stroke:#181818;stroke-width:1;"/><polygon fill="#181818" points="235.46,816.08,228.1878,809.4381,230.7168,814.4981,225.6568,817.0272,235.46,816.08" style="stroke:#181818;stroke-width:1;"/></g><!--link HoldAdministrator to removeTeamPlayer--><g class="link" data-entity-1="HoldAdministrator" data-entity-2="removeTeamPlayer" data-source-line="34" data-uid="lnk29" id="link_HoldAdministrator_removeTeamPlayer"><path d="M138.4,757 C157.34,757 172.34,757 192.45,757 " fill="none" id="HoldAdministrator-to-removeTeamPlayer" style="stroke:#181818;stroke-width:1;"/><polygon fill="#181818" points="198.45,757,189.45,753,193.45,757,189.45,761,198.45,757" style="stroke:#181818;stroke-width:1;"/></g><!--link HoldAdministrator to changeFormation--><g class="link" data-entity-1="HoldAdministrator" data-entity-2="changeFormation" data-source-line="35" data-uid="lnk30" id="link_HoldAdministrator_changeFormation"><path d="M138.26,731.8 C150.11,727.41 162.39,722.98 174,719 C195.78,711.54 214.4085,705.6523 234.9385,699.4223 " fill="none" id="HoldAdministrator-to-changeFormation" style="stroke:#181818;stroke-width:1;"/><polygon fill="#181818" points="240.68,697.68,230.9063,696.4658,235.8954,699.1319,233.2293,704.1211,240.68,697.68" style="stroke:#181818;stroke-width:1;"/></g><!--link HoldAdministrator to lockTeam--><g class="link" data-entity-1="HoldAdministrator" data-entity-2="lockTeam" data-source-line="36" data-uid="lnk31" id="link_HoldAdministrator_lockTeam"><path d="M100.35,718.47 C118.72,695.22 144.85,666.77 174,649 C194.22,636.68 213.4835,630.2642 234.9035,625.4942 " fill="none" id="HoldAdministrator-to-lockTeam" style="stroke:#181818;stroke-width:1;"/><polygon fill="#181818" points="240.76,624.19,231.1057,622.2419,235.8795,625.2768,232.8446,630.0506,240.76,624.19" style="stroke:#181818;stroke-width:1;"/></g><!--link User to createTournament--><g class="link" data-entity-1="User" data-entity-2="createTournament" data-source-line="43" data-uid="lnk36" id="link_User_createTournament"><path d="M96.06,387.68 C115.43,402.84 144.6,422.58 174,431 C271.51,458.92 308.45,469.66 402.22,431 C452.79,410.16 490.0484,361.7667 508.6684,333.7567 " fill="none" id="User-to-createTournament" style="stroke:#181818;stroke-width:1;"/><polygon fill="#181818" points="511.99,328.76,503.6765,334.0406,509.222,332.9239,510.3387,338.4694,511.99,328.76" style="stroke:#181818;stroke-width:1;"/></g><!--link TurneyPlanner to inviteToTournament--><g class="link" data-entity-1="TurneyPlanner" data-entity-2="inviteToTournament" data-source-line="44" data-uid="lnk37" id="link_TurneyPlanner_inviteToTournament"><path d="M356.46,188.44 C392.9,199.5 431.4988,211.2169 465.2588,221.4669 " fill="none" id="TurneyPlanner-to-inviteToTournament" style="stroke:#181818;stroke-width:1;"/><polygon fill="#181818" points="471,223.21,463.5503,216.7679,466.2157,221.7574,461.2261,224.4228,471,223.21" style="stroke:#181818;stroke-width:1;"/></g><!--link TurneyPlanner to deleteTournament--><g class="link" data-entity-1="TurneyPlanner" data-entity-2="deleteTournament" data-source-line="45" data-uid="lnk38" id="link_TurneyPlanner_deleteTournament"><path d="M356.46,168 C386.56,168 416.04,168 446.51,168 " fill="none" id="TurneyPlanner-to-deleteTournament" style="stroke:#181818;stroke-width:1;"/><polygon fill="#181818" points="452.51,168,443.51,164,447.51,168,443.51,172,452.51,168" style="stroke:#181818;stroke-width:1;"/></g><!--link TurneyAttendeee to createBulletin--><g class="link" data-entity-1="TurneyAttendeee" data-entity-2="createBulletin" data-source-line="50" data-uid="lnk41" id="link_TurneyAttendeee_createBulletin"><path d="M355.52,57 C386.59,57 417.55,57 448.84,57 " fill="none" id="TurneyAttendeee-to-createBulletin" style="stroke:#181818;stroke-width:1;"/><polygon fill="#181818" points="454.84,57,445.84,53,449.84,57,445.84,61,454.84,57" style="stroke:#181818;stroke-width:1;"/></g><!--SRC=[TLH1Rjim4Bph5OHFzS4V28e2SO6W1G8qgDtU5-9QfasH0hao4BHvJlA6tlMnKgHaKQJaapKxkxCxN5BYYHXfPaHr9iQ5mPA4LaK19Md37lQchT0yCB3ibqKpmj-qvEoHrq89ImOSvYazF4EBFebz_hjR20sbZgrHQ8IgB1W3gkh-XLeUVtsHe5puNcUNu5aHZf9WR3bm7ubGSKJCgaoHvDktF5Sg6YYlhZBR14_OkNjNdBpgXlqfcFkr5akmZlAiAw4sVGkV_D_jFFmJAsS3ci0OlxPPZPRVQ-YMjiLRc62t-tAlEm5JcHd99qxD-vFRjqBoNZvf-qTZaDZPKO9kQH08ZmXrqjj1pdZET5pa7OKyTHyNTcY4bAuf4Z9A0yxx7EVmQpRzx-v3LfxBhj0GNDHeLoFAQv_sjOSpQvykQ1IpWzx9GAHdiDOtN9KyN8Mx32TjQkZlm631sUqaFerWUaRTkuq4f0wjpKygTZ6x1e4I6xX2ISnQOMNchF1oArQ8sVmhl6dqQTTUZBY1Urx6oxcoRr4yMZhjKAXHKMBvTtKJDAnIaYbywAXNS_tQ9ac3zL7Amjb5qTch44XBkWkqN6coQdh0T6CbL9RW9d75i429tTgtRjsfF- -tx2cBvhZJ_WC0]--></g></svg>