<svg xmlns="http://www.w3.org/2000/svg" xmlns:xlink="http://www.w3.org/1999/xlink" contentStyleType="text/css" data-diagram-type="CLASS" height="169px" preserveAspectRatio="none" style="width:189px;height:169px;background:#FFFFFF;" version="1.1" viewBox="0 0 189 169" width="189px" zoomAndPan="magnify"><defs/><g><!--cluster UserAggregate--><g class="cluster" data-entity="UserAggregate" data-source-line="3" data-uid="ent0002" id="cluster_UserAggregate"><rect fill="none" height="156.16" rx="2.5" ry="2.5" style="stroke:#181818;stroke-width:1;" width="176" x="7" y="7"/><text fill="#000000" font-family="sans-serif" font-size="14" font-weight="bold" lengthAdjust="spacing" textLength="119.0342" x="35.4829" y="21.9951">UserAggregate</text></g><!--class User--><g class="entity" data-entity="User" data-source-line="4" data-uid="ent0003" id="entity_User"><rect fill="#F1F1F1" height="105.1563" rx="2.5" ry="2.5" style="stroke:#181818;stroke-width:0.5;" width="143.8516" x="23.07" y="42"/><ellipse cx="42.8504" cy="62.1328" fill="#ADD1B2" rx="11" ry="11" style="stroke:#181818;stroke-width:1;"/><path d="M45.8191,67.7734 Q45.241,68.0703 44.6004,68.2109 Q43.9597,68.3672 43.2566,68.3672 Q40.7566,68.3672 39.4285,66.7266 Q38.116,65.0703 38.116,61.9453 Q38.116,58.8203 39.4285,57.1641 Q40.7566,55.5078 43.2566,55.5078 Q43.9597,55.5078 44.6004,55.6641 Q45.2566,55.8203 45.8191,56.1172 L45.8191,58.8359 Q45.1941,58.2578 44.6004,57.9922 Q44.0066,57.7109 43.3816,57.7109 Q42.0379,57.7109 41.3504,58.7891 Q40.6629,59.8516 40.6629,61.9453 Q40.6629,64.0391 41.3504,65.1172 Q42.0379,66.1797 43.3816,66.1797 Q44.0066,66.1797 44.6004,65.9141 Q45.1941,65.6328 45.8191,65.0547 L45.8191,67.7734 Z " fill="#000000"/><text fill="#000000" font-family="sans-serif" font-size="12" font-style="italic" lengthAdjust="spacing" textLength="105.2285" x="55.9127" y="58.1387">&#171;AggregateRoot&#187;</text><text fill="#000000" font-family="sans-serif" font-size="14" lengthAdjust="spacing" textLength="31.9102" x="92.5719" y="73.9639">User</text><line style="stroke:#181818;stroke-width:0.5;" x1="24.07" x2="165.9216" y1="82.2656" y2="82.2656"/><ellipse cx="34.07" cy="95.9141" fill="none" rx="3" ry="3" style="stroke:#038048;stroke-width:1;"/><text fill="#000000" font-family="sans-serif" font-size="14" lengthAdjust="spacing" textLength="35.7178" x="43.07" y="99.2607">int Id</text><ellipse cx="34.07" cy="112.2109" fill="none" rx="3" ry="3" style="stroke:#038048;stroke-width:1;"/><text fill="#000000" font-family="sans-serif" font-size="14" lengthAdjust="spacing" textLength="117.8516" x="43.07" y="115.5576">string UserName</text><ellipse cx="34.07" cy="128.5078" fill="none" rx="3" ry="3" style="stroke:#038048;stroke-width:1;"/><text fill="#000000" font-family="sans-serif" font-size="14" lengthAdjust="spacing" textLength="83.4805" x="43.07" y="131.8545">string Email</text><line style="stroke:#181818;stroke-width:0.5;" x1="24.07" x2="165.9216" y1="139.1563" y2="139.1563"/></g><!--SRC=[POin2iCm34Ltdq9xhn027JeKGWg17a2uGXMnPIDhAILtR-eX7Vgt_z_xRHMjQ9XX4YL_LOAR-RE4K36ko0JtHdPcDc9qWc5OA3eg9nf7U0VO4nEsrhqT7-fIYX_ADoTHX-lZrvkRAFVZZ9d-m2MZfBvkOVi0]--></g></svg>