<svg xmlns="http://www.w3.org/2000/svg" xmlns:xlink="http://www.w3.org/1999/xlink" contentStyleType="text/css" data-diagram-type="CLASS" height="473px" preserveAspectRatio="none" style="width:1403px;height:473px;background:#FFFFFF;" version="1.1" viewBox="0 0 1403 473" width="1403px" zoomAndPan="magnify"><defs/><g><!--cluster PlayerAggregate--><g id="cluster_PlayerAggregate"><rect fill="#FFFFFF" fill-opacity="0.00000" height="172" rx="2.5" ry="2.5" style="stroke:#181818;stroke-width:1;" width="166" x="577" y="64.5"/><text fill="#000000" font-family="sans-serif" font-size="14" font-weight="bold" lengthAdjust="spacing" textLength="132.9658" x="593.5171" y="79.4951">PlayerAggregate</text></g><!--cluster TournamentAggregate--><g id="cluster_TournamentAggregate"><rect fill="#FFFFFF" fill-opacity="0.00000" height="427" rx="2.5" ry="2.5" style="stroke:#181818;stroke-width:1;" width="430" x="767" y="40"/><text fill="#000000" font-family="sans-serif" font-size="14" font-weight="bold" lengthAdjust="spacing" textLength="179.1289" x="892.4355" y="54.9951">TournamentAggregate</text></g><!--cluster TeamAggregate--><g id="cluster_TeamAggregate"><rect fill="#FFFFFF" fill-opacity="0.00000" height="444" rx="2.5" ry="2.5" style="stroke:#181818;stroke-width:1;" width="546" x="7" y="7"/><text fill="#000000" font-family="sans-serif" font-size="14" font-weight="bold" lengthAdjust="spacing" textLength="126.0137" x="216.9932" y="21.9951">TeamAggregate</text></g><!--cluster UserAggregate--><g id="cluster_UserAggregate"><rect fill="#FFFFFF" fill-opacity="0.00000" height="156" rx="2.5" ry="2.5" style="stroke:#181818;stroke-width:1;" width="176" x="1221" y="72.5"/><text fill="#000000" font-family="sans-serif" font-size="14" font-weight="bold" lengthAdjust="spacing" textLength="119.0342" x="1249.4829" y="87.4951">UserAggregate</text></g><!--class Player--><g id="elem_Player"><rect codeLine="3" fill="#F1F1F1" height="121.4531" id="Player" rx="2.5" ry="2.5" style="stroke:#181818;stroke-width:0.5;" width="133.3574" x="593.5" y="99.5"/><ellipse cx="608.5" cy="119.6328" fill="#ADD1B2" rx="11" ry="11" style="stroke:#181818;stroke-width:1;"/><path d="M611.4688,125.2734 Q610.8906,125.5703 610.25,125.7109 Q609.6094,125.8672 608.9063,125.8672 Q606.4063,125.8672 605.0781,124.2266 Q603.7656,122.5703 603.7656,119.4453 Q603.7656,116.3203 605.0781,114.6641 Q606.4063,113.0078 608.9063,113.0078 Q609.6094,113.0078 610.25,113.1641 Q610.9063,113.3203 611.4688,113.6172 L611.4688,116.3359 Q610.8438,115.7578 610.25,115.4922 Q609.6563,115.2109 609.0313,115.2109 Q607.6875,115.2109 607,116.2891 Q606.3125,117.3516 606.3125,119.4453 Q606.3125,121.5391 607,122.6172 Q607.6875,123.6797 609.0313,123.6797 Q609.6563,123.6797 610.25,123.4141 Q610.8438,123.1328 611.4688,122.5547 L611.4688,125.2734 Z " fill="#000000"/><text fill="#000000" font-family="sans-serif" font-size="12" font-style="italic" lengthAdjust="spacing" textLength="105.3574" x="620.5" y="115.6387">&#171;AggregateRoot&#187;</text><text fill="#000000" font-family="sans-serif" font-size="14" lengthAdjust="spacing" textLength="43.5654" x="651.396" y="131.4639">Player</text><line style="stroke:#181818;stroke-width:0.5;" x1="594.5" x2="725.8574" y1="139.7656" y2="139.7656"/><ellipse cx="604.5" cy="153.4141" fill="#FFFFFF" fill-opacity="0.00000" rx="3" ry="3" style="stroke:#038048;stroke-width:1;"/><text fill="#000000" font-family="sans-serif" font-size="14" lengthAdjust="spacing" textLength="35.7178" x="613.5" y="156.7607">int Id</text><ellipse cx="604.5" cy="169.7109" fill="#FFFFFF" fill-opacity="0.00000" rx="3" ry="3" style="stroke:#038048;stroke-width:1;"/><text fill="#000000" font-family="sans-serif" font-size="14" lengthAdjust="spacing" textLength="85.9414" x="613.5" y="173.0576">string Name</text><ellipse cx="604.5" cy="186.0078" fill="#FFFFFF" fill-opacity="0.00000" rx="3" ry="3" style="stroke:#038048;stroke-width:1;"/><text fill="#000000" font-family="sans-serif" font-size="14" lengthAdjust="spacing" textLength="67.1426" x="613.5" y="189.3545">int ClubId</text><ellipse cx="604.5" cy="202.3047" fill="#FFFFFF" fill-opacity="0.00000" rx="3" ry="3" style="stroke:#038048;stroke-width:1;"/><text fill="#000000" font-family="sans-serif" font-size="14" lengthAdjust="spacing" textLength="90.7266" x="613.5" y="205.6514">int PositionId</text><line style="stroke:#181818;stroke-width:0.5;" x1="594.5" x2="725.8574" y1="212.9531" y2="212.9531"/></g><!--class Tournament--><g id="elem_Tournament"><rect codeLine="4" fill="#F1F1F1" height="170.3438" id="Tournament" rx="2.5" ry="2.5" style="stroke:#181818;stroke-width:0.5;" width="397.7656" x="783" y="75"/><ellipse cx="926.9541" cy="95.1328" fill="#ADD1B2" rx="11" ry="11" style="stroke:#181818;stroke-width:1;"/><path d="M929.9229,100.7734 Q929.3447,101.0703 928.7041,101.2109 Q928.0635,101.3672 927.3604,101.3672 Q924.8604,101.3672 923.5322,99.7266 Q922.2197,98.0703 922.2197,94.9453 Q922.2197,91.8203 923.5322,90.1641 Q924.8604,88.5078 927.3604,88.5078 Q928.0635,88.5078 928.7041,88.6641 Q929.3604,88.8203 929.9229,89.1172 L929.9229,91.8359 Q929.2979,91.2578 928.7041,90.9922 Q928.1104,90.7109 927.4854,90.7109 Q926.1416,90.7109 925.4541,91.7891 Q924.7666,92.8516 924.7666,94.9453 Q924.7666,97.0391 925.4541,98.1172 Q926.1416,99.1797 927.4854,99.1797 Q928.1104,99.1797 928.7041,98.9141 Q929.2979,98.6328 929.9229,98.0547 L929.9229,100.7734 Z " fill="#000000"/><text fill="#000000" font-family="sans-serif" font-size="12" font-style="italic" lengthAdjust="spacing" textLength="105.3574" x="945.4541" y="91.1387">&#171;AggregateRoot&#187;</text><text fill="#000000" font-family="sans-serif" font-size="14" lengthAdjust="spacing" textLength="85.8115" x="955.2271" y="106.9639">Tournament</text><line style="stroke:#181818;stroke-width:0.5;" x1="784" x2="1179.7656" y1="115.2656" y2="115.2656"/><ellipse cx="794" cy="128.9141" fill="#FFFFFF" fill-opacity="0.00000" rx="3" ry="3" style="stroke:#038048;stroke-width:1;"/><text fill="#000000" font-family="sans-serif" font-size="14" lengthAdjust="spacing" textLength="35.7178" x="803" y="132.2607">int Id</text><ellipse cx="794" cy="145.2109" fill="#FFFFFF" fill-opacity="0.00000" rx="3" ry="3" style="stroke:#038048;stroke-width:1;"/><text fill="#000000" font-family="sans-serif" font-size="14" lengthAdjust="spacing" textLength="85.9414" x="803" y="148.5576">string Name</text><ellipse cx="794" cy="161.5078" fill="#FFFFFF" fill-opacity="0.00000" rx="3" ry="3" style="stroke:#038048;stroke-width:1;"/><text fill="#000000" font-family="sans-serif" font-size="14" lengthAdjust="spacing" textLength="121.3926" x="803" y="164.8545">int CompetitionId</text><ellipse cx="794" cy="177.8047" fill="#FFFFFF" fill-opacity="0.00000" rx="3" ry="3" style="stroke:#038048;stroke-width:1;"/><text fill="#000000" font-family="sans-serif" font-size="14" lengthAdjust="spacing" textLength="141.2305" x="803" y="181.1514">int CreatedByUserId</text><rect fill="#FFFFFF" fill-opacity="0.00000" height="6" style="stroke:#C82930;stroke-width:1;" width="6" x="791" y="191.1016"/><text fill="#000000" font-family="sans-serif" font-size="14" lengthAdjust="spacing" textLength="172.2041" x="803" y="197.4482">List&lt;Bulletin&gt; _bulletins</text><ellipse cx="794" cy="210.3984" fill="#FFFFFF" fill-opacity="0.00000" rx="3" ry="3" style="stroke:#038048;stroke-width:1;"/><text fill="#000000" font-family="sans-serif" font-size="14" lengthAdjust="spacing" textLength="237.9248" x="803" y="213.7451">IReadOnlyList&lt;Bulletin&gt; Bulletins</text><line style="stroke:#181818;stroke-width:0.5;" x1="784" x2="1179.7656" y1="221.0469" y2="221.0469"/><ellipse cx="794" cy="234.6953" fill="#84BE84" rx="3" ry="3" style="stroke:#038048;stroke-width:1;"/><text fill="#000000" font-family="sans-serif" font-size="14" lengthAdjust="spacing" textLength="371.7656" x="803" y="238.042">void AddBulletin(string content, int createdByUserId)</text></g><!--class Bulletin--><g id="elem_Bulletin"><rect codeLine="15" fill="#F1F1F1" height="113.1875" id="Bulletin" rx="2.5" ry="2.5" style="stroke:#181818;stroke-width:0.5;" width="155.3838" x="904.5" y="338"/><ellipse cx="951.3809" cy="354" fill="#ADD1B2" rx="11" ry="11" style="stroke:#181818;stroke-width:1;"/><path d="M954.3496,359.6406 Q953.7715,359.9375 953.1309,360.0781 Q952.4902,360.2344 951.7871,360.2344 Q949.2871,360.2344 947.959,358.5938 Q946.6465,356.9375 946.6465,353.8125 Q946.6465,350.6875 947.959,349.0313 Q949.2871,347.375 951.7871,347.375 Q952.4902,347.375 953.1309,347.5313 Q953.7871,347.6875 954.3496,347.9844 L954.3496,350.7031 Q953.7246,350.125 953.1309,349.8594 Q952.5371,349.5781 951.9121,349.5781 Q950.5684,349.5781 949.8809,350.6563 Q949.1934,351.7188 949.1934,353.8125 Q949.1934,355.9063 949.8809,356.9844 Q950.5684,358.0469 951.9121,358.0469 Q952.5371,358.0469 953.1309,357.7813 Q953.7246,357.5 954.3496,356.9219 L954.3496,359.6406 Z " fill="#000000"/><text fill="#000000" font-family="sans-serif" font-size="14" lengthAdjust="spacing" textLength="53.1221" x="971.8809" y="358.8467">Bulletin</text><line style="stroke:#181818;stroke-width:0.5;" x1="905.5" x2="1058.8838" y1="370" y2="370"/><text fill="#000000" font-family="sans-serif" font-size="14" lengthAdjust="spacing" textLength="35.7178" x="910.5" y="386.9951">int Id</text><text fill="#000000" font-family="sans-serif" font-size="14" lengthAdjust="spacing" textLength="75.5781" x="910.5" y="403.292">string Text</text><text fill="#000000" font-family="sans-serif" font-size="14" lengthAdjust="spacing" textLength="143.3838" x="910.5" y="419.5889">DateTime CreatedAt</text><text fill="#000000" font-family="sans-serif" font-size="14" lengthAdjust="spacing" textLength="141.2305" x="910.5" y="435.8857">int CreatedByUserId</text><line style="stroke:#181818;stroke-width:0.5;" x1="905.5" x2="1058.8838" y1="443.1875" y2="443.1875"/></g><!--class Team--><g id="elem_Team"><rect codeLine="5" fill="#F1F1F1" height="235.5313" id="Team" rx="2.5" ry="2.5" style="stroke:#181818;stroke-width:0.5;" width="382.6445" x="154.5" y="42"/><ellipse cx="290.8936" cy="62.1328" fill="#ADD1B2" rx="11" ry="11" style="stroke:#181818;stroke-width:1;"/><path d="M293.8623,67.7734 Q293.2842,68.0703 292.6436,68.2109 Q292.0029,68.3672 291.2998,68.3672 Q288.7998,68.3672 287.4717,66.7266 Q286.1592,65.0703 286.1592,61.9453 Q286.1592,58.8203 287.4717,57.1641 Q288.7998,55.5078 291.2998,55.5078 Q292.0029,55.5078 292.6436,55.6641 Q293.2998,55.8203 293.8623,56.1172 L293.8623,58.8359 Q293.2373,58.2578 292.6436,57.9922 Q292.0498,57.7109 291.4248,57.7109 Q290.0811,57.7109 289.3936,58.7891 Q288.7061,59.8516 288.7061,61.9453 Q288.7061,64.0391 289.3936,65.1172 Q290.0811,66.1797 291.4248,66.1797 Q292.0498,66.1797 292.6436,65.9141 Q293.2373,65.6328 293.8623,65.0547 L293.8623,67.7734 Z " fill="#000000"/><text fill="#000000" font-family="sans-serif" font-size="12" font-style="italic" lengthAdjust="spacing" textLength="105.3574" x="309.3936" y="58.1387">&#171;AggregateRoot&#187;</text><text fill="#000000" font-family="sans-serif" font-size="14" lengthAdjust="spacing" textLength="39.3818" x="342.3813" y="73.9639">Team</text><line style="stroke:#181818;stroke-width:0.5;" x1="155.5" x2="536.1445" y1="82.2656" y2="82.2656"/><ellipse cx="165.5" cy="95.9141" fill="#FFFFFF" fill-opacity="0.00000" rx="3" ry="3" style="stroke:#038048;stroke-width:1;"/><text fill="#000000" font-family="sans-serif" font-size="14" lengthAdjust="spacing" textLength="35.7178" x="174.5" y="99.2607">int Id</text><ellipse cx="165.5" cy="112.2109" fill="#FFFFFF" fill-opacity="0.00000" rx="3" ry="3" style="stroke:#038048;stroke-width:1;"/><text fill="#000000" font-family="sans-serif" font-size="14" lengthAdjust="spacing" textLength="85.9414" x="174.5" y="115.5576">string Name</text><ellipse cx="165.5" cy="128.5078" fill="#FFFFFF" fill-opacity="0.00000" rx="3" ry="3" style="stroke:#038048;stroke-width:1;"/><text fill="#000000" font-family="sans-serif" font-size="14" lengthAdjust="spacing" textLength="133.0547" x="174.5" y="131.8545">TeamStatus Status</text><ellipse cx="165.5" cy="144.8047" fill="#FFFFFF" fill-opacity="0.00000" rx="3" ry="3" style="stroke:#038048;stroke-width:1;"/><text fill="#000000" font-family="sans-serif" font-size="14" lengthAdjust="spacing" textLength="67.6279" x="174.5" y="148.1514">int UserId</text><rect fill="#FFFFFF" fill-opacity="0.00000" height="6" style="stroke:#C82930;stroke-width:1;" width="6" x="162.5" y="158.1016"/><text fill="#000000" font-family="sans-serif" font-size="14" lengthAdjust="spacing" textLength="193.6348" x="174.5" y="164.4482">List&lt;TeamPlayer&gt; _players</text><ellipse cx="165.5" cy="177.3984" fill="#FFFFFF" fill-opacity="0.00000" rx="3" ry="3" style="stroke:#038048;stroke-width:1;"/><text fill="#000000" font-family="sans-serif" font-size="14" lengthAdjust="spacing" textLength="302.9688" x="174.5" y="180.7451">IReadOnlyCollection&lt;TeamPlayer&gt; Players</text><line style="stroke:#181818;stroke-width:0.5;" x1="155.5" x2="536.1445" y1="188.0469" y2="188.0469"/><ellipse cx="165.5" cy="201.6953" fill="#84BE84" rx="3" ry="3" style="stroke:#038048;stroke-width:1;"/><text fill="#000000" font-family="sans-serif" font-size="14" lengthAdjust="spacing" textLength="207.9424" x="174.5" y="205.042">void AddPlayer(Player player)</text><ellipse cx="165.5" cy="217.9922" fill="#84BE84" rx="3" ry="3" style="stroke:#038048;stroke-width:1;"/><text fill="#000000" font-family="sans-serif" font-size="14" lengthAdjust="spacing" textLength="222.9404" x="174.5" y="221.3389">void RemovePlater(int playerId)</text><ellipse cx="165.5" cy="234.2891" fill="#84BE84" rx="3" ry="3" style="stroke:#038048;stroke-width:1;"/><text fill="#000000" font-family="sans-serif" font-size="14" lengthAdjust="spacing" textLength="122.0625" x="174.5" y="237.6357">void SetCaptain()</text><ellipse cx="165.5" cy="250.5859" fill="#84BE84" rx="3" ry="3" style="stroke:#038048;stroke-width:1;"/><text fill="#000000" font-family="sans-serif" font-size="14" lengthAdjust="spacing" textLength="77.1709" x="174.5" y="253.9326">void Lock()</text><ellipse cx="165.5" cy="266.8828" fill="#84BE84" rx="3" ry="3" style="stroke:#038048;stroke-width:1;"/><text fill="#000000" font-family="sans-serif" font-size="14" lengthAdjust="spacing" textLength="356.6445" x="174.5" y="270.2295">void EnrollInTournament(Tournament tournament)</text></g><!--class TeamStatus--><g id="elem_TeamStatus"><rect codeLine="20" fill="#F1F1F1" height="72.5938" id="TeamStatus" rx="2.5" ry="2.5" style="stroke:#181818;stroke-width:0.5;" width="115.9932" x="23" y="358"/><ellipse cx="38" cy="374" fill="#EB937F" rx="11" ry="11" style="stroke:#181818;stroke-width:1;"/><path d="M42.1094,380 L34.3906,380 L34.3906,367.6094 L42.1094,367.6094 L42.1094,369.7656 L36.8438,369.7656 L36.8438,372.4375 L41.6094,372.4375 L41.6094,374.5938 L36.8438,374.5938 L36.8438,377.8438 L42.1094,377.8438 L42.1094,380 Z " fill="#000000"/><text fill="#000000" font-family="sans-serif" font-size="14" lengthAdjust="spacing" textLength="83.9932" x="52" y="378.8467">TeamStatus</text><line style="stroke:#181818;stroke-width:0.5;" x1="24" x2="137.9932" y1="390" y2="390"/><text fill="#000000" font-family="sans-serif" font-size="14" lengthAdjust="spacing" textLength="35.5332" x="29" y="406.9951">Draft</text><text fill="#000000" font-family="sans-serif" font-size="14" lengthAdjust="spacing" textLength="49.6699" x="29" y="423.292">Locked</text></g><!--class TeamPlayer--><g id="elem_TeamPlayer"><rect codeLine="25" fill="#F1F1F1" height="80.5938" id="TeamPlayer" rx="2.5" ry="2.5" style="stroke:#181818;stroke-width:0.5;" width="125.8525" x="174" y="354"/><ellipse cx="193.9074" cy="370" fill="#ADD1B2" rx="11" ry="11" style="stroke:#181818;stroke-width:1;"/><path d="M196.8761,375.6406 Q196.298,375.9375 195.6574,376.0781 Q195.0167,376.2344 194.3136,376.2344 Q191.8136,376.2344 190.4855,374.5938 Q189.173,372.9375 189.173,369.8125 Q189.173,366.6875 190.4855,365.0313 Q191.8136,363.375 194.3136,363.375 Q195.0167,363.375 195.6574,363.5313 Q196.3136,363.6875 196.8761,363.9844 L196.8761,366.7031 Q196.2511,366.125 195.6574,365.8594 Q195.0636,365.5781 194.4386,365.5781 Q193.0949,365.5781 192.4074,366.6563 Q191.7199,367.7188 191.7199,369.8125 Q191.7199,371.9063 192.4074,372.9844 Q193.0949,374.0469 194.4386,374.0469 Q195.0636,374.0469 195.6574,373.7813 Q196.2511,373.5 196.8761,372.9219 L196.8761,375.6406 Z " fill="#000000"/><text fill="#000000" font-family="sans-serif" font-size="14" lengthAdjust="spacing" textLength="82.9473" x="208.9979" y="374.8467">TeamPlayer</text><line style="stroke:#181818;stroke-width:0.5;" x1="175" x2="298.8525" y1="386" y2="386"/><ellipse cx="185" cy="399.6484" fill="#FFFFFF" fill-opacity="0.00000" rx="3" ry="3" style="stroke:#038048;stroke-width:1;"/><text fill="#000000" font-family="sans-serif" font-size="14" lengthAdjust="spacing" textLength="79.2832" x="194" y="402.9951">int PlayerId</text><ellipse cx="185" cy="415.9453" fill="#FFFFFF" fill-opacity="0.00000" rx="3" ry="3" style="stroke:#038048;stroke-width:1;"/><text fill="#000000" font-family="sans-serif" font-size="14" lengthAdjust="spacing" textLength="99.8525" x="194" y="419.292">bool IsCaptain</text><line style="stroke:#181818;stroke-width:0.5;" x1="175" x2="298.8525" y1="426.5938" y2="426.5938"/></g><!--class TournamentEnrollments--><g id="elem_TournamentEnrollments"><rect codeLine="30" fill="#F1F1F1" height="64.2969" id="TournamentEnrollments" rx="2.5" ry="2.5" style="stroke:#181818;stroke-width:0.5;" width="201.5381" x="335" y="362.5"/><ellipse cx="350" cy="378.5" fill="#ADD1B2" rx="11" ry="11" style="stroke:#181818;stroke-width:1;"/><path d="M352.9688,384.1406 Q352.3906,384.4375 351.75,384.5781 Q351.1094,384.7344 350.4063,384.7344 Q347.9063,384.7344 346.5781,383.0938 Q345.2656,381.4375 345.2656,378.3125 Q345.2656,375.1875 346.5781,373.5313 Q347.9063,371.875 350.4063,371.875 Q351.1094,371.875 351.75,372.0313 Q352.4063,372.1875 352.9688,372.4844 L352.9688,375.2031 Q352.3438,374.625 351.75,374.3594 Q351.1563,374.0781 350.5313,374.0781 Q349.1875,374.0781 348.5,375.1563 Q347.8125,376.2188 347.8125,378.3125 Q347.8125,380.4063 348.5,381.4844 Q349.1875,382.5469 350.5313,382.5469 Q351.1563,382.5469 351.75,382.2813 Q352.3438,382 352.9688,381.4219 L352.9688,384.1406 Z " fill="#000000"/><text fill="#000000" font-family="sans-serif" font-size="14" lengthAdjust="spacing" textLength="169.5381" x="364" y="383.3467">TournamentEnrollments</text><line style="stroke:#181818;stroke-width:0.5;" x1="336" x2="535.5381" y1="394.5" y2="394.5"/><ellipse cx="346" cy="408.1484" fill="#FFFFFF" fill-opacity="0.00000" rx="3" ry="3" style="stroke:#038048;stroke-width:1;"/><text fill="#000000" font-family="sans-serif" font-size="14" lengthAdjust="spacing" textLength="121.5293" x="355" y="411.4951">int TournamentId</text><line style="stroke:#181818;stroke-width:0.5;" x1="336" x2="535.5381" y1="418.7969" y2="418.7969"/></g><!--class User--><g id="elem_User"><rect codeLine="4" fill="#F1F1F1" height="105.1563" id="User" rx="2.5" ry="2.5" style="stroke:#181818;stroke-width:0.5;" width="143.8516" x="1237" y="107.5"/><ellipse cx="1256.7224" cy="127.6328" fill="#ADD1B2" rx="11" ry="11" style="stroke:#181818;stroke-width:1;"/><path d="M1259.6911,133.2734 Q1259.113,133.5703 1258.4724,133.7109 Q1257.8317,133.8672 1257.1286,133.8672 Q1254.6286,133.8672 1253.3005,132.2266 Q1251.988,130.5703 1251.988,127.4453 Q1251.988,124.3203 1253.3005,122.6641 Q1254.6286,121.0078 1257.1286,121.0078 Q1257.8317,121.0078 1258.4724,121.1641 Q1259.1286,121.3203 1259.6911,121.6172 L1259.6911,124.3359 Q1259.0661,123.7578 1258.4724,123.4922 Q1257.8786,123.2109 1257.2536,123.2109 Q1255.9099,123.2109 1255.2224,124.2891 Q1254.5349,125.3516 1254.5349,127.4453 Q1254.5349,129.5391 1255.2224,130.6172 Q1255.9099,131.6797 1257.2536,131.6797 Q1257.8786,131.6797 1258.4724,131.4141 Q1259.0661,131.1328 1259.6911,130.5547 L1259.6911,133.2734 Z " fill="#000000"/><text fill="#000000" font-family="sans-serif" font-size="12" font-style="italic" lengthAdjust="spacing" textLength="105.3574" x="1269.7718" y="123.6387">&#171;AggregateRoot&#187;</text><text fill="#000000" font-family="sans-serif" font-size="14" lengthAdjust="spacing" textLength="31.9102" x="1306.4954" y="139.4639">User</text><line style="stroke:#181818;stroke-width:0.5;" x1="1238" x2="1379.8516" y1="147.7656" y2="147.7656"/><ellipse cx="1248" cy="161.4141" fill="#FFFFFF" fill-opacity="0.00000" rx="3" ry="3" style="stroke:#038048;stroke-width:1;"/><text fill="#000000" font-family="sans-serif" font-size="14" lengthAdjust="spacing" textLength="35.7178" x="1257" y="164.7607">int Id</text><ellipse cx="1248" cy="177.7109" fill="#FFFFFF" fill-opacity="0.00000" rx="3" ry="3" style="stroke:#038048;stroke-width:1;"/><text fill="#000000" font-family="sans-serif" font-size="14" lengthAdjust="spacing" textLength="117.8516" x="1257" y="181.0576">string UserName</text><ellipse cx="1248" cy="194.0078" fill="#FFFFFF" fill-opacity="0.00000" rx="3" ry="3" style="stroke:#038048;stroke-width:1;"/><text fill="#000000" font-family="sans-serif" font-size="14" lengthAdjust="spacing" textLength="83.4805" x="1257" y="197.3545">string Email</text><line style="stroke:#181818;stroke-width:0.5;" x1="1238" x2="1379.8516" y1="204.6563" y2="204.6563"/></g><!--reverse link Tournament to Bulletin--><g id="link_Tournament_Bulletin"><path codeLine="22" d="M982,257.32 C982,288.1 982,310.05 982,337.78 " fill="#FFFFFF" fill-opacity="0.00000" id="Tournament-backto-Bulletin" style="stroke:#181818;stroke-width:1;"/><polygon fill="#181818" points="982,245.32,978,251.32,982,257.32,986,251.32,982,245.32" style="stroke:#181818;stroke-width:1;"/><text fill="#000000" font-family="sans-serif" font-size="13" lengthAdjust="spacing" textLength="35.1152" x="944.8508" y="327.0167">Many</text></g><!--reverse link Team to TeamStatus--><g id="link_Team_TeamStatus"><path codeLine="34" d="M164.25,290.19 C164.25,348.71 164.25,395 164.25,395 C164.25,395 153.26,395 139.27,395 " fill="#FFFFFF" fill-opacity="0.00000" id="Team-backto-TeamStatus" style="stroke:#181818;stroke-width:1;"/><polygon fill="#FFFFFF" fill-opacity="0.00000" points="164.25,278.19,160.25,284.19,164.25,290.19,168.25,284.19,164.25,278.19" style="stroke:#181818;stroke-width:1;"/></g><!--reverse link Team to TeamPlayer--><g id="link_Team_TeamPlayer"><path codeLine="35" d="M237,290.28 C237,317.49 237,332.62 237,353.81 " fill="#FFFFFF" fill-opacity="0.00000" id="Team-backto-TeamPlayer" style="stroke:#181818;stroke-width:1;"/><polygon fill="#181818" points="237,278.28,233,284.28,237,290.28,241,284.28,237,278.28" style="stroke:#181818;stroke-width:1;"/><text fill="#000000" font-family="sans-serif" font-size="13" lengthAdjust="spacing" textLength="33.0776" x="201.2858" y="342.9401">0..11</text></g><!--reverse link Team to TournamentEnrollments--><g id="link_Team_TournamentEnrollments"><path codeLine="36" d="M436,290.28 C436,321.24 436,340.11 436,362.24 " fill="#FFFFFF" fill-opacity="0.00000" id="Team-backto-TournamentEnrollments" style="stroke:#181818;stroke-width:1;"/><polygon fill="#181818" points="436,278.28,432,284.28,436,290.28,440,284.28,436,278.28" style="stroke:#181818;stroke-width:1;"/><text fill="#000000" font-family="sans-serif" font-size="13" lengthAdjust="spacing" textLength="36.5625" x="396.5571" y="351.463">many</text></g><!--link Team to Player--><g id="link_Team_Player"><path codeLine="39" d="M537.7,160 C557.49,160 576.51,160 593.41,160 " fill="#FFFFFF" fill-opacity="0.00000" id="Team-Player" style="stroke:#181818;stroke-width:1;"/></g><!--link Team to Tournament--><g id="link_Team_Tournament"><path codeLine="40" d="M537.68,233 C615.22,233 704.73,233 782.99,233 " fill="#FFFFFF" fill-opacity="0.00000" id="Team-Tournament" style="stroke:#181818;stroke-width:1;"/></g><!--SRC=[NSr12iCm34JHlKwXNg0dAQIBzW1gCs1JIpQIJSZjuqqePFi-myGlMnCNvKSszBs15- -f4jsoVSjOmSyYE_pUXfO_lkfm4uNrQu3eXTvnpYbItLYX7tXGoZF2XawPbsim7G00]--></g></svg>