<svg xmlns="http://www.w3.org/2000/svg" xmlns:xlink="http://www.w3.org/1999/xlink" contentStyleType="text/css" data-diagram-type="CLASS" height="473px" preserveAspectRatio="none" style="width:2226px;height:473px;background:#FFFFFF;" version="1.1" viewBox="0 0 2226 473" width="2226px" zoomAndPan="magnify"><defs/><g><!--class IRepository--><g id="elem_IRepository"><rect codeLine="3" fill="#F1F1F1" height="80.5938" id="IRepository" rx="2.5" ry="2.5" style="stroke:#181818;stroke-width:0.5;" width="288.1104" x="1384.5" y="10"/><ellipse cx="1465.9819" cy="26" fill="#B4A7E5" rx="11" ry="11" style="stroke:#181818;stroke-width:1;"/><path d="M1461.9038,21.7656 L1461.9038,19.6094 L1469.2944,19.6094 L1469.2944,21.7656 L1466.8257,21.7656 L1466.8257,29.8438 L1469.2944,29.8438 L1469.2944,32 L1461.9038,32 L1461.9038,29.8438 L1464.3726,29.8438 L1464.3726,21.7656 L1461.9038,21.7656 Z " fill="#000000"/><text fill="#000000" font-family="sans-serif" font-size="14" font-style="italic" lengthAdjust="spacing" textLength="79.2012" x="1486.4819" y="30.8467">IRepository</text><rect fill="#FFFFFF" height="15.9688" style="stroke:#181818;stroke-width:1;stroke-dasharray:2.0,2.0;" width="35.4453" x="1640.165" y="7"/><text fill="#000000" font-family="sans-serif" font-size="12" font-style="italic" lengthAdjust="spacing" textLength="33.4453" x="1641.165" y="19.1387">T, TId</text><line style="stroke:#181818;stroke-width:0.5;" x1="1385.5" x2="1671.6104" y1="42" y2="42"/><line style="stroke:#181818;stroke-width:0.5;" x1="1385.5" x2="1671.6104" y1="50" y2="50"/><text fill="#000000" font-family="sans-serif" font-size="14" lengthAdjust="spacing" textLength="276.1104" x="1390.5" y="66.9951">Task&lt;IEnumerable&lt;T&gt;&gt; GetAllAsync()</text><text fill="#000000" font-family="sans-serif" font-size="14" lengthAdjust="spacing" textLength="223.7266" x="1390.5" y="83.292">Task&lt;T?&gt; GetByIdAsync(TId id)</text></g><polygon fill="#FFFFFF" fill-opacity="0.00000" points="1528.5194,90.5938,1535.5017,110.6,1521.5017,110.5875" style="stroke:#181818;stroke-width:1;"/><line style="stroke:#181818;stroke-width:1;" x1="1528.5017" x2="1528.5" y1="110.5937" y2="112.5"/><!--class ICRUDRepository--><g id="elem_ICRUDRepository"><rect codeLine="8" fill="#F1F1F1" height="96.8906" id="ICRUDRepository" rx="2.5" ry="2.5" style="stroke:#181818;stroke-width:0.5;" width="250.082" x="1201.5" y="208"/><ellipse cx="1243.9074" cy="224" fill="#B4A7E5" rx="11" ry="11" style="stroke:#181818;stroke-width:1;"/><path d="M1239.8292,219.7656 L1239.8292,217.6094 L1247.2199,217.6094 L1247.2199,219.7656 L1244.7511,219.7656 L1244.7511,227.8438 L1247.2199,227.8438 L1247.2199,230 L1239.8292,230 L1239.8292,227.8438 L1242.298,227.8438 L1242.298,219.7656 L1239.8292,219.7656 Z " fill="#000000"/><text fill="#000000" font-family="sans-serif" font-size="14" font-style="italic" lengthAdjust="spacing" textLength="119.7314" x="1263.9979" y="228.8467">ICRUDRepository</text><rect fill="#FFFFFF" height="15.9688" style="stroke:#181818;stroke-width:1;stroke-dasharray:2.0,2.0;" width="35.4453" x="1419.1367" y="205"/><text fill="#000000" font-family="sans-serif" font-size="12" font-style="italic" lengthAdjust="spacing" textLength="33.4453" x="1420.1367" y="217.1387">T, TId</text><line style="stroke:#181818;stroke-width:0.5;" x1="1202.5" x2="1450.582" y1="240" y2="240"/><line style="stroke:#181818;stroke-width:0.5;" x1="1202.5" x2="1450.582" y1="248" y2="248"/><text fill="#000000" font-family="sans-serif" font-size="14" lengthAdjust="spacing" textLength="238.082" x="1207.5" y="264.9951">Task&lt;TId&gt; CreateAsync(T model)</text><text fill="#000000" font-family="sans-serif" font-size="14" lengthAdjust="spacing" textLength="196.9297" x="1207.5" y="281.292">Task UpdateAsync(T model)</text><text fill="#000000" font-family="sans-serif" font-size="14" lengthAdjust="spacing" textLength="185.8691" x="1207.5" y="297.5889">Task RemoveAsync(TId id)</text></g><polygon fill="#FFFFFF" fill-opacity="0.00000" points="1325.8211,304.8906,1332.5232,324.9924,1318.5247,324.7844" style="stroke:#181818;stroke-width:1;"/><line style="stroke:#181818;stroke-width:1;" x1="1325.5239" x2="1325.5" y1="324.8884" y2="326.5"/><line style="stroke:#181818;stroke-width:1;" x1="1394.0018" x2="1421.88" y1="208" y2="187.98"/><!--class IUserRepository--><g id="elem_IUserRepository"><rect codeLine="15" fill="#F1F1F1" height="64.2969" id="IUserRepository" rx="2.5" ry="2.5" style="stroke:#181818;stroke-width:0.5;" width="444.5029" x="1507" y="224.5"/><ellipse cx="1669.4458" cy="240.5" fill="#B4A7E5" rx="11" ry="11" style="stroke:#181818;stroke-width:1;"/><path d="M1665.3677,236.2656 L1665.3677,234.1094 L1672.7583,234.1094 L1672.7583,236.2656 L1670.2896,236.2656 L1670.2896,244.3438 L1672.7583,244.3438 L1672.7583,246.5 L1665.3677,246.5 L1665.3677,244.3438 L1667.8364,244.3438 L1667.8364,236.2656 L1665.3677,236.2656 Z " fill="#000000"/><text fill="#000000" font-family="sans-serif" font-size="14" font-style="italic" lengthAdjust="spacing" textLength="111.1113" x="1689.9458" y="245.3467">IUserRepository</text><line style="stroke:#181818;stroke-width:0.5;" x1="1508" x2="1950.5029" y1="256.5" y2="256.5"/><line style="stroke:#181818;stroke-width:0.5;" x1="1508" x2="1950.5029" y1="264.5" y2="264.5"/><text fill="#000000" font-family="sans-serif" font-size="14" lengthAdjust="spacing" textLength="432.5029" x="1513" y="281.4951">Task&lt;int&gt; CreateUserAsync(User user, string passwordHash)</text></g><!--class ITeamRepository--><g id="elem_ITeamRepository"><rect codeLine="20" fill="#F1F1F1" height="64.2969" id="ITeamRepository" rx="2.5" ry="2.5" style="stroke:#181818;stroke-width:0.5;" width="439.1299" x="7" y="402"/><ellipse cx="163.0234" cy="418" fill="#B4A7E5" rx="11" ry="11" style="stroke:#181818;stroke-width:1;"/><path d="M158.9453,413.7656 L158.9453,411.6094 L166.3359,411.6094 L166.3359,413.7656 L163.8672,413.7656 L163.8672,421.8438 L166.3359,421.8438 L166.3359,424 L158.9453,424 L158.9453,421.8438 L161.4141,421.8438 L161.4141,413.7656 L158.9453,413.7656 Z " fill="#000000"/><text fill="#000000" font-family="sans-serif" font-size="14" font-style="italic" lengthAdjust="spacing" textLength="118.583" x="183.5234" y="422.8467">ITeamRepository</text><line style="stroke:#181818;stroke-width:0.5;" x1="8" x2="445.1299" y1="434" y2="434"/><line style="stroke:#181818;stroke-width:0.5;" x1="8" x2="445.1299" y1="442" y2="442"/><text fill="#000000" font-family="sans-serif" font-size="14" lengthAdjust="spacing" textLength="427.1299" x="13" y="458.9951">Task&lt;IEnumerable&lt;Team&gt;&gt; GetUserTeamAsync(int userId)</text></g><!--class IPlayerRepository--><g id="elem_IPlayerRepository"><rect codeLine="25" fill="#F1F1F1" height="64.2969" id="IPlayerRepository" rx="2.5" ry="2.5" style="stroke:#181818;stroke-width:0.5;" width="920.6328" x="481" y="402"/><ellipse cx="875.6831" cy="418" fill="#B4A7E5" rx="11" ry="11" style="stroke:#181818;stroke-width:1;"/><path d="M871.605,413.7656 L871.605,411.6094 L878.9956,411.6094 L878.9956,413.7656 L876.5269,413.7656 L876.5269,421.8438 L878.9956,421.8438 L878.9956,424 L871.605,424 L871.605,421.8438 L874.0737,421.8438 L874.0737,413.7656 L871.605,413.7656 Z " fill="#000000"/><text fill="#000000" font-family="sans-serif" font-size="14" font-style="italic" lengthAdjust="spacing" textLength="122.7666" x="896.1831" y="422.8467">IPlayerRepository</text><line style="stroke:#181818;stroke-width:0.5;" x1="482" x2="1400.6328" y1="434" y2="434"/><line style="stroke:#181818;stroke-width:0.5;" x1="482" x2="1400.6328" y1="442" y2="442"/><text fill="#000000" font-family="sans-serif" font-size="14" lengthAdjust="spacing" textLength="908.6328" x="487" y="458.9951">Task&lt;IEnumerable&lt;Player&gt;&gt; GetPlayersNotInTeamAsync(int teamId, string nameQuery = null, int positionId = 0, int clubId = 0)</text></g><!--class IClubRepository--><g id="elem_IClubRepository"><rect codeLine="30" fill="#F1F1F1" height="64.2969" id="IClubRepository" rx="2.5" ry="2.5" style="stroke:#181818;stroke-width:0.5;" width="550.3369" x="1437.5" y="402"/><ellipse cx="1653.1055" cy="418" fill="#B4A7E5" rx="11" ry="11" style="stroke:#181818;stroke-width:1;"/><path d="M1649.0273,413.7656 L1649.0273,411.6094 L1656.418,411.6094 L1656.418,413.7656 L1653.9492,413.7656 L1653.9492,421.8438 L1656.418,421.8438 L1656.418,424 L1649.0273,424 L1649.0273,421.8438 L1651.4961,421.8438 L1651.4961,413.7656 L1649.0273,413.7656 Z " fill="#000000"/><text fill="#000000" font-family="sans-serif" font-size="14" font-style="italic" lengthAdjust="spacing" textLength="110.626" x="1673.6055" y="422.8467">IClubRepository</text><line style="stroke:#181818;stroke-width:0.5;" x1="1438.5" x2="1986.8369" y1="434" y2="434"/><line style="stroke:#181818;stroke-width:0.5;" x1="1438.5" x2="1986.8369" y1="442" y2="442"/><text fill="#000000" font-family="sans-serif" font-size="14" lengthAdjust="spacing" textLength="538.3369" x="1443.5" y="458.9951">Task&lt;IEnumerable&lt;Club&gt;&gt; GetClubsInCompetitionAsync(int competitionId)</text></g><!--class ICompetitionRepository--><g id="elem_ICompetitionRepository"><rect codeLine="35" fill="#F1F1F1" height="48" id="ICompetitionRepository" rx="2.5" ry="2.5" style="stroke:#181818;stroke-width:0.5;" width="196.876" x="2023" y="410"/><ellipse cx="2038" cy="426" fill="#B4A7E5" rx="11" ry="11" style="stroke:#181818;stroke-width:1;"/><path d="M2033.9219,421.7656 L2033.9219,419.6094 L2041.3125,419.6094 L2041.3125,421.7656 L2038.8438,421.7656 L2038.8438,429.8438 L2041.3125,429.8438 L2041.3125,432 L2033.9219,432 L2033.9219,429.8438 L2036.3906,429.8438 L2036.3906,421.7656 L2033.9219,421.7656 Z " fill="#000000"/><text fill="#000000" font-family="sans-serif" font-size="14" font-style="italic" lengthAdjust="spacing" textLength="164.876" x="2052" y="430.8467">ICompetitionRepository</text><line style="stroke:#181818;stroke-width:0.5;" x1="2024" x2="2218.876" y1="442" y2="442"/><line style="stroke:#181818;stroke-width:0.5;" x1="2024" x2="2218.876" y1="450" y2="450"/></g><!--reverse link IRepository to ICRUDRepository--><g id="link_IRepository_ICRUDRepository"><path codeLine="13" d="M1528.5,112.5 C1528.5,112.5 1474.18,150.95 1421.88,187.98 " fill="#FFFFFF" fill-opacity="0.00000" id="IRepository-backto-ICRUDRepository" style="stroke:#181818;stroke-width:1;"/><text fill="#000000" font-family="sans-serif" font-size="13" lengthAdjust="spacing" textLength="52.0508" x="1486.5" y="154.0669">extends</text></g><!--reverse link IRepository to IUserRepository--><g id="link_IRepository_IUserRepository"><path codeLine="18" d="M1528.5,112.5 C1528.5,112.5 1626.77,182.41 1685.89,224.47 " fill="#FFFFFF" fill-opacity="0.00000" id="IRepository-backto-IUserRepository" style="stroke:#181818;stroke-width:1;"/><text fill="#000000" font-family="sans-serif" font-size="13" lengthAdjust="spacing" textLength="164.9121" x="1593.5" y="154.0669">extends, T=User, TId=int</text></g><!--reverse link ICRUDRepository to ITeamRepository--><g id="link_ICRUDRepository_ITeamRepository"><path codeLine="23" d="M1325.5,326.5 C1325.5,326.5 845.74,359.68 463.5,402 C457.83,402.63 452.08,403.28 446.29,403.95 " fill="#FFFFFF" fill-opacity="0.00000" id="ICRUDRepository-backto-ITeamRepository" style="stroke:#181818;stroke-width:1;"/><text fill="#000000" font-family="sans-serif" font-size="13" lengthAdjust="spacing" textLength="171.8501" x="933.5" y="368.0669">extends, T=Team, TId=int</text></g><!--reverse link ICRUDRepository to IPlayerRepository--><g id="link_ICRUDRepository_IPlayerRepository"><path codeLine="28" d="M1325.5,326.5 C1325.5,326.5 1166.7,370.54 1053.34,401.98 " fill="#FFFFFF" fill-opacity="0.00000" id="ICRUDRepository-backto-IPlayerRepository" style="stroke:#181818;stroke-width:1;"/><text fill="#000000" font-family="sans-serif" font-size="13" lengthAdjust="spacing" textLength="175.7349" x="1218.5" y="368.0669">extends, T=Player, TId=int</text></g><!--reverse link ICRUDRepository to IClubRepository--><g id="link_ICRUDRepository_IClubRepository"><path codeLine="33" d="M1325.5,326.5 C1325.5,326.5 1485.54,370.54 1599.78,401.98 " fill="#FFFFFF" fill-opacity="0.00000" id="ICRUDRepository-backto-IClubRepository" style="stroke:#181818;stroke-width:1;"/><text fill="#000000" font-family="sans-serif" font-size="13" lengthAdjust="spacing" textLength="164.4614" x="1491.5" y="368.0669">extends, T=Club, TId=int</text></g><!--reverse link ICRUDRepository to ICompetitionRepository--><g id="link_ICRUDRepository_ICompetitionRepository"><path codeLine="37" d="M1325.5,326.5 C1325.5,326.5 1706.81,342.22 2004.5,402 C2015.93,404.3 2027.91,407.05 2039.65,409.96 " fill="#FFFFFF" fill-opacity="0.00000" id="ICRUDRepository-backto-ICompetitionRepository" style="stroke:#181818;stroke-width:1;"/><text fill="#000000" font-family="sans-serif" font-size="13" lengthAdjust="spacing" textLength="214.8364" x="1821.5" y="368.0669">extends, T=Competition, TId=int</text></g><!--SRC=[XP71JeGm48RlFCKStMGtCHuDh5dHQ2z6D_00NJgkP4jBsg8IzTrjgIuKOUL0Efq____DL1zAKLD5AzWhsTH4lA0g3HK5maKKbSAWUgQs85kifIwDL6sSBI4ZR0qV4TWle_eGarlHLAZeZcEShTTmXsR3-KQteZXRzBBigcjTjuJvdlM1aYsYho0htUOtf_EwEbL83VuOGIKPyZuByfgTw6wnagyuXXXC2V7dQZL6WKl0TuE2wO0trwW6eW6d5VroEf7FSoTex6y9sgXIxA6cMhz9nUwfVfdc64KSEUngahopibCaDYu0ov1Mqs31WrcLVpFdv2hFQOqwJE9tCrg5vneb15okDytro6axjx8XcTTvDd_M3z8G4J8QMn5sNAQW5JurQ5qJ40tdIt2YBggKmhvr0kV-hk3DpjVp0_v13KRqtUaXK-l-_uXEvGTq9qr4AgiQJSVQZrZqbwTUOnGPeBhU36Xl7l3Efapgmx1UqcT-0m00]--></g></svg>