<svg xmlns="http://www.w3.org/2000/svg" xmlns:xlink="http://www.w3.org/1999/xlink" contentStyleType="text/css" data-diagram-type="CLASS" height="441px" preserveAspectRatio="none" style="width:804px;height:441px;background:#FFFFFF;" version="1.1" viewBox="0 0 804 441" width="804px" zoomAndPan="magnify"><defs/><g><!--cluster TeamAggregate--><g id="cluster_TeamAggregate"><rect fill="#FFFFFF" fill-opacity="0.00000" height="428" rx="2.5" ry="2.5" style="stroke:#181818;stroke-width:1;" width="546" x="7" y="7"/><text fill="#000000" font-family="sans-serif" font-size="14" font-weight="bold" lengthAdjust="spacing" textLength="126.0137" x="216.9932" y="21.9951">TeamAggregate</text></g><!--class Team--><g id="elem_Team"><rect codeLine="5" fill="#F1F1F1" height="235.5313" id="Team" rx="2.5" ry="2.5" style="stroke:#181818;stroke-width:0.5;" width="382.6445" x="150.5" y="42"/><ellipse cx="286.8936" cy="62.1328" fill="#ADD1B2" rx="11" ry="11" style="stroke:#181818;stroke-width:1;"/><path d="M289.8623,67.7734 Q289.2842,68.0703 288.6436,68.2109 Q288.0029,68.3672 287.2998,68.3672 Q284.7998,68.3672 283.4717,66.7266 Q282.1592,65.0703 282.1592,61.9453 Q282.1592,58.8203 283.4717,57.1641 Q284.7998,55.5078 287.2998,55.5078 Q288.0029,55.5078 288.6436,55.6641 Q289.2998,55.8203 289.8623,56.1172 L289.8623,58.8359 Q289.2373,58.2578 288.6436,57.9922 Q288.0498,57.7109 287.4248,57.7109 Q286.0811,57.7109 285.3936,58.7891 Q284.7061,59.8516 284.7061,61.9453 Q284.7061,64.0391 285.3936,65.1172 Q286.0811,66.1797 287.4248,66.1797 Q288.0498,66.1797 288.6436,65.9141 Q289.2373,65.6328 289.8623,65.0547 L289.8623,67.7734 Z " fill="#000000"/><text fill="#000000" font-family="sans-serif" font-size="12" font-style="italic" lengthAdjust="spacing" textLength="105.3574" x="305.3936" y="58.1387">&#171;AggregateRoot&#187;</text><text fill="#000000" font-family="sans-serif" font-size="14" lengthAdjust="spacing" textLength="39.3818" x="338.3813" y="73.9639">Team</text><line style="stroke:#181818;stroke-width:0.5;" x1="151.5" x2="532.1445" y1="82.2656" y2="82.2656"/><ellipse cx="161.5" cy="95.9141" fill="#FFFFFF" fill-opacity="0.00000" rx="3" ry="3" style="stroke:#038048;stroke-width:1;"/><text fill="#000000" font-family="sans-serif" font-size="14" lengthAdjust="spacing" textLength="35.7178" x="170.5" y="99.2607">int Id</text><ellipse cx="161.5" cy="112.2109" fill="#FFFFFF" fill-opacity="0.00000" rx="3" ry="3" style="stroke:#038048;stroke-width:1;"/><text fill="#000000" font-family="sans-serif" font-size="14" lengthAdjust="spacing" textLength="85.9414" x="170.5" y="115.5576">string Name</text><ellipse cx="161.5" cy="128.5078" fill="#FFFFFF" fill-opacity="0.00000" rx="3" ry="3" style="stroke:#038048;stroke-width:1;"/><text fill="#000000" font-family="sans-serif" font-size="14" lengthAdjust="spacing" textLength="133.0547" x="170.5" y="131.8545">TeamStatus Status</text><ellipse cx="161.5" cy="144.8047" fill="#FFFFFF" fill-opacity="0.00000" rx="3" ry="3" style="stroke:#038048;stroke-width:1;"/><text fill="#000000" font-family="sans-serif" font-size="14" lengthAdjust="spacing" textLength="67.6279" x="170.5" y="148.1514">int UserId</text><rect fill="#FFFFFF" fill-opacity="0.00000" height="6" style="stroke:#C82930;stroke-width:1;" width="6" x="158.5" y="158.1016"/><text fill="#000000" font-family="sans-serif" font-size="14" lengthAdjust="spacing" textLength="193.6348" x="170.5" y="164.4482">List&lt;TeamPlayer&gt; _players</text><ellipse cx="161.5" cy="177.3984" fill="#FFFFFF" fill-opacity="0.00000" rx="3" ry="3" style="stroke:#038048;stroke-width:1;"/><text fill="#000000" font-family="sans-serif" font-size="14" lengthAdjust="spacing" textLength="302.9688" x="170.5" y="180.7451">IReadOnlyCollection&lt;TeamPlayer&gt; Players</text><line style="stroke:#181818;stroke-width:0.5;" x1="151.5" x2="532.1445" y1="188.0469" y2="188.0469"/><ellipse cx="161.5" cy="201.6953" fill="#84BE84" rx="3" ry="3" style="stroke:#038048;stroke-width:1;"/><text fill="#000000" font-family="sans-serif" font-size="14" lengthAdjust="spacing" textLength="207.9424" x="170.5" y="205.042">void AddPlayer(Player player)</text><ellipse cx="161.5" cy="217.9922" fill="#84BE84" rx="3" ry="3" style="stroke:#038048;stroke-width:1;"/><text fill="#000000" font-family="sans-serif" font-size="14" lengthAdjust="spacing" textLength="222.9404" x="170.5" y="221.3389">void RemovePlater(int playerId)</text><ellipse cx="161.5" cy="234.2891" fill="#84BE84" rx="3" ry="3" style="stroke:#038048;stroke-width:1;"/><text fill="#000000" font-family="sans-serif" font-size="14" lengthAdjust="spacing" textLength="122.0625" x="170.5" y="237.6357">void SetCaptain()</text><ellipse cx="161.5" cy="250.5859" fill="#84BE84" rx="3" ry="3" style="stroke:#038048;stroke-width:1;"/><text fill="#000000" font-family="sans-serif" font-size="14" lengthAdjust="spacing" textLength="77.1709" x="170.5" y="253.9326">void Lock()</text><ellipse cx="161.5" cy="266.8828" fill="#84BE84" rx="3" ry="3" style="stroke:#038048;stroke-width:1;"/><text fill="#000000" font-family="sans-serif" font-size="14" lengthAdjust="spacing" textLength="356.6445" x="170.5" y="270.2295">void EnrollInTournament(Tournament tournament)</text></g><!--class TeamStatus--><g id="elem_TeamStatus"><rect codeLine="20" fill="#F1F1F1" height="72.5938" id="TeamStatus" rx="2.5" ry="2.5" style="stroke:#181818;stroke-width:0.5;" width="115.9932" x="23" y="342"/><ellipse cx="38" cy="358" fill="#EB937F" rx="11" ry="11" style="stroke:#181818;stroke-width:1;"/><path d="M42.1094,364 L34.3906,364 L34.3906,351.6094 L42.1094,351.6094 L42.1094,353.7656 L36.8438,353.7656 L36.8438,356.4375 L41.6094,356.4375 L41.6094,358.5938 L36.8438,358.5938 L36.8438,361.8438 L42.1094,361.8438 L42.1094,364 Z " fill="#000000"/><text fill="#000000" font-family="sans-serif" font-size="14" lengthAdjust="spacing" textLength="83.9932" x="52" y="362.8467">TeamStatus</text><line style="stroke:#181818;stroke-width:0.5;" x1="24" x2="137.9932" y1="374" y2="374"/><text fill="#000000" font-family="sans-serif" font-size="14" lengthAdjust="spacing" textLength="35.5332" x="29" y="390.9951">Draft</text><text fill="#000000" font-family="sans-serif" font-size="14" lengthAdjust="spacing" textLength="49.6699" x="29" y="407.292">Locked</text></g><!--class TeamPlayer--><g id="elem_TeamPlayer"><rect codeLine="25" fill="#F1F1F1" height="80.5938" id="TeamPlayer" rx="2.5" ry="2.5" style="stroke:#181818;stroke-width:0.5;" width="125.8525" x="174" y="338"/><ellipse cx="193.9074" cy="354" fill="#ADD1B2" rx="11" ry="11" style="stroke:#181818;stroke-width:1;"/><path d="M196.8761,359.6406 Q196.298,359.9375 195.6574,360.0781 Q195.0167,360.2344 194.3136,360.2344 Q191.8136,360.2344 190.4855,358.5938 Q189.173,356.9375 189.173,353.8125 Q189.173,350.6875 190.4855,349.0313 Q191.8136,347.375 194.3136,347.375 Q195.0167,347.375 195.6574,347.5313 Q196.3136,347.6875 196.8761,347.9844 L196.8761,350.7031 Q196.2511,350.125 195.6574,349.8594 Q195.0636,349.5781 194.4386,349.5781 Q193.0949,349.5781 192.4074,350.6563 Q191.7199,351.7188 191.7199,353.8125 Q191.7199,355.9063 192.4074,356.9844 Q193.0949,358.0469 194.4386,358.0469 Q195.0636,358.0469 195.6574,357.7813 Q196.2511,357.5 196.8761,356.9219 L196.8761,359.6406 Z " fill="#000000"/><text fill="#000000" font-family="sans-serif" font-size="14" lengthAdjust="spacing" textLength="82.9473" x="208.9979" y="358.8467">TeamPlayer</text><line style="stroke:#181818;stroke-width:0.5;" x1="175" x2="298.8525" y1="370" y2="370"/><ellipse cx="185" cy="383.6484" fill="#FFFFFF" fill-opacity="0.00000" rx="3" ry="3" style="stroke:#038048;stroke-width:1;"/><text fill="#000000" font-family="sans-serif" font-size="14" lengthAdjust="spacing" textLength="79.2832" x="194" y="386.9951">int PlayerId</text><ellipse cx="185" cy="399.9453" fill="#FFFFFF" fill-opacity="0.00000" rx="3" ry="3" style="stroke:#038048;stroke-width:1;"/><text fill="#000000" font-family="sans-serif" font-size="14" lengthAdjust="spacing" textLength="99.8525" x="194" y="403.292">bool IsCaptain</text><line style="stroke:#181818;stroke-width:0.5;" x1="175" x2="298.8525" y1="410.5938" y2="410.5938"/></g><!--class TournamentEnrollments--><g id="elem_TournamentEnrollments"><rect codeLine="30" fill="#F1F1F1" height="64.2969" id="TournamentEnrollments" rx="2.5" ry="2.5" style="stroke:#181818;stroke-width:0.5;" width="201.5381" x="335" y="346.5"/><ellipse cx="350" cy="362.5" fill="#ADD1B2" rx="11" ry="11" style="stroke:#181818;stroke-width:1;"/><path d="M352.9688,368.1406 Q352.3906,368.4375 351.75,368.5781 Q351.1094,368.7344 350.4063,368.7344 Q347.9063,368.7344 346.5781,367.0938 Q345.2656,365.4375 345.2656,362.3125 Q345.2656,359.1875 346.5781,357.5313 Q347.9063,355.875 350.4063,355.875 Q351.1094,355.875 351.75,356.0313 Q352.4063,356.1875 352.9688,356.4844 L352.9688,359.2031 Q352.3438,358.625 351.75,358.3594 Q351.1563,358.0781 350.5313,358.0781 Q349.1875,358.0781 348.5,359.1563 Q347.8125,360.2188 347.8125,362.3125 Q347.8125,364.4063 348.5,365.4844 Q349.1875,366.5469 350.5313,366.5469 Q351.1563,366.5469 351.75,366.2813 Q352.3438,366 352.9688,365.4219 L352.9688,368.1406 Z " fill="#000000"/><text fill="#000000" font-family="sans-serif" font-size="14" lengthAdjust="spacing" textLength="169.5381" x="364" y="367.3467">TournamentEnrollments</text><line style="stroke:#181818;stroke-width:0.5;" x1="336" x2="535.5381" y1="378.5" y2="378.5"/><ellipse cx="346" cy="392.1484" fill="#FFFFFF" fill-opacity="0.00000" rx="3" ry="3" style="stroke:#038048;stroke-width:1;"/><text fill="#000000" font-family="sans-serif" font-size="14" lengthAdjust="spacing" textLength="121.5293" x="355" y="395.4951">int TournamentId</text><line style="stroke:#181818;stroke-width:0.5;" x1="336" x2="535.5381" y1="402.7969" y2="402.7969"/></g><!--class Player--><g id="elem_Player"><rect fill="#F1F1F1" height="32" id="Player" rx="2.5" ry="2.5" style="stroke:#181818;stroke-width:0.5;" width="75.5654" x="569" y="144"/><ellipse cx="584" cy="160" fill="#ADD1B2" rx="11" ry="11" style="stroke:#181818;stroke-width:1;"/><path d="M586.9688,165.6406 Q586.3906,165.9375 585.75,166.0781 Q585.1094,166.2344 584.4063,166.2344 Q581.9063,166.2344 580.5781,164.5938 Q579.2656,162.9375 579.2656,159.8125 Q579.2656,156.6875 580.5781,155.0313 Q581.9063,153.375 584.4063,153.375 Q585.1094,153.375 585.75,153.5313 Q586.4063,153.6875 586.9688,153.9844 L586.9688,156.7031 Q586.3438,156.125 585.75,155.8594 Q585.1563,155.5781 584.5313,155.5781 Q583.1875,155.5781 582.5,156.6563 Q581.8125,157.7188 581.8125,159.8125 Q581.8125,161.9063 582.5,162.9844 Q583.1875,164.0469 584.5313,164.0469 Q585.1563,164.0469 585.75,163.7813 Q586.3438,163.5 586.9688,162.9219 L586.9688,165.6406 Z " fill="#000000"/><text fill="#000000" font-family="sans-serif" font-size="14" lengthAdjust="spacing" textLength="43.5654" x="598" y="164.8467">Player</text></g><!--class Tournament--><g id="elem_Tournament"><rect fill="#F1F1F1" height="32" id="Tournament" rx="2.5" ry="2.5" style="stroke:#181818;stroke-width:0.5;" width="117.8115" x="680" y="144"/><ellipse cx="695" cy="160" fill="#ADD1B2" rx="11" ry="11" style="stroke:#181818;stroke-width:1;"/><path d="M697.9688,165.6406 Q697.3906,165.9375 696.75,166.0781 Q696.1094,166.2344 695.4063,166.2344 Q692.9063,166.2344 691.5781,164.5938 Q690.2656,162.9375 690.2656,159.8125 Q690.2656,156.6875 691.5781,155.0313 Q692.9063,153.375 695.4063,153.375 Q696.1094,153.375 696.75,153.5313 Q697.4063,153.6875 697.9688,153.9844 L697.9688,156.7031 Q697.3438,156.125 696.75,155.8594 Q696.1563,155.5781 695.5313,155.5781 Q694.1875,155.5781 693.5,156.6563 Q692.8125,157.7188 692.8125,159.8125 Q692.8125,161.9063 693.5,162.9844 Q694.1875,164.0469 695.5313,164.0469 Q696.1563,164.0469 696.75,163.7813 Q697.3438,163.5 697.9688,162.9219 L697.9688,165.6406 Z " fill="#000000"/><text fill="#000000" font-family="sans-serif" font-size="14" lengthAdjust="spacing" textLength="85.8115" x="709" y="164.8467">Tournament</text></g><!--reverse link Team to TeamStatus--><g id="link_Team_TeamStatus"><path codeLine="34" d="M162.25,290.15 C162.25,341.87 162.25,379 162.25,379 C162.25,379 152.21,379 139.18,379 " fill="#FFFFFF" fill-opacity="0.00000" id="Team-backto-TeamStatus" style="stroke:#181818;stroke-width:1;"/><polygon fill="#FFFFFF" fill-opacity="0.00000" points="162.25,278.15,158.25,284.15,162.25,290.15,166.25,284.15,162.25,278.15" style="stroke:#181818;stroke-width:1;"/></g><!--reverse link Team to TeamPlayer--><g id="link_Team_TeamPlayer"><path codeLine="35" d="M237,290.2 C237,311.72 237,320.77 237,337.99 " fill="#FFFFFF" fill-opacity="0.00000" id="Team-backto-TeamPlayer" style="stroke:#181818;stroke-width:1;"/><polygon fill="#181818" points="237,278.2,233,284.2,237,290.2,241,284.2,237,278.2" style="stroke:#181818;stroke-width:1;"/><text fill="#000000" font-family="sans-serif" font-size="13" lengthAdjust="spacing" textLength="33.0776" x="201.1834" y="326.8515">0..11</text></g><!--reverse link Team to TournamentEnrollments--><g id="link_Team_TournamentEnrollments"><path codeLine="36" d="M434.25,290.2 C434.25,315.34 434.25,327.84 434.25,346.34 " fill="#FFFFFF" fill-opacity="0.00000" id="Team-backto-TournamentEnrollments" style="stroke:#181818;stroke-width:1;"/><polygon fill="#181818" points="434.25,278.2,430.25,284.2,434.25,290.2,438.25,284.2,434.25,278.2" style="stroke:#181818;stroke-width:1;"/><text fill="#000000" font-family="sans-serif" font-size="13" lengthAdjust="spacing" textLength="36.5625" x="394.2822" y="335.2101">many</text></g><!--link Team to Player--><g id="link_Team_Player"><path codeLine="39" d="M533.53,160 C546.38,160 558.29,160 568.62,160 " fill="#FFFFFF" fill-opacity="0.00000" id="Team-Player" style="stroke:#181818;stroke-width:1;"/></g><!--link Team to Tournament--><g id="link_Team_Tournament"><path codeLine="40" d="M533.52,93 C635.04,93 739,93 739,93 C739,93 739,123.95 739,143.78 " fill="#FFFFFF" fill-opacity="0.00000" id="Team-Tournament" style="stroke:#181818;stroke-width:1;"/></g><!--SRC=[RLF1Ri8m3BttAonER5FHk2CajErG2GrKs7aoZLSYcgHA31AQzkzBsguf7RaaUNxFURRRenG4fCyA5F7H29UuazGrMbImbfhuMXDih0ybIOt52Kk2FQ5QbQMb4fbWiSYfODHbHSibV2VWLr6XSmtFXtjgRWptbB2Uf6R8HBmxjbANy8wA8XZIx1ZvxA3TRlKVZkmWHxgMZXT1iwtmIdO9dtLp6CYod51iT7LzCLNbpKkZRnJRJX0L5oC5h8He8zDsWpRnmuYMap8NyXJspE2mfMLYJDmHls3DAFLq75gRulGFVDFM-ytqtfojzYtIF8r7uFxOwdvQ-yri1osCtN-r-CNzBRn8OgYCG-pA7GrksvK54JuOKq7ckgeySYTVRxCj9vpSE7KaPJUMcY_AfEcWe8W_UdpoF9lDvvE1wr5SeRvExfj8_2CDCUrA-xj5Tf8Sm__IzKEHEeJFfC46a-ZmNm00]--></g></svg>