<svg xmlns="http://www.w3.org/2000/svg" xmlns:xlink="http://www.w3.org/1999/xlink" contentStyleType="text/css" data-diagram-type="CLASS" height="407px" preserveAspectRatio="none" style="width:443px;height:407px;background:#FFFFFF;" version="1.1" viewBox="0 0 443 407" width="443px" zoomAndPan="magnify"><defs/><g><!--cluster TournamentAggregate--><g id="cluster_TournamentAggregate"><rect fill="#FFFFFF" fill-opacity="0.00000" height="394" rx="2.5" ry="2.5" style="stroke:#181818;stroke-width:1;" width="430" x="7" y="7"/><text fill="#000000" font-family="sans-serif" font-size="14" font-weight="bold" lengthAdjust="spacing" textLength="179.1289" x="132.4355" y="21.9951">TournamentAggregate</text></g><!--class Tournament--><g id="elem_Tournament"><rect codeLine="4" fill="#F1F1F1" height="170.3438" id="Tournament" rx="2.5" ry="2.5" style="stroke:#181818;stroke-width:0.5;" width="397.7656" x="23" y="42"/><ellipse cx="166.9541" cy="62.1328" fill="#ADD1B2" rx="11" ry="11" style="stroke:#181818;stroke-width:1;"/><path d="M169.9229,67.7734 Q169.3447,68.0703 168.7041,68.2109 Q168.0635,68.3672 167.3604,68.3672 Q164.8604,68.3672 163.5322,66.7266 Q162.2197,65.0703 162.2197,61.9453 Q162.2197,58.8203 163.5322,57.1641 Q164.8604,55.5078 167.3604,55.5078 Q168.0635,55.5078 168.7041,55.6641 Q169.3604,55.8203 169.9229,56.1172 L169.9229,58.8359 Q169.2979,58.2578 168.7041,57.9922 Q168.1104,57.7109 167.4854,57.7109 Q166.1416,57.7109 165.4541,58.7891 Q164.7666,59.8516 164.7666,61.9453 Q164.7666,64.0391 165.4541,65.1172 Q166.1416,66.1797 167.4854,66.1797 Q168.1104,66.1797 168.7041,65.9141 Q169.2979,65.6328 169.9229,65.0547 L169.9229,67.7734 Z " fill="#000000"/><text fill="#000000" font-family="sans-serif" font-size="12" font-style="italic" lengthAdjust="spacing" textLength="105.3574" x="185.4541" y="58.1387">&#171;AggregateRoot&#187;</text><text fill="#000000" font-family="sans-serif" font-size="14" lengthAdjust="spacing" textLength="85.8115" x="195.2271" y="73.9639">Tournament</text><line style="stroke:#181818;stroke-width:0.5;" x1="24" x2="419.7656" y1="82.2656" y2="82.2656"/><ellipse cx="34" cy="95.9141" fill="#FFFFFF" fill-opacity="0.00000" rx="3" ry="3" style="stroke:#038048;stroke-width:1;"/><text fill="#000000" font-family="sans-serif" font-size="14" lengthAdjust="spacing" textLength="35.7178" x="43" y="99.2607">int Id</text><ellipse cx="34" cy="112.2109" fill="#FFFFFF" fill-opacity="0.00000" rx="3" ry="3" style="stroke:#038048;stroke-width:1;"/><text fill="#000000" font-family="sans-serif" font-size="14" lengthAdjust="spacing" textLength="85.9414" x="43" y="115.5576">string Name</text><ellipse cx="34" cy="128.5078" fill="#FFFFFF" fill-opacity="0.00000" rx="3" ry="3" style="stroke:#038048;stroke-width:1;"/><text fill="#000000" font-family="sans-serif" font-size="14" lengthAdjust="spacing" textLength="121.3926" x="43" y="131.8545">int CompetitionId</text><ellipse cx="34" cy="144.8047" fill="#FFFFFF" fill-opacity="0.00000" rx="3" ry="3" style="stroke:#038048;stroke-width:1;"/><text fill="#000000" font-family="sans-serif" font-size="14" lengthAdjust="spacing" textLength="141.2305" x="43" y="148.1514">int CreatedByUserId</text><rect fill="#FFFFFF" fill-opacity="0.00000" height="6" style="stroke:#C82930;stroke-width:1;" width="6" x="31" y="158.1016"/><text fill="#000000" font-family="sans-serif" font-size="14" lengthAdjust="spacing" textLength="172.2041" x="43" y="164.4482">List&lt;Bulletin&gt; _bulletins</text><ellipse cx="34" cy="177.3984" fill="#FFFFFF" fill-opacity="0.00000" rx="3" ry="3" style="stroke:#038048;stroke-width:1;"/><text fill="#000000" font-family="sans-serif" font-size="14" lengthAdjust="spacing" textLength="237.9248" x="43" y="180.7451">IReadOnlyList&lt;Bulletin&gt; Bulletins</text><line style="stroke:#181818;stroke-width:0.5;" x1="24" x2="419.7656" y1="188.0469" y2="188.0469"/><ellipse cx="34" cy="201.6953" fill="#84BE84" rx="3" ry="3" style="stroke:#038048;stroke-width:1;"/><text fill="#000000" font-family="sans-serif" font-size="14" lengthAdjust="spacing" textLength="371.7656" x="43" y="205.042">void AddBulletin(string content, int createdByUserId)</text></g><!--class Bulletin--><g id="elem_Bulletin"><rect codeLine="15" fill="#F1F1F1" height="113.1875" id="Bulletin" rx="2.5" ry="2.5" style="stroke:#181818;stroke-width:0.5;" width="155.3838" x="144.5" y="272"/><ellipse cx="191.3809" cy="288" fill="#ADD1B2" rx="11" ry="11" style="stroke:#181818;stroke-width:1;"/><path d="M194.3496,293.6406 Q193.7715,293.9375 193.1309,294.0781 Q192.4902,294.2344 191.7871,294.2344 Q189.2871,294.2344 187.959,292.5938 Q186.6465,290.9375 186.6465,287.8125 Q186.6465,284.6875 187.959,283.0313 Q189.2871,281.375 191.7871,281.375 Q192.4902,281.375 193.1309,281.5313 Q193.7871,281.6875 194.3496,281.9844 L194.3496,284.7031 Q193.7246,284.125 193.1309,283.8594 Q192.5371,283.5781 191.9121,283.5781 Q190.5684,283.5781 189.8809,284.6563 Q189.1934,285.7188 189.1934,287.8125 Q189.1934,289.9063 189.8809,290.9844 Q190.5684,292.0469 191.9121,292.0469 Q192.5371,292.0469 193.1309,291.7813 Q193.7246,291.5 194.3496,290.9219 L194.3496,293.6406 Z " fill="#000000"/><text fill="#000000" font-family="sans-serif" font-size="14" lengthAdjust="spacing" textLength="53.1221" x="211.8809" y="292.8467">Bulletin</text><line style="stroke:#181818;stroke-width:0.5;" x1="145.5" x2="298.8838" y1="304" y2="304"/><text fill="#000000" font-family="sans-serif" font-size="14" lengthAdjust="spacing" textLength="35.7178" x="150.5" y="320.9951">int Id</text><text fill="#000000" font-family="sans-serif" font-size="14" lengthAdjust="spacing" textLength="75.5781" x="150.5" y="337.292">string Text</text><text fill="#000000" font-family="sans-serif" font-size="14" lengthAdjust="spacing" textLength="143.3838" x="150.5" y="353.5889">DateTime CreatedAt</text><text fill="#000000" font-family="sans-serif" font-size="14" lengthAdjust="spacing" textLength="141.2305" x="150.5" y="369.8857">int CreatedByUserId</text><line style="stroke:#181818;stroke-width:0.5;" x1="145.5" x2="298.8838" y1="377.1875" y2="377.1875"/></g><!--reverse link Tournament to Bulletin--><g id="link_Tournament_Bulletin"><path codeLine="22" d="M222,224.16 C222,244.36 222,253.4 222,271.96 " fill="#FFFFFF" fill-opacity="0.00000" id="Tournament-backto-Bulletin" style="stroke:#181818;stroke-width:1;"/><polygon fill="#181818" points="222,212.16,218,218.16,222,224.16,226,218.16,222,212.16" style="stroke:#181818;stroke-width:1;"/><text fill="#000000" font-family="sans-serif" font-size="13" lengthAdjust="spacing" textLength="35.1152" x="184.7406" y="260.8183">Many</text></g><!--SRC=[RP5DQiCm48NtEiMGLVhZ6nY3tMu2QGB6NHVL6bGHUsIaIQafkNkLOCjog5QIvdkZDq_-P6YGJlQmDuGy3WX7nrzMY46s9waH6djs97iaBhLsg2KZv7cDBKlI7HO5_0e8g-sazmaTe2YehUK8NjUJ2S1EBMVFpf26Gv2keHVR3yY6ZQMKlvKSXjwg6jyzkgIOxOtdl3ftNH1I0H-VqzOl-bsDKXsf6-_OAg8B-ssDWbAfkRQTpBQME0pw35SpxThCmqr-4Kaqipo9uIw5gM-3FnplNaFNnlGuJrloIlrV1jEhoLSyPXbitYIDc-X2NCGV]--></g></svg>